<?xml version="1.0" encoding="UTF-8"?>
<!DOCTYPE svg PUBLIC "-//W3C//DTD SVG 1.1//EN" "http://www.w3.org/Graphics/SVG/1.1/DTD/svg11.dtd">
<!-- Creator: CorelDRAW -->
<svg xmlns="http://www.w3.org/2000/svg" xml:space="preserve" width="6.82666in" height="6.82666in" style="shape-rendering:geometricPrecision; text-rendering:geometricPrecision; image-rendering:optimizeQuality; fill-rule:evenodd; clip-rule:evenodd"
viewBox="0 0 6.82666 6.82666"
 xmlns:xlink="http://www.w3.org/1999/xlink">
 <defs>
  <style type="text/css">
   <![CDATA[
    .fil0 {fill:none}
    .fil4 {fill:#919191}
    .fil1 {fill:#C9C9C9}
    .fil2 {fill:#DEDEDE}
    .fil3 {fill:#919191;fill-rule:nonzero}
    .fil5 {fill:white;fill-rule:nonzero}
   ]]>
  </style>
 </defs>
 <g id="Layer_x0020_1">
  <metadata id="CorelCorpID_0Corel-Layer"/>
  <rect class="fil0" width="6.82666" height="6.82666"/>
  <rect class="fil0" x="0.853331" y="0.853331" width="5.12" height="5.12"/>
  <path class="fil1" d="M4.34396 0.879996l1.09586 1.09719 -0.899941 0c-0.10776,0 -0.195921,-0.0881614 -0.195921,-0.195921l0 -0.901272z"/>
  <path class="fil2" d="M1.51617 0.879996l2.82798 0 0 0.895823c0,0.11076 0.0906142,0.20137 0.20137,0.20137l0.89448 0 0 2.71614c0,0.0733346 -0.0599961,0.133331 -0.133331,0.133331l-3.7905 0c-0.0733346,0 -0.133331,-0.0599961 -0.133331,-0.133331l0 -3.68c0,-0.0733346 0.0599961,-0.133331 0.133331,-0.133331z"/>
  <path class="fil3" d="M2.84889 3.4095l0 -1.2989c0.374996,0.216496 0.750075,0.432846 1.12506,0.64935l-1.12506 0.649547z"/>
  <path class="fil4" d="M1.12465 4.08731l4.57736 0c0.0745827,0 0.142449,0.0307795 0.191701,0.0803583 0.049126,0.0494528 0.079622,0.117461 0.079622,0.192063l0 1.31451c0,0.0746024 -0.0305,0.142606 -0.079622,0.192059 -0.0492559,0.0495787 -0.117122,0.0803622 -0.191701,0.0803622l-4.57736 0c-0.0745748,0 -0.142449,-0.0307835 -0.191705,-0.0803622 -0.049122,-0.0494449 -0.0796181,-0.117449 -0.0796181,-0.192059l0 -1.31451c0,-0.0746063 0.0304961,-0.14261 0.0796181,-0.192063 0.049248,-0.0495787 0.117122,-0.0803583 0.191705,-0.0803583z"/>
  <path class="fil5" d="M2.84791 5.61351l-0.26222 0 -0.104165 -0.27111 -0.476945 0 -0.0983346 0.27111 -0.255555 0 0.46472 -1.19306 0.254724 0 0.477776 1.19306zm-0.44361 -0.471945l-0.164445 -0.442776 -0.16111 0.442776 0.325555 0zm1.64722 0.471945l-0.26222 0 -0.104165 -0.27111 -0.476945 0 -0.0983346 0.27111 -0.255555 0 0.46472 -1.19306 0.254724 0 0.477776 1.19306zm-0.44361 -0.471945l-0.164445 -0.442776 -0.16111 0.442776 0.325555 0zm1.33472 0.0333346l0.233335 0.0738898c-0.0358346,0.130276 -0.0952795,0.226941 -0.17861,0.290276 -0.0830551,0.0630551 -0.18889,0.0947244 -0.316945,0.0947244 -0.158335,0 -0.28861,-0.0541693 -0.390555,-0.162224 -0.101945,-0.108335 -0.153055,-0.25639 -0.153055,-0.44389 0,-0.19861 0.0513898,-0.352776 0.15389,-0.462776 0.102496,-0.10972 0.23722,-0.16472 0.404441,-0.16472 0.145835,0 0.264445,0.0430551 0.355555,0.129441 0.0544449,0.0508346 0.095,0.124169 0.122224,0.219724l-0.23861 0.0569449c-0.0138898,-0.0619449 -0.0433346,-0.110835 -0.0883346,-0.146669 -0.0447205,-0.0358307 -0.0991654,-0.0536102 -0.163055,-0.0536102 -0.0883346,0 -0.16028,0.0316693 -0.21528,0.0952795 -0.055,0.0633307 -0.0825,0.16611 -0.0825,0.308331 0,0.150835 0.0269449,0.258335 0.0813898,0.322224 0.0541654,0.0641654 0.124724,0.0961102 0.21139,0.0961102 0.0641654,0 0.119165,-0.0202795 0.165276,-0.0611102 0.0461142,-0.0405551 0.0791693,-0.104724 0.0994449,-0.191945z"/>
 </g>
</svg>
