<?xml version="1.0" encoding="UTF-8"?>
<!DOCTYPE svg PUBLIC "-//W3C//DTD SVG 1.1//EN" "http://www.w3.org/Graphics/SVG/1.1/DTD/svg11.dtd">
<!-- Creator: CorelDRAW -->
<svg xmlns="http://www.w3.org/2000/svg" xml:space="preserve" width="6.82666in" height="6.82666in" style="shape-rendering:geometricPrecision; text-rendering:geometricPrecision; image-rendering:optimizeQuality; fill-rule:evenodd; clip-rule:evenodd"
viewBox="0 0 6.82666 6.82666"
 xmlns:xlink="http://www.w3.org/1999/xlink">
 <defs>
  <style type="text/css">
   <![CDATA[
    .fil0 {fill:none}
    .fil4 {fill:#959595}
    .fil2 {fill:#C7C7C7}
    .fil1 {fill:#D7D7D7}
    .fil3 {fill:#959595;fill-rule:nonzero}
    .fil5 {fill:#D7D7D7;fill-rule:nonzero}
   ]]>
  </style>
 </defs>
 <g id="Layer_x0020_1">
  <metadata id="CorelCorpID_0Corel-Layer"/>
  <rect class="fil0" width="6.82666" height="6.82666"/>
  <rect class="fil0" x="0.853331" y="0.853331" width="5.12" height="5.12"/>
  <path class="fil1" d="M1.51617 0.853331l2.82798 0 0 0.895823c0,0.11076 0.0906142,0.20137 0.20137,0.20137l0.89448 0 0 2.71614c0,0.0733346 -0.0599961,0.133331 -0.133331,0.133331l-3.7905 0c-0.0733346,0 -0.133331,-0.0599961 -0.133331,-0.133331l0 -3.68c0,-0.0733346 0.0599961,-0.133331 0.133331,-0.133331z"/>
  <path class="fil2" d="M4.34396 0.853331l1.09586 1.09719 -0.899941 0c-0.10776,0 -0.195921,-0.0881614 -0.195921,-0.195921l0 -0.901272z"/>
  <polygon class="fil3" points="2.24,2.51781 4.69333,2.51781 4.69333,2.73115 2.24,2.73115 "/>
  <polygon class="fil3" points="2.24,3.26446 4.69333,3.26446 4.69333,3.4778 2.24,3.4778 "/>
  <path class="fil4" d="M1.12465 4.06065l4.57736 0c0.0745827,0 0.142449,0.0307795 0.191701,0.0803583 0.049126,0.0494528 0.079622,0.117461 0.079622,0.192063l0 1.31451c0,0.0746024 -0.0305,0.142606 -0.079622,0.192059 -0.0492559,0.0495787 -0.117122,0.0803622 -0.191701,0.0803622l-4.57736 0c-0.0745748,0 -0.142449,-0.0307835 -0.191705,-0.0803622 -0.049122,-0.0494449 -0.0796181,-0.117449 -0.0796181,-0.192059l0 -1.31451c0,-0.0746063 0.0304961,-0.14261 0.0796181,-0.192063 0.049248,-0.0495787 0.117122,-0.0803583 0.191705,-0.0803583z"/>
  <path class="fil5" d="M3.83458 5.58685l-0.26222 0 -0.104165 -0.27111 -0.476945 0 -0.0983346 0.27111 -0.255555 0 0.46472 -1.19306 0.254724 0 0.477776 1.19306zm-0.44361 -0.471945l-0.164445 -0.442776 -0.16111 0.442776 0.325555 0zm0.56972 -0.509445l0 -0.211665 0.228614 0 0 0.211665 -0.228614 0zm0 0.98139l0 -0.864165 0.228614 0 0 0.864165 -0.228614 0z"/>
 </g>
</svg>
