<?xml version="1.0" encoding="UTF-8"?>
<!DOCTYPE svg PUBLIC "-//W3C//DTD SVG 1.1//EN" "http://www.w3.org/Graphics/SVG/1.1/DTD/svg11.dtd">
<!-- Creator: CorelDRAW -->
<svg xmlns="http://www.w3.org/2000/svg" xml:space="preserve" width="6.82666in" height="6.82666in" style="shape-rendering:geometricPrecision; text-rendering:geometricPrecision; image-rendering:optimizeQuality; fill-rule:evenodd; clip-rule:evenodd"
viewBox="0 0 6.82666 6.82666"
 xmlns:xlink="http://www.w3.org/1999/xlink">
 <defs>
  <style type="text/css">
   <![CDATA[
    .fil1 {fill:none}
    .fil0 {fill:#009688}
    .fil2 {fill:#FFFFFE;fill-rule:nonzero}
   ]]>
  </style>
 </defs>
 <g id="Layer_x0020_1">
  <metadata id="CorelCorpID_0Corel-Layer"/>
  <rect class="fil0" width="6.82666" height="6.82666"/>
  <rect class="fil1" x="0.853331" y="0.853331" width="5.12" height="5.12"/>
  <g id="_281494416">
   <polygon id="_281494848" class="fil2" points="4.69333,1.01333 4.69333,1.65333 5.22666,1.65333 5.22666,1.86667 4.58667,1.86667 4.48,1.86667 4.48,1.76 4.48,1.01333 "/>
   <path id="_281494776" class="fil2" d="M1.71852 0.906661l2.86815 0 0.0441654 0 0.031252 0.031252 0.746665 0.746665 0.031252 0.031252 0 0.0441654 0 2.66667 0 0.106669 -0.106669 0 -3.73333 0 -0.106669 0 0 -0.106669 0 -3.29481c0,-0.0620433 0.0252992,-0.118358 0.0660669,-0.159118 0.0407598,-0.0407677 0.0970748,-0.0660669 0.159118,-0.0660669zm2.82398 0.213339l-2.82398 0c-0.00314567,0 -0.00609055,0.00137008 -0.00828346,0.00356299 -0.00219291,0.00219291 -0.00356299,0.0051378 -0.00356299,0.00828346l0 3.18815 3.51999 0 0 -2.51583 -0.684161 -0.684161z"/>
   <polygon id="_281494704" class="fil2" points="2.24,2.61333 4.69333,2.61333 4.69333,2.82667 2.24,2.82667 "/>
   <polygon id="_281494632" class="fil2" points="2.24,3.35998 4.69333,3.35998 4.69333,3.57332 2.24,3.57332 "/>
   <path id="_281494512" class="fil2" d="M1.12465 4.31999l4.57736 0c0.0745827,0 0.142449,0.0307795 0.191701,0.0803583 0.049126,0.0494528 0.079622,0.117461 0.079622,0.192063l0 1.05516c0,0.0746024 -0.0305,0.142606 -0.079622,0.192059 -0.0492559,0.0495787 -0.117122,0.0803622 -0.191701,0.0803622l-4.57736 0c-0.0745748,0 -0.142449,-0.0307835 -0.191705,-0.0803622 -0.049122,-0.0494449 -0.0796181,-0.117449 -0.0796181,-0.192059l0 -1.05516c0,-0.0746063 0.0304961,-0.14261 0.0796181,-0.192063 0.049248,-0.0495787 0.117122,-0.0803583 0.191705,-0.0803583zm4.57736 0.213339l-4.57736 0c-0.0159724,0 -0.0304409,0.00651969 -0.0408701,0.0170197 -0.0105551,0.010626 -0.0171142,0.0255079 -0.0171142,0.042063l0 1.05516c0,0.0165512 0.00655906,0.0314331 0.0171142,0.0420591 0.0104291,0.0105 0.0249055,0.0170236 0.0408701,0.0170236l4.57736 0c0.0159646,0 0.030437,-0.00652362 0.0408661,-0.0170236 0.0105591,-0.0106299 0.0171181,-0.0255118 0.0171181,-0.0420591l0 -1.05516c0,-0.0165512 -0.00655906,-0.0314331 -0.0171181,-0.042063 -0.0104291,-0.0104961 -0.0248937,-0.0170197 -0.0408661,-0.0170197z"/>
   <path id="_281494488" class="fil2" d="M3.09643 5.49289l-0.166752 0 -0.0662441 -0.172406 -0.303299 0 -0.0625315 0.172406 -0.162512 0 0.295528 -0.758689 0.16198 0 0.303831 0.758689zm-0.282102 -0.300118l-0.104575 -0.281571 -0.102453 0.281571 0.207028 0zm0.362299 -0.458571l0.15315 0 0 0.410878c0,0.0651811 0.00194488,0.107575 0.00565354,0.126831 0.00653543,0.0310866 0.0222559,0.0559961 0.046811,0.0747205 0.0247283,0.0188976 0.0584685,0.0282598 0.101217,0.0282598 0.0434567,0 0.076311,-0.00883071 0.0983898,-0.0266732 0.0220827,-0.0176614 0.0353307,-0.0395669 0.039748,-0.0653583 0.00459055,-0.0259646 0.0067126,-0.0688898 0.0067126,-0.128949l0 -0.419709 0.15315 0 0 0.398512c0,0.0911496 -0.00406299,0.155445 -0.0123661,0.193071 -0.00830315,0.037626 -0.0234921,0.0692441 -0.045752,0.0952126 -0.0222559,0.0257913 -0.0521102,0.0464567 -0.0892047,0.0618268 -0.0372717,0.0153661 -0.0860236,0.0229606 -0.146083,0.0229606 -0.0724252,0 -0.127362,-0.00829921 -0.164811,-0.0250827 -0.0374488,-0.0167795 -0.0669488,-0.0385079 -0.0886732,-0.0651811 -0.0217283,-0.0266732 -0.0360354,-0.0547598 -0.0429252,-0.0840827 -0.0100709,-0.0434528 -0.0150157,-0.107575 -0.0150157,-0.192543l0 -0.404693zm0.937098 0.758689l0 -0.630268 -0.225043 0 0 -0.128421 0.602886 0 0 0.128421 -0.224516 0 0 0.630268 -0.153327 0z"/>
  </g>
 </g>
</svg>
