<?xml version="1.0" encoding="UTF-8"?>
<!DOCTYPE svg PUBLIC "-//W3C//DTD SVG 1.1//EN" "http://www.w3.org/Graphics/SVG/1.1/DTD/svg11.dtd">
<!-- Creator: CorelDRAW -->
<svg xmlns="http://www.w3.org/2000/svg" xml:space="preserve" width="6.82666in" height="6.82666in" style="shape-rendering:geometricPrecision; text-rendering:geometricPrecision; image-rendering:optimizeQuality; fill-rule:evenodd; clip-rule:evenodd"
viewBox="0 0 6.82666 6.82666"
 xmlns:xlink="http://www.w3.org/1999/xlink">
 <defs>
  <style type="text/css">
   <![CDATA[
    .fil0 {fill:none}
    .fil4 {fill:#727272}
    .fil1 {fill:#B3B3B3}
    .fil2 {fill:#DBDBDB}
    .fil3 {fill:#727272;fill-rule:nonzero}
    .fil5 {fill:white;fill-rule:nonzero}
   ]]>
  </style>
 </defs>
 <g id="Layer_x0020_1">
  <metadata id="CorelCorpID_0Corel-Layer"/>
  <rect class="fil0" width="6.82666" height="6.82666"/>
  <rect class="fil0" x="0.853331" y="0.853331" width="5.12" height="5.12"/>
  <path class="fil1" d="M4.34396 0.879996l1.09586 1.09719 -0.899941 0c-0.10776,0 -0.195921,-0.0881614 -0.195921,-0.195921l0 -0.901272z"/>
  <path class="fil2" d="M1.51617 0.879996l2.82798 0 0 0.895823c0,0.11076 0.0906142,0.20137 0.20137,0.20137l0.89448 0 0 2.71614c0,0.0733346 -0.0599961,0.133331 -0.133331,0.133331l-3.7905 0c-0.0733346,0 -0.133331,-0.0599961 -0.133331,-0.133331l0 -3.68c0,-0.0733346 0.0599961,-0.133331 0.133331,-0.133331z"/>
  <polygon class="fil3" points="2.24,2.54447 4.69333,2.54447 4.69333,2.75781 2.24,2.75781 "/>
  <polygon class="fil3" points="2.24,3.29112 4.69333,3.29112 4.69333,3.50446 2.24,3.50446 "/>
  <path class="fil4" d="M1.12465 4.08731l4.57736 0c0.0745827,0 0.142449,0.0307795 0.191701,0.0803583 0.049126,0.0494528 0.079622,0.117461 0.079622,0.192063l0 1.31451c0,0.0746024 -0.0305,0.142606 -0.079622,0.192059 -0.0492559,0.0495787 -0.117122,0.0803622 -0.191701,0.0803622l-4.57736 0c-0.0745748,0 -0.142449,-0.0307835 -0.191705,-0.0803622 -0.049122,-0.0494449 -0.0796181,-0.117449 -0.0796181,-0.192059l0 -1.31451c0,-0.0746063 0.0304961,-0.14261 0.0796181,-0.192063 0.049248,-0.0495787 0.117122,-0.0803583 0.191705,-0.0803583z"/>
  <path class="fil5" d="M2.915 5.60337l-0.26222 0 -0.104165 -0.27111 -0.476945 0 -0.0983346 0.27111 -0.255555 0 0.46472 -1.19306 0.254724 0 0.477776 1.19306zm-0.44361 -0.471945l-0.164445 -0.442776 -0.16111 0.442776 0.325555 0zm0.56972 -0.72111l0.240835 0 0 0.64611c0,0.1025 0.00305512,0.169169 0.00888976,0.199445 0.0102756,0.0488898 0.035,0.0880551 0.0736102,0.1175 0.0388898,0.0297205 0.0919449,0.0444449 0.159165,0.0444449 0.0683346,0 0.12,-0.0138898 0.154724,-0.0419449 0.0347205,-0.0277795 0.0555551,-0.0622205 0.0625,-0.102776 0.00722047,-0.0408346 0.0105551,-0.108335 0.0105551,-0.20278l0 -0.66 0.240831 0 0 0.626665c0,0.143335 -0.00638583,0.244445 -0.0194409,0.30361 -0.0130591,0.0591693 -0.0369449,0.10889 -0.0719449,0.149724 -0.035,0.0405551 -0.0819449,0.0730551 -0.14028,0.0972205 -0.0586102,0.0241693 -0.135276,0.0361142 -0.22972,0.0361142 -0.11389,0 -0.20028,-0.0130591 -0.259169,-0.0394449 -0.0588858,-0.0263898 -0.105276,-0.0605551 -0.139441,-0.1025 -0.0341693,-0.0419449 -0.0566693,-0.0861142 -0.0675,-0.132224 -0.0158346,-0.0683307 -0.0236142,-0.169165 -0.0236142,-0.302776l0 -0.63639zm1.47361 1.19306l0 -0.99111 -0.353886 0 0 -0.201945 0.948055 0 0 0.201945 -0.353055 0 0 0.99111 -0.241114 0z"/>
 </g>
</svg>
