<?xml version="1.0" encoding="UTF-8"?>
<!DOCTYPE svg PUBLIC "-//W3C//DTD SVG 1.1//EN" "http://www.w3.org/Graphics/SVG/1.1/DTD/svg11.dtd">
<!-- Creator: CorelDRAW -->
<svg xmlns="http://www.w3.org/2000/svg" xml:space="preserve" width="6.82666in" height="6.82666in" style="shape-rendering:geometricPrecision; text-rendering:geometricPrecision; image-rendering:optimizeQuality; fill-rule:evenodd; clip-rule:evenodd"
viewBox="0 0 6.82666 6.82666"
 xmlns:xlink="http://www.w3.org/1999/xlink">
 <defs>
  <style type="text/css">
   <![CDATA[
    .fil1 {fill:none}
    .fil0 {fill:#42A5F5}
    .fil2 {fill:#FFFFFE;fill-rule:nonzero}
   ]]>
  </style>
 </defs>
 <g id="Layer_x0020_1">
  <metadata id="CorelCorpID_0Corel-Layer"/>
  <rect class="fil0" width="6.82666" height="6.82666"/>
  <rect class="fil1" x="0.853331" y="0.853331" width="5.12" height="5.12"/>
  <g id="_4701728">
   <polygon id="_4702160" class="fil2" points="4.69333,1.01333 4.69333,1.65333 5.22666,1.65333 5.22666,1.86667 4.58667,1.86667 4.48,1.86667 4.48,1.76 4.48,1.01333 "/>
   <path id="_4702088" class="fil2" d="M1.71852 0.906661l2.86815 0 0.0441654 0 0.031252 0.031252 0.746665 0.746665 0.031252 0.031252 0 0.0441654 0 2.66667 0 0.106669 -0.106669 0 -3.73333 0 -0.106669 0 0 -0.106669 0 -3.29481c0,-0.0620433 0.0252992,-0.118358 0.0660669,-0.159118 0.0407598,-0.0407677 0.0970748,-0.0660669 0.159118,-0.0660669zm2.82398 0.213339l-2.82398 0c-0.00314567,0 -0.00609055,0.00137008 -0.00828346,0.00356299 -0.00219291,0.00219291 -0.00356299,0.0051378 -0.00356299,0.00828346l0 3.18815 3.51999 0 0 -2.51583 -0.684161 -0.684161z"/>
   <polygon id="_4702016" class="fil2" points="2.24,2.61333 4.69333,2.61333 4.69333,2.82667 2.24,2.82667 "/>
   <polygon id="_4701944" class="fil2" points="2.24,3.35998 4.69333,3.35998 4.69333,3.57332 2.24,3.57332 "/>
   <path id="_4701824" class="fil2" d="M1.12465 4.31999l4.57736 0c0.0745827,0 0.142449,0.0307795 0.191701,0.0803583 0.049126,0.0494528 0.079622,0.117461 0.079622,0.192063l0 1.05516c0,0.0746024 -0.0305,0.142606 -0.079622,0.192059 -0.0492559,0.0495787 -0.117122,0.0803622 -0.191701,0.0803622l-4.57736 0c-0.0745748,0 -0.142449,-0.0307835 -0.191705,-0.0803622 -0.049122,-0.0494449 -0.0796181,-0.117449 -0.0796181,-0.192059l0 -1.05516c0,-0.0746063 0.0304961,-0.14261 0.0796181,-0.192063 0.049248,-0.0495787 0.117122,-0.0803583 0.191705,-0.0803583zm4.57736 0.213339l-4.57736 0c-0.0159724,0 -0.0304409,0.00651969 -0.0408701,0.0170197 -0.0105551,0.010626 -0.0171142,0.0255079 -0.0171142,0.042063l0 1.05516c0,0.0165512 0.00655906,0.0314331 0.0171142,0.0420591 0.0104291,0.0105 0.0249055,0.0170236 0.0408701,0.0170236l4.57736 0c0.0159646,0 0.030437,-0.00652362 0.0408661,-0.0170236 0.0105591,-0.0106299 0.0171181,-0.0255118 0.0171181,-0.0420591l0 -1.05516c0,-0.0165512 -0.00655906,-0.0314331 -0.0171181,-0.042063 -0.0104291,-0.0104961 -0.0248937,-0.0170197 -0.0408661,-0.0170197z"/>
   <path id="_4701800" class="fil2" d="M2.62064 4.74065l0.303299 0c0.0600591,0 0.104925,0.00247638 0.134425,0.00759843 0.0295,0.00494488 0.0558189,0.0153661 0.0791378,0.0312638 0.023315,0.0158976 0.0425709,0.0369213 0.0581142,0.0634173 0.0155472,0.0263189 0.0233189,0.0559961 0.0233189,0.0886732 0,0.0355079 -0.00953937,0.068185 -0.0286181,0.0978622 -0.019252,0.0296772 -0.0452205,0.0519331 -0.0779016,0.0667717 0.0461063,0.0134252 0.0817874,0.0363898 0.10652,0.0687165 0.0249055,0.0325 0.0372717,0.0706575 0.0372717,0.114465 0,0.0344449 -0.00794882,0.0680079 -0.0240236,0.100685 -0.0160748,0.0325039 -0.0379803,0.0586457 -0.0657126,0.0780787 -0.0277323,0.0194291 -0.0620039,0.0314409 -0.102807,0.0360354 -0.025437,0.00264961 -0.0870866,0.00441732 -0.184772,0.00512205l-0.258252 0 0 -0.758689zm0.153327 0.126303l0 0.175406 0.100335 0c0.0597047,0 0.0967992,-0.00088189 0.111287,-0.00264961 0.0261417,-0.003 0.0468071,-0.0120118 0.0618228,-0.0270236 0.0150157,-0.0150157 0.0224331,-0.0347992 0.0224331,-0.0593543 0,-0.0234921 -0.00635827,-0.0425709 -0.019252,-0.0572323 -0.0130709,-0.0146614 -0.0323268,-0.0234921 -0.0577638,-0.0264961 -0.0151929,-0.00176772 -0.0588228,-0.00264961 -0.130894,-0.00264961l-0.0879685 0zm0 0.301709l0 0.202787 0.141669 0c0.0552874,0 0.0902638,-0.00141339 0.105102,-0.00459449 0.0227874,-0.00406299 0.0413346,-0.0143071 0.0556417,-0.0302047 0.014311,-0.0160748 0.0215512,-0.037626 0.0215512,-0.0644764 0,-0.0227874 -0.00564961,-0.0420394 -0.0166024,-0.057937 -0.0111299,-0.0159016 -0.0270276,-0.0275591 -0.0478701,-0.0347992 -0.0208465,-0.00724409 -0.0662441,-0.0107756 -0.135843,-0.0107756l-0.12365 0zm0.606953 0.330677l0 -0.758689 0.15315 0 0 0.758689 -0.15315 0zm0.300646 0l0 -0.758689 0.149087 0 0.310543 0.506618 0 -0.506618 0.142374 0 0 0.758689 -0.153858 0 -0.305772 -0.49478 0 0.49478 -0.142374 0z"/>
  </g>
 </g>
</svg>
