<?xml version="1.0" encoding="UTF-8"?>
<!DOCTYPE svg PUBLIC "-//W3C//DTD SVG 1.1//EN" "http://www.w3.org/Graphics/SVG/1.1/DTD/svg11.dtd">
<!-- Creator: CorelDRAW -->
<svg xmlns="http://www.w3.org/2000/svg" xml:space="preserve" width="6.82666in" height="6.82666in" style="shape-rendering:geometricPrecision; text-rendering:geometricPrecision; image-rendering:optimizeQuality; fill-rule:evenodd; clip-rule:evenodd"
viewBox="0 0 6.82666 6.82666"
 xmlns:xlink="http://www.w3.org/1999/xlink">
 <defs>
  <style type="text/css">
   <![CDATA[
    .fil0 {fill:none}
    .fil4 {fill:#6A6A6A}
    .fil1 {fill:#8C8D8D}
    .fil2 {fill:#D8D8D8}
    .fil3 {fill:#6A6A6A;fill-rule:nonzero}
    .fil5 {fill:white;fill-rule:nonzero}
   ]]>
  </style>
 </defs>
 <g id="Layer_x0020_1">
  <metadata id="CorelCorpID_0Corel-Layer"/>
  <rect class="fil0" width="6.82666" height="6.82666"/>
  <rect class="fil0" x="0.853331" y="0.853331" width="5.12" height="5.12"/>
  <path class="fil1" d="M4.34396 0.879996l1.09586 1.09719 -0.899941 0c-0.10776,0 -0.195921,-0.0881614 -0.195921,-0.195921l0 -0.901272z"/>
  <path class="fil2" d="M1.51617 0.879996l2.82798 0 0 0.895823c0,0.11076 0.0906142,0.20137 0.20137,0.20137l0.89448 0 0 2.71614c0,0.0733346 -0.0599961,0.133331 -0.133331,0.133331l-3.7905 0c-0.0733346,0 -0.133331,-0.0599961 -0.133331,-0.133331l0 -3.68c0,-0.0733346 0.0599961,-0.133331 0.133331,-0.133331z"/>
  <polygon class="fil3" points="2.24,2.54447 4.69333,2.54447 4.69333,2.75781 2.24,2.75781 "/>
  <polygon class="fil3" points="2.24,3.29112 4.69333,3.29112 4.69333,3.50446 2.24,3.50446 "/>
  <path class="fil4" d="M1.12465 4.08731l4.57736 0c0.0745827,0 0.142449,0.0307795 0.191701,0.0803583 0.049126,0.0494528 0.079622,0.117461 0.079622,0.192063l0 1.31451c0,0.0746024 -0.0305,0.142606 -0.079622,0.192059 -0.0492559,0.0495787 -0.117122,0.0803622 -0.191701,0.0803622l-4.57736 0c-0.0745748,0 -0.142449,-0.0307835 -0.191705,-0.0803622 -0.049122,-0.0494449 -0.0796181,-0.117449 -0.0796181,-0.192059l0 -1.31451c0,-0.0746063 0.0304961,-0.14261 0.0796181,-0.192063 0.049248,-0.0495787 0.117122,-0.0803583 0.191705,-0.0803583z"/>
  <path class="fil5" d="M2.1668 4.42046l0.476945 0c0.0944449,0 0.165,0.00388976 0.211386,0.0119449 0.0463898,0.00777953 0.0877795,0.0241654 0.124445,0.0491654 0.0366693,0.025 0.0669449,0.0580551 0.0913898,0.0997244 0.0244449,0.0413898 0.0366654,0.0880551 0.0366654,0.139445 0,0.0558307 -0.015,0.10722 -0.045,0.153886 -0.0302756,0.0466693 -0.0711102,0.0816693 -0.1225,0.105 0.0725,0.0211142 0.128614,0.0572244 0.1675,0.108055 0.0391693,0.0511142 0.0586142,0.111114 0.0586142,0.18 0,0.0541693 -0.0125,0.106945 -0.0377795,0.158335 -0.0252795,0.0511102 -0.0597205,0.0922205 -0.103335,0.12278 -0.0436102,0.0305551 -0.0975,0.0494409 -0.161665,0.0566654 -0.04,0.00416535 -0.136945,0.00694488 -0.290555,0.00805512l-0.40611 0 0 -1.19306zm0.24111 0.19861l0 0.275835 0.15778 0c0.0938858,0 0.15222,-0.00138976 0.175,-0.00416535 0.0411102,-0.00472441 0.0736102,-0.0188898 0.0972205,-0.0425 0.0236102,-0.0236142 0.0352795,-0.0547244 0.0352795,-0.0933346 0,-0.0369449 -0.01,-0.0669449 -0.0302795,-0.09 -0.0205551,-0.0230551 -0.0508346,-0.0369449 -0.0908346,-0.0416654 -0.0238858,-0.00277953 -0.0925,-0.00416929 -0.205831,-0.00416929l-0.138335 0zm0 0.474445l0 0.31889 0.22278 0c0.0869409,0 0.141941,-0.00222441 0.165276,-0.00722441 0.0358346,-0.00638583 0.065,-0.0225 0.0875,-0.0475 0.0225,-0.0252756 0.0338898,-0.0591654 0.0338898,-0.101386 0,-0.0358346 -0.00888976,-0.0661142 -0.0261102,-0.0911142 -0.0175,-0.025 -0.0425,-0.0433307 -0.0752795,-0.0547205 -0.0327756,-0.0113898 -0.104165,-0.0169449 -0.21361,-0.0169449l-0.194445 0zm0.954445 0.52l0 -1.19306 0.240831 0 0 1.19306 -0.240831 0zm0.472776 0l0 -1.19306 0.234445 0 0.488335 0.796665 0 -0.796665 0.223886 0 0 1.19306 -0.241941 0 -0.480835 -0.778055 0 0.778055 -0.22389 0z"/>
 </g>
</svg>
