<?xml version="1.0" encoding="UTF-8"?>
<!DOCTYPE svg PUBLIC "-//W3C//DTD SVG 1.1//EN" "http://www.w3.org/Graphics/SVG/1.1/DTD/svg11.dtd">
<!-- Creator: CorelDRAW -->
<svg xmlns="http://www.w3.org/2000/svg" xml:space="preserve" width="6.82666in" height="6.82666in" style="shape-rendering:geometricPrecision; text-rendering:geometricPrecision; image-rendering:optimizeQuality; fill-rule:evenodd; clip-rule:evenodd"
viewBox="0 0 6.82666 6.82666"
 xmlns:xlink="http://www.w3.org/1999/xlink">
 <defs>
  <style type="text/css">
   <![CDATA[
    .fil1 {fill:none}
    .fil0 {fill:#9E9E9E}
    .fil2 {fill:#FFFFFE;fill-rule:nonzero}
   ]]>
  </style>
 </defs>
 <g id="Layer_x0020_1">
  <metadata id="CorelCorpID_0Corel-Layer"/>
  <rect class="fil0" width="6.82666" height="6.82666"/>
  <rect class="fil1" x="0.853331" y="0.853331" width="5.12" height="5.12"/>
  <g id="_283192416">
   <polygon id="_283192848" class="fil2" points="4.69333,1.01333 4.69333,1.65333 5.22666,1.65333 5.22666,1.86667 4.58667,1.86667 4.48,1.86667 4.48,1.76 4.48,1.01333 "/>
   <path id="_283192776" class="fil2" d="M1.71852 0.906661l2.86815 0 0.0441654 0 0.031252 0.031252 0.746665 0.746665 0.031252 0.031252 0 0.0441654 0 2.66667 0 0.106669 -0.106669 0 -3.73333 0 -0.106669 0 0 -0.106669 0 -3.29481c0,-0.0620433 0.0252992,-0.118358 0.0660669,-0.159118 0.0407598,-0.0407677 0.0970748,-0.0660669 0.159118,-0.0660669zm2.82398 0.213339l-2.82398 0c-0.00314567,0 -0.00609055,0.00137008 -0.00828346,0.00356299 -0.00219291,0.00219291 -0.00356299,0.0051378 -0.00356299,0.00828346l0 3.18815 3.51999 0 0 -2.51583 -0.684161 -0.684161z"/>
   <polygon id="_283192704" class="fil2" points="2.24,2.61333 4.69333,2.61333 4.69333,2.82667 2.24,2.82667 "/>
   <polygon id="_283192632" class="fil2" points="2.24,3.35998 4.69333,3.35998 4.69333,3.57332 2.24,3.57332 "/>
   <path id="_283192512" class="fil2" d="M1.12465 4.31999l4.57736 0c0.0745827,0 0.142449,0.0307795 0.191701,0.0803583 0.049126,0.0494528 0.079622,0.117461 0.079622,0.192063l0 1.05516c0,0.0746024 -0.0305,0.142606 -0.079622,0.192059 -0.0492559,0.0495787 -0.117122,0.0803622 -0.191701,0.0803622l-4.57736 0c-0.0745748,0 -0.142449,-0.0307835 -0.191705,-0.0803622 -0.049122,-0.0494449 -0.0796181,-0.117449 -0.0796181,-0.192059l0 -1.05516c0,-0.0746063 0.0304961,-0.14261 0.0796181,-0.192063 0.049248,-0.0495787 0.117122,-0.0803583 0.191705,-0.0803583zm4.57736 0.213339l-4.57736 0c-0.0159724,0 -0.0304409,0.00651969 -0.0408701,0.0170197 -0.0105551,0.010626 -0.0171142,0.0255079 -0.0171142,0.042063l0 1.05516c0,0.0165512 0.00655906,0.0314331 0.0171142,0.0420591 0.0104291,0.0105 0.0249055,0.0170236 0.0408701,0.0170236l4.57736 0c0.0159646,0 0.030437,-0.00652362 0.0408661,-0.0170236 0.0105591,-0.0106299 0.0171181,-0.0255118 0.0171181,-0.0420591l0 -1.05516c0,-0.0165512 -0.00655906,-0.0314331 -0.0171181,-0.042063 -0.0104291,-0.0104961 -0.0248937,-0.0170197 -0.0408661,-0.0170197z"/>
   <path id="_283192488" class="fil2" d="M1.95972 4.7258l0.27998 0c0.063063,0 0.11111,0.00477165 0.144319,0.0144882 0.0445118,0.0130709 0.0826693,0.0363858 0.114287,0.0699488 0.0317953,0.0333858 0.0559961,0.0743661 0.0726024,0.122768 0.0164252,0.0485787 0.0247283,0.108283 0.0247283,0.179472 0,0.0623543 -0.00777165,0.116232 -0.023315,0.161453 -0.0189016,0.0551102 -0.0459291,0.0998031 -0.0812559,0.133894 -0.0265,0.0259685 -0.0623583,0.0461063 -0.107579,0.0605906 -0.0337402,0.0107756 -0.0789606,0.0160748 -0.135661,0.0160748l-0.288106 0 0 -0.758689zm0.15315 0.128421l0 0.502378 0.114287 0c0.042748,0 0.0736614,-0.00229528 0.0927402,-0.00724409 0.0247283,-0.0061811 0.0453976,-0.0166024 0.0618228,-0.0314409 0.0164291,-0.0148386 0.0296772,-0.0393937 0.0400984,-0.0733071 0.010248,-0.0339173 0.0155472,-0.080374 0.0155472,-0.13902 0,-0.0586457 -0.00529921,-0.103516 -0.0155472,-0.134957 -0.0104213,-0.0314409 -0.0249055,-0.0559961 -0.0434528,-0.0734843 -0.0187244,-0.0176654 -0.0423937,-0.0295 -0.0710118,-0.0356811 -0.021374,-0.00494882 -0.0632362,-0.00724409 -0.125772,-0.00724409l-0.0687126 0zm0.581689 0.255606c0,-0.0773701 0.0114843,-0.142201 0.034626,-0.194661 0.017311,-0.0385118 0.0408031,-0.073311 0.0706575,-0.104047 0.0298504,-0.0305591 0.0625315,-0.0533465 0.0980354,-0.0681811 0.0473425,-0.0201378 0.101748,-0.0300315 0.163575,-0.0300315 0.111815,0 0.201197,0.034622 0.268323,0.104043 0.067122,0.0692441 0.100685,0.165693 0.100685,0.289165 0,0.122594 -0.0333858,0.218335 -0.0999803,0.287579 -0.0665945,0.0690669 -0.155622,0.103689 -0.266909,0.103689 -0.112874,0 -0.20261,-0.0344449 -0.269205,-0.103157 -0.0665945,-0.0688937 -0.0998071,-0.163752 -0.0998071,-0.284398zm0.157744 -0.00512205c0,0.0858465 0.0199606,0.151028 0.0595315,0.195366 0.0397441,0.0443386 0.0900866,0.0664173 0.151205,0.0664173 0.0609449,0 0.11111,-0.0219016 0.150327,-0.066063 0.0390394,-0.0439843 0.0586457,-0.109874 0.0586457,-0.197843 0,-0.0869094 -0.0190787,-0.151736 -0.0570551,-0.194661 -0.0381575,-0.042748 -0.0888543,-0.064122 -0.151917,-0.064122 -0.0632362,0 -0.11411,0.0217283 -0.152795,0.0650039 -0.0385079,0.0432795 -0.0579409,0.108461 -0.0579409,0.195902zm1.18317 0.100862l0.148378 0.0469882c-0.0227874,0.0828465 -0.0605866,0.144319 -0.113583,0.184591 -0.052815,0.0400984 -0.120118,0.0602362 -0.201551,0.0602362 -0.100685,0 -0.183531,-0.0344449 -0.248358,-0.103157 -0.0648307,-0.0688937 -0.0973346,-0.163043 -0.0973346,-0.28228 0,-0.126299 0.0326811,-0.224339 0.0978622,-0.294287 0.0651811,-0.0697756 0.150854,-0.104752 0.257193,-0.104752 0.0927402,0 0.168165,0.0273819 0.226106,0.082315 0.034622,0.0323268 0.0604134,0.0789606 0.0777244,0.139728l-0.15174 0.0362126c-0.00883071,-0.0393937 -0.0275551,-0.0704843 -0.0561693,-0.0932717 -0.0284409,-0.0227835 -0.063063,-0.0340906 -0.103693,-0.0340906 -0.0561732,0 -0.101921,0.0201378 -0.136898,0.0605906 -0.0349764,0.0402717 -0.0524646,0.10563 -0.0524646,0.196075 0,0.0959173 0.0171339,0.16428 0.0517559,0.204906 0.0344488,0.0408071 0.079315,0.0611181 0.134429,0.0611181 0.0408031,0 0.0757795,-0.0128937 0.105102,-0.0388583 0.0293228,-0.0257913 0.0503425,-0.0665984 0.0632402,-0.122063zm0.202787 0.278921l0.259315 -0.395858 -0.234937 -0.362831 0.178941 0 0.152268 0.243772 0.148909 -0.243772 0.177528 0 -0.235996 0.36848 0.259315 0.390209 -0.184772 0 -0.168165 -0.262315 -0.168697 0.262315 -0.183709 0z"/>
  </g>
 </g>
</svg>
