<?xml version="1.0" encoding="UTF-8"?>
<!DOCTYPE svg PUBLIC "-//W3C//DTD SVG 1.1//EN" "http://www.w3.org/Graphics/SVG/1.1/DTD/svg11.dtd">
<!-- Creator: CorelDRAW -->
<svg xmlns="http://www.w3.org/2000/svg" xml:space="preserve" width="6.82666in" height="6.82666in" style="shape-rendering:geometricPrecision; text-rendering:geometricPrecision; image-rendering:optimizeQuality; fill-rule:evenodd; clip-rule:evenodd"
viewBox="0 0 6.82666 6.82666"
 xmlns:xlink="http://www.w3.org/1999/xlink">
 <defs>
  <style type="text/css">
   <![CDATA[
    .fil0 {fill:none}
    .fil4 {fill:#757575}
    .fil1 {fill:#8E8E8F}
    .fil2 {fill:#CFCFD0}
    .fil3 {fill:#757575;fill-rule:nonzero}
    .fil5 {fill:white;fill-rule:nonzero}
   ]]>
  </style>
 </defs>
 <g id="Layer_x0020_1">
  <metadata id="CorelCorpID_0Corel-Layer"/>
  <rect class="fil0" width="6.82666" height="6.82666"/>
  <rect class="fil0" x="0.853331" y="0.853331" width="5.12" height="5.12"/>
  <path class="fil1" d="M4.34396 0.879996l1.09586 1.09719 -0.899941 0c-0.10776,0 -0.195921,-0.0881614 -0.195921,-0.195921l0 -0.901272z"/>
  <path class="fil2" d="M1.51617 0.879996l2.82798 0 0 0.895823c0,0.11076 0.0906142,0.20137 0.20137,0.20137l0.89448 0 0 2.71614c0,0.0733346 -0.0599961,0.133331 -0.133331,0.133331l-3.7905 0c-0.0733346,0 -0.133331,-0.0599961 -0.133331,-0.133331l0 -3.68c0,-0.0733346 0.0599961,-0.133331 0.133331,-0.133331z"/>
  <polygon class="fil3" points="2.24,2.54447 4.69333,2.54447 4.69333,2.75781 2.24,2.75781 "/>
  <polygon class="fil3" points="2.24,3.29112 4.69333,3.29112 4.69333,3.50446 2.24,3.50446 "/>
  <path class="fil4" d="M1.12465 4.08731l4.57736 0c0.0745827,0 0.142449,0.0307795 0.191701,0.0803583 0.049126,0.0494528 0.079622,0.117461 0.079622,0.192063l0 1.31451c0,0.0746024 -0.0305,0.142606 -0.079622,0.192059 -0.0492559,0.0495787 -0.117122,0.0803622 -0.191701,0.0803622l-4.57736 0c-0.0745748,0 -0.142449,-0.0307835 -0.191705,-0.0803622 -0.049122,-0.0494449 -0.0796181,-0.117449 -0.0796181,-0.192059l0 -1.31451c0,-0.0746063 0.0304961,-0.14261 0.0796181,-0.192063 0.049248,-0.0495787 0.117122,-0.0803583 0.191705,-0.0803583z"/>
  <path class="fil5" d="M1.7893 5.61351l0 -1.19306 0.24111 0 0 0.469445 0.471945 0 0 -0.469445 0.240831 0 0 1.19306 -0.240831 0 0 -0.521665 -0.471945 0 0 0.521665 -0.24111 0zm1.47139 0l0 -0.99111 -0.353886 0 0 -0.201945 0.948055 0 0 0.201945 -0.353055 0 0 0.99111 -0.241114 0zm0.74639 0l0 -1.19306 0.360555 0 0.21639 0.81389 0.21389 -0.81389 0.361386 0 0 1.19306 -0.22361 0 0 -0.939165 -0.236945 0.939165 -0.231945 0 -0.23611 -0.939165 0 0.939165 -0.22361 0z"/>
 </g>
</svg>
