<?xml version="1.0" encoding="UTF-8"?>
<!DOCTYPE svg PUBLIC "-//W3C//DTD SVG 1.1//EN" "http://www.w3.org/Graphics/SVG/1.1/DTD/svg11.dtd">
<!-- Creator: CorelDRAW -->
<svg xmlns="http://www.w3.org/2000/svg" xml:space="preserve" width="6.82666in" height="6.82666in" style="shape-rendering:geometricPrecision; text-rendering:geometricPrecision; image-rendering:optimizeQuality; fill-rule:evenodd; clip-rule:evenodd"
viewBox="0 0 6.82666 6.82666"
 xmlns:xlink="http://www.w3.org/1999/xlink">
 <defs>
  <style type="text/css">
   <![CDATA[
    .fil0 {fill:none}
    .fil1 {fill:#6A6A6A}
    .fil2 {fill:#D8D8D8}
    .fil3 {fill:#6A6A6A;fill-rule:nonzero}
    .fil4 {fill:white;fill-rule:nonzero}
   ]]>
  </style>
 </defs>
 <g id="Layer_x0020_1">
  <metadata id="CorelCorpID_0Corel-Layer"/>
  <rect class="fil0" width="6.82666" height="6.82666"/>
  <rect class="fil0" x="0.853331" y="0.853331" width="5.12" height="5.12"/>
  <path class="fil1" d="M4.34396 0.879996l1.09586 1.09719 -0.899941 0c-0.10776,0 -0.195921,-0.0881614 -0.195921,-0.195921l0 -0.901272z"/>
  <path class="fil2" d="M1.51617 0.879996l2.82798 0 0 0.895823c0,0.11076 0.0906142,0.20137 0.20137,0.20137l0.89448 0 0 2.71614c0,0.0733346 -0.0599961,0.133331 -0.133331,0.133331l-3.7905 0c-0.0733346,0 -0.133331,-0.0599961 -0.133331,-0.133331l0 -3.68c0,-0.0733346 0.0599961,-0.133331 0.133331,-0.133331z"/>
  <polygon class="fil3" points="2.24,2.54447 4.69333,2.54447 4.69333,2.75781 2.24,2.75781 "/>
  <polygon class="fil3" points="2.24,3.29112 4.69333,3.29112 4.69333,3.50446 2.24,3.50446 "/>
  <path class="fil1" d="M1.12465 4.08731l4.57736 0c0.0745827,0 0.142449,0.0307795 0.191701,0.0803583 0.049126,0.0494528 0.079622,0.117461 0.079622,0.192063l0 1.31451c0,0.0746024 -0.0305,0.142606 -0.079622,0.192059 -0.0492559,0.0495787 -0.117122,0.0803622 -0.191701,0.0803622l-4.57736 0c-0.0745748,0 -0.142449,-0.0307835 -0.191705,-0.0803622 -0.049122,-0.0494449 -0.0796181,-0.117449 -0.0796181,-0.192059l0 -1.31451c0,-0.0746063 0.0304961,-0.14261 0.0796181,-0.192063 0.049248,-0.0495787 0.117122,-0.0803583 0.191705,-0.0803583z"/>
  <path class="fil4" d="M2.125 5.61309l0 -1.19306 0.240831 0 0 1.19306 -0.240831 0zm0.409445 -0.388055l0.234441 -0.0230551c0.0138898,0.0788898 0.0425,0.136665 0.0858346,0.17361 0.0430551,0.0366654 0.10111,0.0552795 0.174445,0.0552795 0.0775,0 0.13611,-0.0163898 0.175276,-0.0494449 0.0394449,-0.0327795 0.0591693,-0.0711102 0.0591693,-0.115 0,-0.0283346 -0.00833465,-0.0522244 -0.025,-0.0719449 -0.0163898,-0.02 -0.0452795,-0.0372244 -0.0866693,-0.0516654 -0.0280551,-0.01 -0.0925,-0.0272244 -0.192776,-0.0522244 -0.129165,-0.0319449 -0.21972,-0.0713898 -0.271665,-0.118055 -0.0733346,-0.0655551 -0.11,-0.145555 -0.11,-0.24 0,-0.0608346 0.0172205,-0.1175 0.0516654,-0.170555 0.0344449,-0.0527795 0.0841654,-0.0930551 0.14889,-0.120835 0.065,-0.0275 0.143055,-0.0413858 0.23472,-0.0413858 0.15,0 0.2625,0.0327756 0.338335,0.0983307 0.0755551,0.0658346 0.115276,0.153335 0.119165,0.263055l-0.240835 0.0105551c-0.0102756,-0.0613858 -0.0325,-0.105555 -0.0663858,-0.13222 -0.0338898,-0.0269449 -0.0847244,-0.0402795 -0.1525,-0.0402795 -0.07,0 -0.125,0.0141693 -0.164445,0.0430591 -0.0255551,0.0183307 -0.0383346,0.0430551 -0.0383346,0.0738858 0,0.0283346 0.0119449,0.0525 0.0358346,0.0725 0.0302756,0.0255551 0.104165,0.0522244 0.22139,0.0797244 0.11722,0.0277756 0.203886,0.0563858 0.259996,0.0858307 0.0561142,0.0297244 0.1,0.07 0.131945,0.12139 0.0316693,0.0513898 0.0475,0.114724 0.0475,0.19 0,0.0683346 -0.0188858,0.1325 -0.0569449,0.191945 -0.0380551,0.0597205 -0.0916654,0.104165 -0.16111,0.133055 -0.0694449,0.0291654 -0.15611,0.0436102 -0.25972,0.0436102 -0.150835,0 -0.266665,-0.0347205 -0.3475,-0.104445 -0.0808346,-0.0697205 -0.129165,-0.171386 -0.14472,-0.30472zm1.12389 -0.20111c0,-0.121669 0.0180551,-0.22361 0.0544449,-0.30611 0.0272205,-0.0605551 0.0641654,-0.11528 0.11111,-0.163614 0.0469449,-0.0480551 0.0983346,-0.0838858 0.154165,-0.10722 0.0744449,-0.0316654 0.16,-0.0472205 0.257224,-0.0472205 0.175831,0 0.316386,0.0544409 0.421945,0.16361 0.105555,0.10889 0.158331,0.260555 0.158331,0.45472 0,0.19278 -0.0525,0.343335 -0.15722,0.45222 -0.104724,0.108614 -0.244724,0.163059 -0.419724,0.163059 -0.1775,0 -0.31861,-0.0541693 -0.423331,-0.162224 -0.104724,-0.108335 -0.156945,-0.2575 -0.156945,-0.44722zm0.248055 -0.00805512c0,0.135 0.0313898,0.2375 0.0936102,0.30722 0.0625,0.0697205 0.141669,0.104445 0.23778,0.104445 0.0958307,0 0.17472,-0.0344449 0.236386,-0.10389 0.0613898,-0.0691654 0.0922244,-0.172776 0.0922244,-0.31111 0,-0.136665 -0.03,-0.23861 -0.0897244,-0.30611 -0.0599961,-0.0672244 -0.13972,-0.100835 -0.238886,-0.100835 -0.0994449,0 -0.179445,0.0341693 -0.24028,0.102224 -0.0605551,0.0680551 -0.0911102,0.170555 -0.0911102,0.308055z"/>
 </g>
</svg>
