<?xml version="1.0" encoding="UTF-8"?>
<!DOCTYPE svg PUBLIC "-//W3C//DTD SVG 1.1//EN" "http://www.w3.org/Graphics/SVG/1.1/DTD/svg11.dtd">
<!-- Creator: CorelDRAW -->
<svg xmlns="http://www.w3.org/2000/svg" xml:space="preserve" width="6.82666in" height="6.82666in" style="shape-rendering:geometricPrecision; text-rendering:geometricPrecision; image-rendering:optimizeQuality; fill-rule:evenodd; clip-rule:evenodd"
viewBox="0 0 6.82666 6.82666"
 xmlns:xlink="http://www.w3.org/1999/xlink">
 <defs>
  <style type="text/css">
   <![CDATA[
    .fil0 {fill:none}
    .fil4 {fill:#8E8E8F}
    .fil1 {fill:#CACBCB}
    .fil2 {fill:#DFDFDF}
    .fil3 {fill:#8E8E8F;fill-rule:nonzero}
    .fil5 {fill:white;fill-rule:nonzero}
   ]]>
  </style>
 </defs>
 <g id="Layer_x0020_1">
  <metadata id="CorelCorpID_0Corel-Layer"/>
  <rect class="fil0" width="6.82666" height="6.82666"/>
  <rect class="fil0" x="0.853331" y="0.853331" width="5.12" height="5.12"/>
  <path class="fil1" d="M4.34396 0.879996l1.09586 1.09719 -0.899941 0c-0.10776,0 -0.195921,-0.0881614 -0.195921,-0.195921l0 -0.901272z"/>
  <path class="fil2" d="M1.51617 0.879996l2.82798 0 0 0.895823c0,0.11076 0.0906142,0.20137 0.20137,0.20137l0.89448 0 0 2.71614c0,0.0733346 -0.0599961,0.133331 -0.133331,0.133331l-3.7905 0c-0.0733346,0 -0.133331,-0.0599961 -0.133331,-0.133331l0 -3.68c0,-0.0733346 0.0599961,-0.133331 0.133331,-0.133331z"/>
  <polygon class="fil3" points="2.24,2.54447 4.69333,2.54447 4.69333,2.75781 2.24,2.75781 "/>
  <polygon class="fil3" points="2.24,3.29112 4.69333,3.29112 4.69333,3.50446 2.24,3.50446 "/>
  <path class="fil4" d="M1.12465 4.08731l4.57736 0c0.0745827,0 0.142449,0.0307795 0.191701,0.0803583 0.049126,0.0494528 0.079622,0.117461 0.079622,0.192063l0 1.31451c0,0.0746024 -0.0305,0.142606 -0.079622,0.192059 -0.0492559,0.0495787 -0.117122,0.0803622 -0.191701,0.0803622l-4.57736 0c-0.0745748,0 -0.142449,-0.0307835 -0.191705,-0.0803622 -0.049122,-0.0494449 -0.0796181,-0.117449 -0.0796181,-0.192059l0 -1.31451c0,-0.0746063 0.0304961,-0.14261 0.0796181,-0.192063 0.049248,-0.0495787 0.117122,-0.0803583 0.191705,-0.0803583z"/>
  <path class="fil5" d="M2.34793 4.42047l0.240272 0 0 0.755268c0,0.0986102 -0.00888583,0.17472 -0.0261102,0.227776 -0.0233307,0.0694409 -0.0655551,0.125276 -0.126941,0.16722 -0.0613898,0.0422205 -0.14222,0.0630512 -0.242496,0.0630512 -0.11778,0 -0.208331,-0.0327756 -0.271945,-0.0988858 -0.0633307,-0.0658307 -0.0955512,-0.162496 -0.0958307,-0.289996l0.226941 -0.0261102c0.00277953,0.0683307 0.0127795,0.116665 0.03,0.144996 0.0261102,0.0427795 0.0658346,0.0641654 0.11889,0.0641654 0.0536102,0 0.0916654,-0.0152756 0.113886,-0.0461102 0.0222205,-0.0305551 0.0333346,-0.0941654 0.0333346,-0.190831l0 -0.770543zm0.496657 1.19304l0 -1.19304 0.386386 0c0.146386,0 0.241941,0.00611024 0.286386,0.0180551 0.0683307,0.0177756 0.125831,0.0566654 0.171941,0.116665 0.0461102,0.06 0.0691654,0.137496 0.0691654,0.232217 0,0.0733346 -0.0133307,0.135 -0.04,0.18472 -0.0266654,0.05 -0.0602756,0.0891654 -0.101386,0.117776 -0.0408346,0.0283346 -0.0825,0.0472244 -0.12472,0.0563898 -0.0575,0.0113898 -0.140831,0.0172205 -0.249996,0.0172205l-0.156945 0 0 0.449996 -0.240831 0zm0.240831 -0.991098l0 0.338331 0.131665 0c0.095,0 0.15861,-0.00611417 0.190555,-0.0186142 0.0319409,-0.0125 0.0569409,-0.0319409 0.0752756,-0.0586102 0.0180551,-0.0266654 0.0272205,-0.0574961 0.0272205,-0.0927756 0,-0.0433307 -0.0127756,-0.0791654 -0.0383307,-0.1075 -0.0252795,-0.0280551 -0.0577795,-0.0458307 -0.0966654,-0.0527756 -0.0288898,-0.00555512 -0.0866654,-0.00805512 -0.173331,-0.00805512l-0.11639 0zm1.42582 0.552492l0 -0.201106 0.519157 0 0 0.475272c-0.0505551,0.0488858 -0.12361,0.0919409 -0.219441,0.129165 -0.0958307,0.0369409 -0.192776,0.0555512 -0.290831,0.0555512 -0.12472,0 -0.233606,-0.0261102 -0.326382,-0.0783307 -0.0927795,-0.0525 -0.1625,-0.12722 -0.209165,-0.22472 -0.0466654,-0.0974961 -0.07,-0.203331 -0.07,-0.317772 0,-0.124165 0.0261102,-0.23472 0.0780551,-0.331386 0.0522205,-0.0963858 0.128331,-0.170551 0.228886,-0.221941 0.0763898,-0.0397205 0.171665,-0.0594449 0.285551,-0.0594449 0.148055,0 0.263886,0.0311102 0.346941,0.0930551 0.0833307,0.0622205 0.136945,0.148055 0.160831,0.257776l-0.239161 0.0447205c-0.0169449,-0.0586102 -0.0486102,-0.105 -0.095,-0.138886 -0.0463898,-0.0338898 -0.104165,-0.0508346 -0.17361,-0.0508346 -0.105276,0 -0.188886,0.0333346 -0.251106,0.1 -0.0622205,0.0669449 -0.0930551,0.165831 -0.0930551,0.297217 0,0.14139 0.0313898,0.247776 0.0944449,0.31861 0.0627756,0.0708307 0.145276,0.106106 0.247217,0.106106 0.0505551,0 0.10111,-0.00999606 0.151945,-0.0297205 0.0505551,-0.0197205 0.0941654,-0.0438898 0.130551,-0.0719449l0 -0.151386 -0.275827 0z"/>
 </g>
</svg>
