<?xml version="1.0" encoding="UTF-8"?>
<!DOCTYPE svg PUBLIC "-//W3C//DTD SVG 1.1//EN" "http://www.w3.org/Graphics/SVG/1.1/DTD/svg11.dtd">
<!-- Creator: CorelDRAW -->
<svg xmlns="http://www.w3.org/2000/svg" xml:space="preserve" width="6.82666in" height="6.82666in" style="shape-rendering:geometricPrecision; text-rendering:geometricPrecision; image-rendering:optimizeQuality; fill-rule:evenodd; clip-rule:evenodd"
viewBox="0 0 6.82666 6.82666"
 xmlns:xlink="http://www.w3.org/1999/xlink">
 <defs>
  <style type="text/css">
   <![CDATA[
    .fil0 {fill:none}
    .fil4 {fill:#797979}
    .fil1 {fill:#BEBEBE}
    .fil2 {fill:#D7D7D7}
    .fil3 {fill:#797979;fill-rule:nonzero}
    .fil5 {fill:white;fill-rule:nonzero}
   ]]>
  </style>
 </defs>
 <g id="Layer_x0020_1">
  <metadata id="CorelCorpID_0Corel-Layer"/>
  <rect class="fil0" width="6.82666" height="6.82666"/>
  <rect class="fil0" x="0.853331" y="0.853331" width="5.12" height="5.12"/>
  <g id="_430289144">
   <g>
    <g>
     <path id="_430281776" class="fil1" d="M4.34396 0.879996l1.09586 1.09719 -0.899941 0c-0.10776,0 -0.195921,-0.0881614 -0.195921,-0.195921l0 -0.901272z"/>
     <path id="_430281680" class="fil2" d="M1.51617 0.879996l2.82798 0 0 0.895823c0,0.11076 0.0906142,0.20137 0.20137,0.20137l0.89448 0 0 2.71614c0,0.0733346 -0.0599961,0.133331 -0.133331,0.133331l-3.7905 0c-0.0733346,0 -0.133331,-0.0599961 -0.133331,-0.133331l0 -3.68c0,-0.0733346 0.0599961,-0.133331 0.133331,-0.133331z"/>
    </g>
    <path id="_430282136" class="fil3" d="M2.84889 3.4095l0 -1.2989c0.374996,0.216496 0.750075,0.432846 1.12506,0.64935l-1.12506 0.649547z"/>
   </g>
   <g>
    <path id="_430281824" class="fil4" d="M1.12465 4.08731l4.57736 0c0.0745827,0 0.142449,0.0307795 0.191701,0.0803583 0.049126,0.0494528 0.079622,0.117461 0.079622,0.192063l0 1.31451c0,0.0746024 -0.0305,0.142606 -0.079622,0.192059 -0.0492559,0.0495787 -0.117122,0.0803622 -0.191701,0.0803622l-4.57736 0c-0.0745748,0 -0.142449,-0.0307835 -0.191705,-0.0803622 -0.049122,-0.0494449 -0.0796181,-0.117449 -0.0796181,-0.192059l0 -1.31451c0,-0.0746063 0.0304961,-0.14261 0.0796181,-0.192063 0.049248,-0.0495787 0.117122,-0.0803583 0.191705,-0.0803583z"/>
    <path id="_430289408" class="fil5" d="M1.63403 5.61351l0 -1.19306 0.360555 0 0.21639 0.81389 0.21389 -0.81389 0.361386 0 0 1.19306 -0.22361 0 0 -0.939165 -0.236945 0.939165 -0.231945 0 -0.23611 -0.939165 0 0.939165 -0.22361 0zm1.34278 -0.589165c0,-0.121669 0.0180551,-0.22361 0.0544449,-0.30611 0.0272205,-0.0605551 0.0641654,-0.11528 0.11111,-0.163614 0.0469449,-0.0480551 0.0983346,-0.0838858 0.154165,-0.10722 0.0744449,-0.0316654 0.16,-0.0472205 0.257224,-0.0472205 0.175831,0 0.316386,0.0544409 0.421945,0.16361 0.105555,0.10889 0.158331,0.260555 0.158331,0.45472 0,0.19278 -0.0525,0.343335 -0.15722,0.45222 -0.104724,0.108614 -0.244724,0.163059 -0.419724,0.163059 -0.1775,0 -0.31861,-0.0541693 -0.423331,-0.162224 -0.104724,-0.108335 -0.156945,-0.2575 -0.156945,-0.44722zm0.248055 -0.00805512c0,0.135 0.0313898,0.2375 0.0936102,0.30722 0.0625,0.0697205 0.141669,0.104445 0.23778,0.104445 0.0958307,0 0.17472,-0.0344449 0.236386,-0.10389 0.0613898,-0.0691654 0.0922244,-0.172776 0.0922244,-0.31111 0,-0.136665 -0.03,-0.23861 -0.0897244,-0.30611 -0.0599961,-0.0672244 -0.13972,-0.100835 -0.238886,-0.100835 -0.0994449,0 -0.179445,0.0341693 -0.24028,0.102224 -0.0605551,0.0680551 -0.0911102,0.170555 -0.0911102,0.308055zm1.40139 0.59722l-0.42639 -1.19306 0.26139 0 0.301665 0.883055 0.292224 -0.883055 0.255555 0 -0.427224 1.19306 -0.25722 0z"/>
   </g>
  </g>
 </g>
</svg>
