<?xml version="1.0" encoding="UTF-8"?>
<!DOCTYPE svg PUBLIC "-//W3C//DTD SVG 1.1//EN" "http://www.w3.org/Graphics/SVG/1.1/DTD/svg11.dtd">
<!-- Creator: CorelDRAW -->
<svg xmlns="http://www.w3.org/2000/svg" xml:space="preserve" width="6.82666in" height="6.82666in" style="shape-rendering:geometricPrecision; text-rendering:geometricPrecision; image-rendering:optimizeQuality; fill-rule:evenodd; clip-rule:evenodd"
viewBox="0 0 6.82666 6.82666"
 xmlns:xlink="http://www.w3.org/1999/xlink">
 <defs>
  <style type="text/css">
   <![CDATA[
    .fil0 {fill:none}
    .fil4 {fill:#727272}
    .fil1 {fill:#B3B3B3}
    .fil2 {fill:#DBDBDB}
    .fil3 {fill:#727272;fill-rule:nonzero}
    .fil5 {fill:white;fill-rule:nonzero}
   ]]>
  </style>
 </defs>
 <g id="Layer_x0020_1">
  <metadata id="CorelCorpID_0Corel-Layer"/>
  <rect class="fil0" width="6.82666" height="6.82666"/>
  <rect class="fil0" x="0.853331" y="0.853331" width="5.12" height="5.12"/>
  <g id="_430287632">
   <g>
    <g>
     <path id="_430288520" class="fil1" d="M4.34396 0.879996l1.09586 1.09719 -0.899941 0c-0.10776,0 -0.195921,-0.0881614 -0.195921,-0.195921l0 -0.901272z"/>
     <path id="_430289000" class="fil2" d="M1.51617 0.879996l2.82798 0 0 0.895823c0,0.11076 0.0906142,0.20137 0.20137,0.20137l0.89448 0 0 2.71614c0,0.0733346 -0.0599961,0.133331 -0.133331,0.133331l-3.7905 0c-0.0733346,0 -0.133331,-0.0599961 -0.133331,-0.133331l0 -3.68c0,-0.0733346 0.0599961,-0.133331 0.133331,-0.133331z"/>
    </g>
    <path id="_430287848" class="fil3" d="M2.84889 3.4095l0 -1.2989c0.374996,0.216496 0.750075,0.432846 1.12506,0.64935l-1.12506 0.649547z"/>
   </g>
   <g>
    <path id="_430287824" class="fil4" d="M1.12465 4.08731l4.57736 0c0.0745827,0 0.142449,0.0307795 0.191701,0.0803583 0.049126,0.0494528 0.079622,0.117461 0.079622,0.192063l0 1.31451c0,0.0746024 -0.0305,0.142606 -0.079622,0.192059 -0.0492559,0.0495787 -0.117122,0.0803622 -0.191701,0.0803622l-4.57736 0c-0.0745748,0 -0.142449,-0.0307835 -0.191705,-0.0803622 -0.049122,-0.0494449 -0.0796181,-0.117449 -0.0796181,-0.192059l0 -1.31451c0,-0.0746063 0.0304961,-0.14261 0.0796181,-0.192063 0.049248,-0.0495787 0.117122,-0.0803583 0.191705,-0.0803583z"/>
    <path id="_430288160" class="fil5" d="M1.85375 5.60587l0 -1.19306 0.360555 0 0.21639 0.81389 0.21389 -0.81389 0.361386 0 0 1.19306 -0.22361 0 0 -0.939165 -0.236945 0.939165 -0.231945 0 -0.23611 -0.939165 0 0.939165 -0.22361 0zm1.39167 0l0 -1.19306 0.386386 0c0.14639,0 0.241945,0.00611024 0.28639,0.0180551 0.0683346,0.0177795 0.125835,0.0566693 0.171945,0.116669 0.0461102,0.06 0.0691654,0.1375 0.0691654,0.23222 0,0.0733346 -0.0133307,0.135 -0.04,0.18472 -0.0266654,0.05 -0.0602756,0.0891693 -0.101386,0.11778 -0.0408346,0.0283346 -0.0825,0.0472205 -0.124724,0.0563898 -0.0575,0.0113858 -0.140831,0.0172205 -0.25,0.0172205l-0.156945 0 0 0.45 -0.240831 0zm0.240831 -0.99111l0 0.338335 0.131669 0c0.095,0 0.15861,-0.00611417 0.190555,-0.0186142 0.0319449,-0.0125 0.0569449,-0.0319449 0.0752756,-0.0586102 0.0180551,-0.0266654 0.0272244,-0.0575 0.0272244,-0.0927756 0,-0.0433346 -0.0127795,-0.0791693 -0.0383346,-0.1075 -0.0252756,-0.0280551 -0.0577756,-0.0458346 -0.0966654,-0.0527795 -0.0288898,-0.00555512 -0.0866693,-0.00805512 -0.173335,-0.00805512l-0.11639 0zm0.812224 0.674445l0.22111 -0.0266693c0.00722047,0.0563898 0.0261102,0.0994449 0.0572205,0.129169 0.0308346,0.03 0.0683346,0.045 0.112224,0.045 0.0472205,0 0.0869409,-0.0180551 0.119165,-0.0538898 0.0322205,-0.0358346 0.0483346,-0.0838898 0.0483346,-0.14472 0,-0.0575 -0.0152795,-0.103059 -0.0463898,-0.136669 -0.0308346,-0.0338898 -0.0686102,-0.0505551 -0.113055,-0.0505551 -0.0291693,0 -0.0641693,0.00555512 -0.105,0.0169449l0.0252756 -0.18611c0.0619449,0.00138976 0.109169,-0.0119449 0.141669,-0.0402795 0.0325,-0.0286102 0.0488858,-0.0663898 0.0488858,-0.11361 0,-0.0402756 -0.0119449,-0.0722205 -0.0358307,-0.0961102 -0.0238898,-0.0238898 -0.0558346,-0.0358346 -0.0952795,-0.0358346 -0.0391654,0 -0.0725,0.0136102 -0.1,0.0408346 -0.0277756,0.0269449 -0.0447205,0.0666654 -0.0505551,0.11861l-0.210835 -0.0355551c0.0147244,-0.0722205 0.0366693,-0.13 0.0663898,-0.173055 0.0294449,-0.0430551 0.0708346,-0.0769449 0.12361,-0.101665 0.0530551,-0.0247244 0.112224,-0.0372244 0.17778,-0.0372244 0.1125,0 0.2025,0.0358346 0.270276,0.1075 0.0558346,0.0586102 0.0838898,0.124724 0.0838898,0.19861 0,0.104724 -0.0572205,0.188335 -0.171665,0.250555 0.0683346,0.0147244 0.122776,0.0475 0.16389,0.0986142 0.0408307,0.0508307 0.0613858,0.1125 0.0613858,0.18472 0,0.10472 -0.0383307,0.19389 -0.11472,0.267776 -0.0763898,0.0736142 -0.171665,0.110559 -0.285555,0.110559 -0.108055,0 -0.1975,-0.0311142 -0.26861,-0.0930591 -0.0711102,-0.0622205 -0.112224,-0.143331 -0.12361,-0.243886z"/>
   </g>
  </g>
 </g>
</svg>
