<?xml version="1.0" encoding="UTF-8"?>
<!DOCTYPE svg PUBLIC "-//W3C//DTD SVG 1.1//EN" "http://www.w3.org/Graphics/SVG/1.1/DTD/svg11.dtd">
<!-- Creator: CorelDRAW -->
<svg xmlns="http://www.w3.org/2000/svg" xml:space="preserve" width="6.82666in" height="6.82666in" style="shape-rendering:geometricPrecision; text-rendering:geometricPrecision; image-rendering:optimizeQuality; fill-rule:evenodd; clip-rule:evenodd"
viewBox="0 0 6.82666 6.82666"
 xmlns:xlink="http://www.w3.org/1999/xlink">
 <defs>
  <style type="text/css">
   <![CDATA[
    .fil1 {fill:none}
    .fil0 {fill:#FF5722}
    .fil2 {fill:#FFFFFE;fill-rule:nonzero}
   ]]>
  </style>
 </defs>
 <g id="Layer_x0020_1">
  <metadata id="CorelCorpID_0Corel-Layer"/>
  <rect class="fil0" width="6.82666" height="6.82666"/>
  <rect class="fil1" x="0.853331" y="0.853331" width="5.12" height="5.12"/>
  <g id="_286464184">
   <polygon id="_286465872" class="fil2" points="4.69333,1.01333 4.69333,1.65333 5.22666,1.65333 5.22666,1.86667 4.58667,1.86667 4.48,1.86667 4.48,1.76 4.48,1.01333 "/>
   <path id="_286465800" class="fil2" d="M1.71852 0.906661l2.86815 0 0.0441654 0 0.031252 0.031252 0.746665 0.746665 0.031252 0.031252 0 0.0441654 0 2.66667 0 0.106669 -0.106669 0 -3.73333 0 -0.106669 0 0 -0.106669 0 -3.29481c0,-0.0620433 0.0252992,-0.118358 0.0660669,-0.159118 0.0407598,-0.0407677 0.0970748,-0.0660669 0.159118,-0.0660669zm2.82398 0.213339l-2.82398 0c-0.00314567,0 -0.00609055,0.00137008 -0.00828346,0.00356299 -0.00219291,0.00219291 -0.00356299,0.0051378 -0.00356299,0.00828346l0 3.18815 3.51999 0 0 -2.51583 -0.684161 -0.684161z"/>
   <path id="_286465728" class="fil2" d="M1.12465 4.31999l4.57736 0c0.0745827,0 0.142449,0.0307795 0.191701,0.0803583 0.049126,0.0494528 0.079622,0.117461 0.079622,0.192063l0 1.05516c0,0.0746024 -0.0305,0.142606 -0.079622,0.192059 -0.0492559,0.0495787 -0.117122,0.0803622 -0.191701,0.0803622l-4.57736 0c-0.0745748,0 -0.142449,-0.0307835 -0.191705,-0.0803622 -0.049122,-0.0494449 -0.0796181,-0.117449 -0.0796181,-0.192059l0 -1.05516c0,-0.0746063 0.0304961,-0.14261 0.0796181,-0.192063 0.049248,-0.0495787 0.117122,-0.0803583 0.191705,-0.0803583zm4.57736 0.213339l-4.57736 0c-0.0159724,0 -0.0304409,0.00651969 -0.0408701,0.0170197 -0.0105551,0.010626 -0.0171142,0.0255079 -0.0171142,0.042063l0 1.05516c0,0.0165512 0.00655906,0.0314331 0.0171142,0.0420591 0.0104291,0.0105 0.0249055,0.0170236 0.0408701,0.0170236l4.57736 0c0.0159646,0 0.030437,-0.00652362 0.0408661,-0.0170236 0.0105591,-0.0106299 0.0171181,-0.0255118 0.0171181,-0.0420591l0 -1.05516c0,-0.0165512 -0.00655906,-0.0314331 -0.0171181,-0.042063 -0.0104291,-0.0104961 -0.0248937,-0.0170197 -0.0408661,-0.0170197z"/>
   <path id="_286464280" class="fil2" d="M2.31337 5.48449l0 -0.758689 0.229283 0 0.137606 0.517571 0.136016 -0.517571 0.229815 0 0 0.758689 -0.142201 0 0 -0.597236 -0.150677 0.597236 -0.147496 0 -0.15015 -0.597236 0 0.597236 -0.142197 0zm0.884988 0l0 -0.758689 0.245713 0c0.0930906,0 0.153858,0.00388583 0.182122,0.0114843 0.0434528,0.0113031 0.0800197,0.0360354 0.109343,0.074189 0.0293228,0.0381575 0.0439843,0.0874409 0.0439843,0.147677 0,0.0466339 -0.00848031,0.0858465 -0.025437,0.117469 -0.0169567,0.0317953 -0.0383307,0.0567008 -0.0644764,0.0748937 -0.0259646,0.0180197 -0.0524646,0.0300315 -0.079311,0.0358622 -0.0365669,0.00724016 -0.0895591,0.0109488 -0.15898,0.0109488l-0.0998071 0 0 0.286165 -0.15315 0zm0.15315 -0.630268l0 0.215154 0.0837323 0c0.0604094,0 0.100862,-0.00388583 0.121177,-0.0118346 0.020315,-0.00794882 0.0362126,-0.020315 0.0478701,-0.0372717 0.0114803,-0.0169606 0.017311,-0.0365669 0.017311,-0.059 0,-0.0275551 -0.00812598,-0.0503425 -0.024378,-0.0683622 -0.0160748,-0.0178386 -0.0367402,-0.0291457 -0.0614724,-0.033563 -0.0183701,-0.0035315 -0.0551102,-0.00512205 -0.110224,-0.00512205l-0.0740157 0zm0.906717 0.351346l0 -0.12789 0.330146 0 0 0.302236c-0.0321457,0.0310906 -0.0786063,0.0584724 -0.139547,0.0821417 -0.0609409,0.0234921 -0.122591,0.0353268 -0.184945,0.0353268 -0.079315,0 -0.148559,-0.0166024 -0.207559,-0.049811 -0.059,-0.0333858 -0.103339,-0.0809055 -0.133012,-0.142906 -0.0296772,-0.0620039 -0.0445157,-0.129303 -0.0445157,-0.202083 0,-0.0789606 0.0166063,-0.149264 0.0496378,-0.210736 0.0332087,-0.0612953 0.0816102,-0.108461 0.145555,-0.141138 0.0485748,-0.0252598 0.109165,-0.0378031 0.181591,-0.0378031 0.0941496,0 0.167811,0.0197835 0.220626,0.0591772 0.0529961,0.0395669 0.0870866,0.0941496 0.10228,0.163925l-0.152091 0.0284409c-0.0107756,-0.0372717 -0.0309134,-0.0667717 -0.0604134,-0.0883228 -0.0295,-0.0215512 -0.0662402,-0.0323268 -0.110402,-0.0323268 -0.0669488,0 -0.120118,0.0211969 -0.159689,0.0635906 -0.0395669,0.0425709 -0.0591732,0.105457 -0.0591732,0.189012 0,0.0899094 0.0199606,0.157567 0.0600591,0.20261 0.0399213,0.0450433 0.0923858,0.0674764 0.157213,0.0674764 0.0321496,0 0.0642992,-0.00635827 0.096626,-0.0188976 0.0321457,-0.0125433 0.0598819,-0.0279134 0.0830197,-0.045752l0 -0.0962717 -0.175406 0z"/>
   <path id="_286464256" class="fil2" d="M4.02766 3.18541l-0.508075 0.293335 -0.508071 0.293331 -0.159587 0.0921339 0 -0.184217 0 -0.586665 0 -0.586669 0 -0.184217 0.159587 0.0921339 0.508071 0.293331 0.000417323 0 0.508075 0.293339 0.159283 0.0919646 -0.159701 0.0922008zm-0.613909 0.109169l0.348374 -0.201134 -0.348791 -0.201374 0.000106299 -0.000181102 -0.348173 -0.201012 0 0.402449 0 0.402445 0.348484 -0.201193z"/>
  </g>
 </g>
</svg>
