<?xml version="1.0" encoding="UTF-8"?>
<!DOCTYPE svg PUBLIC "-//W3C//DTD SVG 1.1//EN" "http://www.w3.org/Graphics/SVG/1.1/DTD/svg11.dtd">
<!-- Creator: CorelDRAW -->
<svg xmlns="http://www.w3.org/2000/svg" xml:space="preserve" width="6.82666in" height="6.82666in" style="shape-rendering:geometricPrecision; text-rendering:geometricPrecision; image-rendering:optimizeQuality; fill-rule:evenodd; clip-rule:evenodd"
viewBox="0 0 6.82666 6.82666"
 xmlns:xlink="http://www.w3.org/1999/xlink">
 <defs>
  <style type="text/css">
   <![CDATA[
    .fil0 {fill:none}
    .fil4 {fill:#575758}
    .fil1 {fill:#A8A8A8}
    .fil2 {fill:#CACBCB}
    .fil3 {fill:#575758;fill-rule:nonzero}
    .fil5 {fill:white;fill-rule:nonzero}
   ]]>
  </style>
 </defs>
 <g id="Layer_x0020_1">
  <metadata id="CorelCorpID_0Corel-Layer"/>
  <rect class="fil0" width="6.82666" height="6.82666"/>
  <rect class="fil0" x="0.853331" y="0.853331" width="5.12" height="5.12"/>
  <path class="fil1" d="M4.34395 0.879996l1.09586 1.09719 -0.899941 0c-0.10776,0 -0.195921,-0.0881614 -0.195921,-0.195921l0 -0.901272z"/>
  <path class="fil2" d="M1.51617 0.879996l2.82798 0 0 0.895823c0,0.11076 0.0906142,0.20137 0.20137,0.20137l0.89448 0 0 2.71614c0,0.0733346 -0.0599961,0.133331 -0.133331,0.133331l-3.7905 0c-0.0733346,0 -0.133331,-0.0599961 -0.133331,-0.133331l0 -3.68c0,-0.0733346 0.0599961,-0.133331 0.133331,-0.133331z"/>
  <path class="fil3" d="M2.84889 3.4095l0 -1.2989c0.374996,0.216496 0.750075,0.432846 1.12506,0.64935l-1.12506 0.649547z"/>
  <path class="fil4" d="M1.12465 4.08731l4.57736 0c0.0745827,0 0.142449,0.0307795 0.191701,0.0803583 0.049126,0.0494528 0.079622,0.117461 0.079622,0.192063l0 1.31451c0,0.0746024 -0.0305,0.142606 -0.079622,0.192059 -0.0492559,0.0495787 -0.117122,0.0803622 -0.191701,0.0803622l-4.57736 0c-0.0745748,0 -0.142449,-0.0307835 -0.191705,-0.0803622 -0.049122,-0.0494449 -0.0796181,-0.117449 -0.0796181,-0.192059l0 -1.31451c0,-0.0746063 0.0304961,-0.14261 0.0796181,-0.192063 0.049248,-0.0495787 0.117122,-0.0803583 0.191705,-0.0803583z"/>
  <path class="fil5" d="M1.68361 5.61351l0 -1.19306 0.360555 0 0.21639 0.81389 0.21389 -0.81389 0.361386 0 0 1.19306 -0.22361 0 0 -0.939165 -0.236945 0.939165 -0.231945 0 -0.23611 -0.939165 0 0.939165 -0.22361 0zm1.39167 0l0 -1.19306 0.386386 0c0.14639,0 0.241945,0.00611024 0.28639,0.0180551 0.0683346,0.0177795 0.125835,0.0566693 0.171945,0.116669 0.0461102,0.06 0.0691654,0.1375 0.0691654,0.23222 0,0.0733346 -0.0133307,0.135 -0.04,0.18472 -0.0266654,0.05 -0.0602756,0.0891693 -0.101386,0.11778 -0.0408346,0.0283346 -0.0825,0.0472205 -0.124724,0.0563898 -0.0575,0.0113858 -0.140831,0.0172205 -0.25,0.0172205l-0.156945 0 0 0.45 -0.240831 0zm0.240831 -0.99111l0 0.338335 0.131669 0c0.095,0 0.15861,-0.00611417 0.190555,-0.0186142 0.0319449,-0.0125 0.0569449,-0.0319449 0.0752756,-0.0586102 0.0180551,-0.0266654 0.0272244,-0.0575 0.0272244,-0.0927756 0,-0.0433346 -0.0127795,-0.0791693 -0.0383346,-0.1075 -0.0252756,-0.0280551 -0.0577756,-0.0458346 -0.0966654,-0.0527795 -0.0288898,-0.00555512 -0.0866693,-0.00805512 -0.173335,-0.00805512l-0.11639 0zm1.42583 0.5525l0 -0.20111 0.519165 0 0 0.475276c-0.0505551,0.0488898 -0.12361,0.0919449 -0.219445,0.129165 -0.0958346,0.0369449 -0.192776,0.0555591 -0.290835,0.0555591 -0.12472,0 -0.23361,-0.0261142 -0.326386,-0.0783346 -0.0927795,-0.0525 -0.1625,-0.127224 -0.209169,-0.22472 -0.0466654,-0.0975 -0.07,-0.203335 -0.07,-0.31778 0,-0.124165 0.0261142,-0.23472 0.0780591,-0.33139 0.0522205,-0.0963858 0.128331,-0.170555 0.228886,-0.221945 0.0763898,-0.0397205 0.171669,-0.0594409 0.285555,-0.0594409 0.148055,0 0.26389,0.0311102 0.346945,0.0930551 0.0833346,0.0622205 0.136945,0.148055 0.160835,0.257776l-0.239169 0.0447244c-0.0169409,-0.0586142 -0.0486102,-0.105 -0.095,-0.13889 -0.0463858,-0.0338898 -0.104165,-0.0508346 -0.17361,-0.0508346 -0.105276,0 -0.188886,0.0333346 -0.25111,0.1 -0.0622205,0.0669449 -0.0930551,0.165835 -0.0930551,0.297224 0,0.141386 0.0313898,0.247776 0.0944449,0.31861 0.0627756,0.0708307 0.145276,0.10611 0.24722,0.10611 0.0505551,0 0.101114,-0.01 0.151945,-0.0297244 0.0505551,-0.0197205 0.0941654,-0.0438858 0.130555,-0.0719409l0 -0.15139 -0.275831 0z"/>
 </g>
</svg>
