<?xml version="1.0" encoding="UTF-8"?>
<!DOCTYPE svg PUBLIC "-//W3C//DTD SVG 1.1//EN" "http://www.w3.org/Graphics/SVG/1.1/DTD/svg11.dtd">
<!-- Creator: CorelDRAW -->
<svg xmlns="http://www.w3.org/2000/svg" xml:space="preserve" width="6.82666in" height="6.82666in" style="shape-rendering:geometricPrecision; text-rendering:geometricPrecision; image-rendering:optimizeQuality; fill-rule:evenodd; clip-rule:evenodd"
viewBox="0 0 6.82666 6.82666"
 xmlns:xlink="http://www.w3.org/1999/xlink">
 <defs>
  <style type="text/css">
   <![CDATA[
    .fil1 {fill:none}
    .fil0 {fill:#C0CA33}
    .fil2 {fill:#FFFFFE;fill-rule:nonzero}
   ]]>
  </style>
 </defs>
 <g id="Layer_x0020_1">
  <metadata id="CorelCorpID_0Corel-Layer"/>
  <rect class="fil0" width="6.82666" height="6.82666"/>
  <rect class="fil1" x="0.853331" y="0.853331" width="5.12" height="5.12"/>
  <g id="_285915592">
   <polygon id="_285916024" class="fil2" points="4.69333,1.01333 4.69333,1.65333 5.22666,1.65333 5.22666,1.86667 4.58667,1.86667 4.48,1.86667 4.48,1.76 4.48,1.01333 "/>
   <path id="_285915952" class="fil2" d="M1.71852 0.906661l2.86815 0 0.0441654 0 0.031252 0.031252 0.746665 0.746665 0.031252 0.031252 0 0.0441654 0 2.66667 0 0.106669 -0.106669 0 -3.73333 0 -0.106669 0 0 -0.106669 0 -3.29481c0,-0.0620433 0.0252992,-0.118358 0.0660669,-0.159118 0.0407598,-0.0407677 0.0970748,-0.0660669 0.159118,-0.0660669zm2.82398 0.213339l-2.82398 0c-0.00314567,0 -0.00609055,0.00137008 -0.00828346,0.00356299 -0.00219291,0.00219291 -0.00356299,0.0051378 -0.00356299,0.00828346l0 3.18815 3.51999 0 0 -2.51583 -0.684161 -0.684161z"/>
   <polygon id="_285915880" class="fil2" points="2.24,2.61333 4.69333,2.61333 4.69333,2.82667 2.24,2.82667 "/>
   <polygon id="_285915808" class="fil2" points="2.24,3.35998 4.69333,3.35998 4.69333,3.57332 2.24,3.57332 "/>
   <path id="_285915688" class="fil2" d="M1.12465 4.31999l4.57736 0c0.0745827,0 0.142449,0.0307795 0.191701,0.0803583 0.049126,0.0494528 0.079622,0.117461 0.079622,0.192063l0 1.05516c0,0.0746024 -0.0305,0.142606 -0.079622,0.192059 -0.0492559,0.0495787 -0.117122,0.0803622 -0.191701,0.0803622l-4.57736 0c-0.0745748,0 -0.142449,-0.0307835 -0.191705,-0.0803622 -0.049122,-0.0494449 -0.0796181,-0.117449 -0.0796181,-0.192059l0 -1.05516c0,-0.0746063 0.0304961,-0.14261 0.0796181,-0.192063 0.049248,-0.0495787 0.117122,-0.0803583 0.191705,-0.0803583zm4.57736 0.213339l-4.57736 0c-0.0159724,0 -0.0304409,0.00651969 -0.0408701,0.0170197 -0.0105551,0.010626 -0.0171142,0.0255079 -0.0171142,0.042063l0 1.05516c0,0.0165512 0.00655906,0.0314331 0.0171142,0.0420591 0.0104291,0.0105 0.0249055,0.0170236 0.0408701,0.0170236l4.57736 0c0.0159646,0 0.030437,-0.00652362 0.0408661,-0.0170236 0.0105591,-0.0106299 0.0171181,-0.0255118 0.0171181,-0.0420591l0 -1.05516c0,-0.0165512 -0.00655906,-0.0314331 -0.0171181,-0.042063 -0.0104291,-0.0104961 -0.0248937,-0.0170197 -0.0408661,-0.0170197z"/>
   <path id="_285915664" class="fil2" d="M2.45521 5.48449l0 -0.758689 0.245713 0c0.0930906,0 0.153858,0.00388583 0.182122,0.0114843 0.0434528,0.0113031 0.0800197,0.0360354 0.109343,0.074189 0.0293228,0.0381575 0.0439843,0.0874409 0.0439843,0.147677 0,0.0466339 -0.00848031,0.0858465 -0.025437,0.117469 -0.0169567,0.0317953 -0.0383307,0.0567008 -0.0644764,0.0748937 -0.0259646,0.0180197 -0.0524646,0.0300315 -0.079311,0.0358622 -0.0365669,0.00724016 -0.0895591,0.0109488 -0.15898,0.0109488l-0.0998071 0 0 0.286165 -0.15315 0zm0.15315 -0.630268l0 0.215154 0.0837323 0c0.0604094,0 0.100862,-0.00388583 0.121177,-0.0118346 0.020315,-0.00794882 0.0362126,-0.020315 0.0478701,-0.0372717 0.0114803,-0.0169606 0.017311,-0.0365669 0.017311,-0.059 0,-0.0275551 -0.00812598,-0.0503425 -0.024378,-0.0683622 -0.0160748,-0.0178386 -0.0367402,-0.0291457 -0.0614724,-0.033563 -0.0183701,-0.0035315 -0.0551102,-0.00512205 -0.110224,-0.00512205l-0.0740157 0zm0.553252 -0.128421l0.27998 0c0.063063,0 0.11111,0.00477165 0.144319,0.0144882 0.0445118,0.0130709 0.0826693,0.0363858 0.114287,0.0699488 0.0317953,0.0333858 0.0559961,0.0743661 0.0726024,0.122768 0.0164252,0.0485787 0.0247283,0.108283 0.0247283,0.179472 0,0.0623543 -0.00777165,0.116232 -0.023315,0.161453 -0.0189016,0.0551102 -0.0459291,0.0998031 -0.0812559,0.133894 -0.0265,0.0259685 -0.0623583,0.0461063 -0.107579,0.0605906 -0.0337402,0.0107756 -0.0789606,0.0160748 -0.135661,0.0160748l-0.288106 0 0 -0.758689zm0.15315 0.128421l0 0.502378 0.114287 0c0.042748,0 0.0736614,-0.00229528 0.0927402,-0.00724409 0.0247283,-0.0061811 0.0453976,-0.0166024 0.0618228,-0.0314409 0.0164291,-0.0148386 0.0296772,-0.0393937 0.0400984,-0.0733071 0.010248,-0.0339173 0.0155472,-0.080374 0.0155472,-0.13902 0,-0.0586457 -0.00529921,-0.103516 -0.0155472,-0.134957 -0.0104213,-0.0314409 -0.0249055,-0.0559961 -0.0434528,-0.0734843 -0.0187244,-0.0176654 -0.0423937,-0.0295 -0.0710118,-0.0356811 -0.021374,-0.00494882 -0.0632362,-0.00724409 -0.125772,-0.00724409l-0.0687126 0zm0.613665 0.630268l0 -0.758689 0.520217 0 0 0.128421 -0.36689 0 0 0.179472 0.31672 0 0 0.128421 -0.31672 0 0 0.322374 -0.153327 0z"/>
  </g>
 </g>
</svg>
