<?xml version="1.0" encoding="UTF-8"?>
<!DOCTYPE svg PUBLIC "-//W3C//DTD SVG 1.1//EN" "http://www.w3.org/Graphics/SVG/1.1/DTD/svg11.dtd">
<!-- Creator: CorelDRAW -->
<svg xmlns="http://www.w3.org/2000/svg" xml:space="preserve" width="6.82666in" height="6.82666in" style="shape-rendering:geometricPrecision; text-rendering:geometricPrecision; image-rendering:optimizeQuality; fill-rule:evenodd; clip-rule:evenodd"
viewBox="0 0 6.82666 6.82666"
 xmlns:xlink="http://www.w3.org/1999/xlink">
 <defs>
  <style type="text/css">
   <![CDATA[
    .fil0 {fill:none}
    .fil4 {fill:#727272}
    .fil1 {fill:#B3B3B3}
    .fil2 {fill:#DBDBDB}
    .fil3 {fill:#727272;fill-rule:nonzero}
    .fil5 {fill:white;fill-rule:nonzero}
   ]]>
  </style>
 </defs>
 <g id="Layer_x0020_1">
  <metadata id="CorelCorpID_0Corel-Layer"/>
  <rect class="fil0" width="6.82666" height="6.82666"/>
  <rect class="fil0" x="0.853331" y="0.853331" width="5.12" height="5.12"/>
  <path class="fil1" d="M4.34396 0.879996l1.09586 1.09719 -0.899941 0c-0.10776,0 -0.195921,-0.0881614 -0.195921,-0.195921l0 -0.901272z"/>
  <path class="fil2" d="M1.51617 0.879996l2.82798 0 0 0.895823c0,0.11076 0.0906142,0.20137 0.20137,0.20137l0.89448 0 0 2.71614c0,0.0733346 -0.0599961,0.133331 -0.133331,0.133331l-3.7905 0c-0.0733346,0 -0.133331,-0.0599961 -0.133331,-0.133331l0 -3.68c0,-0.0733346 0.0599961,-0.133331 0.133331,-0.133331z"/>
  <polygon class="fil3" points="2.24,2.54447 4.69333,2.54447 4.69333,2.75781 2.24,2.75781 "/>
  <polygon class="fil3" points="2.24,3.29112 4.69333,3.29112 4.69333,3.50446 2.24,3.50446 "/>
  <path class="fil4" d="M1.12465 4.08731l4.57736 0c0.0745827,0 0.142449,0.0307795 0.191701,0.0803583 0.049126,0.0494528 0.079622,0.117461 0.079622,0.192063l0 1.31451c0,0.0746024 -0.0305,0.142606 -0.079622,0.192059 -0.0492559,0.0495787 -0.117122,0.0803622 -0.191701,0.0803622l-4.57736 0c-0.0745748,0 -0.142449,-0.0307835 -0.191705,-0.0803622 -0.049122,-0.0494449 -0.0796181,-0.117449 -0.0796181,-0.192059l0 -1.31451c0,-0.0746063 0.0304961,-0.14261 0.0796181,-0.192063 0.049248,-0.0495787 0.117122,-0.0803583 0.191705,-0.0803583z"/>
  <path class="fil5" d="M1.90667 5.61351l0 -1.19306 0.386386 0c0.14639,0 0.241945,0.00611024 0.28639,0.0180551 0.0683346,0.0177795 0.125835,0.0566693 0.171945,0.116669 0.0461102,0.06 0.0691654,0.1375 0.0691654,0.23222 0,0.0733346 -0.0133307,0.135 -0.04,0.18472 -0.0266654,0.05 -0.0602756,0.0891693 -0.101386,0.11778 -0.0408346,0.0283346 -0.0825,0.0472205 -0.124724,0.0563898 -0.0575,0.0113858 -0.140831,0.0172205 -0.25,0.0172205l-0.156945 0 0 0.45 -0.240831 0zm0.240831 -0.99111l0 0.338335 0.131669 0c0.095,0 0.15861,-0.00611417 0.190555,-0.0186142 0.0319449,-0.0125 0.0569449,-0.0319449 0.0752756,-0.0586102 0.0180551,-0.0266654 0.0272244,-0.0575 0.0272244,-0.0927756 0,-0.0433346 -0.0127795,-0.0791693 -0.0383346,-0.1075 -0.0252756,-0.0280551 -0.0577756,-0.0458346 -0.0966654,-0.0527795 -0.0288898,-0.00555512 -0.0866693,-0.00805512 -0.173335,-0.00805512l-0.11639 0zm0.87 -0.201945l0.44028 0c0.0991654,0 0.17472,0.0075 0.226941,0.0227795 0.07,0.0205551 0.13,0.0572205 0.179724,0.11 0.05,0.0525 0.0880551,0.116945 0.114165,0.193055 0.0258346,0.0763858 0.0388898,0.170276 0.0388898,0.28222 0,0.0980551 -0.0122244,0.18278 -0.0366654,0.25389 -0.0297244,0.0866654 -0.0722244,0.156945 -0.12778,0.210555 -0.0416654,0.0408346 -0.0980551,0.0725 -0.169165,0.0952756 -0.0530551,0.0169449 -0.124169,0.0252795 -0.213335,0.0252795l-0.453055 0 0 -1.19306zm0.240835 0.201945l0 0.79 0.17972 0c0.0672244,0 0.115835,-0.00361024 0.145835,-0.0113898 0.0388898,-0.00972047 0.0713898,-0.0261102 0.0972205,-0.0494449 0.0258346,-0.0233307 0.0466693,-0.0619449 0.0630551,-0.115276 0.0161102,-0.0533346 0.0244449,-0.12639 0.0244449,-0.218614 0,-0.0922205 -0.00833465,-0.162776 -0.0244449,-0.21222 -0.0163858,-0.0494449 -0.0391654,-0.0880551 -0.0683307,-0.115555 -0.0294449,-0.0277795 -0.0666693,-0.0463898 -0.111669,-0.0561102 -0.0336102,-0.00777953 -0.0994449,-0.0113898 -0.197776,-0.0113898l-0.108055 0zm0.965 0.99111l0 -1.19306 0.818051 0 0 0.201945 -0.576941 0 0 0.28222 0.498055 0 0 0.201945 -0.498055 0 0 0.506945 -0.24111 0z"/>
 </g>
</svg>
