<?xml version="1.0" encoding="UTF-8"?>
<!DOCTYPE svg PUBLIC "-//W3C//DTD SVG 1.1//EN" "http://www.w3.org/Graphics/SVG/1.1/DTD/svg11.dtd">
<!-- Creator: CorelDRAW -->
<svg xmlns="http://www.w3.org/2000/svg" xml:space="preserve" width="6.82666in" height="6.82666in" style="shape-rendering:geometricPrecision; text-rendering:geometricPrecision; image-rendering:optimizeQuality; fill-rule:evenodd; clip-rule:evenodd"
viewBox="0 0 6.82666 6.82666"
 xmlns:xlink="http://www.w3.org/1999/xlink">
 <defs>
  <style type="text/css">
   <![CDATA[
    .fil1 {fill:none}
    .fil0 {fill:#FF5722}
    .fil2 {fill:#FFFFFE;fill-rule:nonzero}
   ]]>
  </style>
 </defs>
 <g id="Layer_x0020_1">
  <metadata id="CorelCorpID_0Corel-Layer"/>
  <rect class="fil0" width="6.82666" height="6.82666"/>
  <rect class="fil1" x="0.853331" y="0.853331" width="5.12" height="5.12"/>
  <g id="_285824320">
   <polygon id="_285824752" class="fil2" points="4.69333,1.01333 4.69333,1.65333 5.22666,1.65333 5.22666,1.86667 4.58667,1.86667 4.48,1.86667 4.48,1.76 4.48,1.01333 "/>
   <path id="_285824680" class="fil2" d="M1.71852 0.906661l2.86815 0 0.0441654 0 0.031252 0.031252 0.746665 0.746665 0.031252 0.031252 0 0.0441654 0 2.66667 0 0.106669 -0.106669 0 -3.73333 0 -0.106669 0 0 -0.106669 0 -3.29481c0,-0.0620433 0.0252992,-0.118358 0.0660669,-0.159118 0.0407598,-0.0407677 0.0970748,-0.0660669 0.159118,-0.0660669zm2.82398 0.213339l-2.82398 0c-0.00314567,0 -0.00609055,0.00137008 -0.00828346,0.00356299 -0.00219291,0.00219291 -0.00356299,0.0051378 -0.00356299,0.00828346l0 3.18815 3.51999 0 0 -2.51583 -0.684161 -0.684161z"/>
   <polygon id="_285824608" class="fil2" points="2.24,2.61333 4.69333,2.61333 4.69333,2.82667 2.24,2.82667 "/>
   <polygon id="_285824536" class="fil2" points="2.24,3.35998 4.69333,3.35998 4.69333,3.57332 2.24,3.57332 "/>
   <path id="_285824416" class="fil2" d="M1.12465 4.31999l4.57736 0c0.0745827,0 0.142449,0.0307795 0.191701,0.0803583 0.049126,0.0494528 0.079622,0.117461 0.079622,0.192063l0 1.05516c0,0.0746024 -0.0305,0.142606 -0.079622,0.192059 -0.0492559,0.0495787 -0.117122,0.0803622 -0.191701,0.0803622l-4.57736 0c-0.0745748,0 -0.142449,-0.0307835 -0.191705,-0.0803622 -0.049122,-0.0494449 -0.0796181,-0.117449 -0.0796181,-0.192059l0 -1.05516c0,-0.0746063 0.0304961,-0.14261 0.0796181,-0.192063 0.049248,-0.0495787 0.117122,-0.0803583 0.191705,-0.0803583zm4.57736 0.213339l-4.57736 0c-0.0159724,0 -0.0304409,0.00651969 -0.0408701,0.0170197 -0.0105551,0.010626 -0.0171142,0.0255079 -0.0171142,0.042063l0 1.05516c0,0.0165512 0.00655906,0.0314331 0.0171142,0.0420591 0.0104291,0.0105 0.0249055,0.0170236 0.0408701,0.0170236l4.57736 0c0.0159646,0 0.030437,-0.00652362 0.0408661,-0.0170236 0.0105591,-0.0106299 0.0171181,-0.0255118 0.0171181,-0.0420591l0 -1.05516c0,-0.0165512 -0.00655906,-0.0314331 -0.0171181,-0.042063 -0.0104291,-0.0104961 -0.0248937,-0.0170197 -0.0408661,-0.0170197z"/>
   <path id="_285824392" class="fil2" d="M2.47076 5.48449l0 -0.758689 0.245713 0c0.0930906,0 0.153858,0.00388583 0.182122,0.0114843 0.0434528,0.0113031 0.0800197,0.0360354 0.109343,0.074189 0.0293228,0.0381575 0.0439843,0.0874409 0.0439843,0.147677 0,0.0466339 -0.00848031,0.0858465 -0.025437,0.117469 -0.0169567,0.0317953 -0.0383307,0.0567008 -0.0644764,0.0748937 -0.0259646,0.0180197 -0.0524646,0.0300315 -0.079311,0.0358622 -0.0365669,0.00724016 -0.0895591,0.0109488 -0.15898,0.0109488l-0.0998071 0 0 0.286165 -0.15315 0zm0.15315 -0.630268l0 0.215154 0.0837323 0c0.0604094,0 0.100862,-0.00388583 0.121177,-0.0118346 0.020315,-0.00794882 0.0362126,-0.020315 0.0478701,-0.0372717 0.0114803,-0.0169606 0.017311,-0.0365669 0.017311,-0.059 0,-0.0275551 -0.00812598,-0.0503425 -0.024378,-0.0683622 -0.0160748,-0.0178386 -0.0367402,-0.0291457 -0.0614724,-0.033563 -0.0183701,-0.0035315 -0.0551102,-0.00512205 -0.110224,-0.00512205l-0.0740157 0zm0.55378 0.630268l0 -0.758689 0.245713 0c0.0930906,0 0.153858,0.00388583 0.182122,0.0114843 0.0434528,0.0113031 0.0800197,0.0360354 0.109343,0.074189 0.0293228,0.0381575 0.0439843,0.0874409 0.0439843,0.147677 0,0.0466339 -0.00848031,0.0858465 -0.025437,0.117469 -0.0169567,0.0317953 -0.0383307,0.0567008 -0.0644764,0.0748937 -0.0259646,0.0180197 -0.0524646,0.0300315 -0.079311,0.0358622 -0.0365669,0.00724016 -0.0895591,0.0109488 -0.15898,0.0109488l-0.0998071 0 0 0.286165 -0.15315 0zm0.15315 -0.630268l0 0.215154 0.0837323 0c0.0604094,0 0.100862,-0.00388583 0.121177,-0.0118346 0.020315,-0.00794882 0.0362126,-0.020315 0.0478701,-0.0372717 0.0114803,-0.0169606 0.017311,-0.0365669 0.017311,-0.059 0,-0.0275551 -0.00812598,-0.0503425 -0.024378,-0.0683622 -0.0160748,-0.0178386 -0.0367402,-0.0291457 -0.0614724,-0.033563 -0.0183701,-0.0035315 -0.0551102,-0.00512205 -0.110224,-0.00512205l-0.0740157 0zm0.724417 0.630268l0 -0.630268 -0.225043 0 0 -0.128421 0.602886 0 0 0.128421 -0.224516 0 0 0.630268 -0.153327 0z"/>
  </g>
 </g>
</svg>
