<?xml version="1.0" encoding="UTF-8"?>
<!DOCTYPE svg PUBLIC "-//W3C//DTD SVG 1.1//EN" "http://www.w3.org/Graphics/SVG/1.1/DTD/svg11.dtd">
<!-- Creator: CorelDRAW -->
<svg xmlns="http://www.w3.org/2000/svg" xml:space="preserve" width="6.82666in" height="6.82666in" style="shape-rendering:geometricPrecision; text-rendering:geometricPrecision; image-rendering:optimizeQuality; fill-rule:evenodd; clip-rule:evenodd"
viewBox="0 0 6.82666 6.82666"
 xmlns:xlink="http://www.w3.org/1999/xlink">
 <defs>
  <style type="text/css">
   <![CDATA[
    .fil0 {fill:none}
    .fil4 {fill:#727272}
    .fil1 {fill:#B3B3B3}
    .fil2 {fill:#DBDBDB}
    .fil3 {fill:#727272;fill-rule:nonzero}
    .fil5 {fill:white;fill-rule:nonzero}
   ]]>
  </style>
 </defs>
 <g id="Layer_x0020_1">
  <metadata id="CorelCorpID_0Corel-Layer"/>
  <rect class="fil0" width="6.82666" height="6.82666"/>
  <rect class="fil0" x="0.853331" y="0.853331" width="5.12" height="5.12"/>
  <path class="fil1" d="M4.34396 0.879996l1.09586 1.09719 -0.899941 0c-0.10776,0 -0.195921,-0.0881614 -0.195921,-0.195921l0 -0.901272z"/>
  <path class="fil2" d="M1.51617 0.879996l2.82798 0 0 0.895823c0,0.11076 0.0906142,0.20137 0.20137,0.20137l0.89448 0 0 2.71614c0,0.0733346 -0.0599961,0.133331 -0.133331,0.133331l-3.7905 0c-0.0733346,0 -0.133331,-0.0599961 -0.133331,-0.133331l0 -3.68c0,-0.0733346 0.0599961,-0.133331 0.133331,-0.133331z"/>
  <polygon class="fil3" points="2.24,2.54447 4.69333,2.54447 4.69333,2.75781 2.24,2.75781 "/>
  <polygon class="fil3" points="2.24,3.29112 4.69333,3.29112 4.69333,3.50446 2.24,3.50446 "/>
  <path class="fil4" d="M1.12465 4.08731l4.57736 0c0.0745827,0 0.142449,0.0307795 0.191701,0.0803583 0.049126,0.0494528 0.079622,0.117461 0.079622,0.192063l0 1.31451c0,0.0746024 -0.0305,0.142606 -0.079622,0.192059 -0.0492559,0.0495787 -0.117122,0.0803622 -0.191701,0.0803622l-4.57736 0c-0.0745748,0 -0.142449,-0.0307835 -0.191705,-0.0803622 -0.049122,-0.0494449 -0.0796181,-0.117449 -0.0796181,-0.192059l0 -1.31451c0,-0.0746063 0.0304961,-0.14261 0.0796181,-0.192063 0.049248,-0.0495787 0.117122,-0.0803583 0.191705,-0.0803583z"/>
  <path class="fil5" d="M1.7343 5.61351l0 -1.19306 0.50722 0c0.1275,0 0.22,0.0108346 0.27778,0.0322244 0.0577756,0.0213858 0.104165,0.0594409 0.138886,0.114165 0.0347244,0.055 0.0519449,0.1175 0.0519449,0.188055 0,0.0894449 -0.0263858,0.16361 -0.0788858,0.221945 -0.0525,0.0580551 -0.13139,0.095 -0.236114,0.11 0.0522244,0.0305551 0.0952795,0.0638898 0.129169,0.100276 0.0338858,0.0363898 0.0794449,0.100835 0.136945,0.19361l0.145831 0.23278 -0.288055 0 -0.174165 -0.25972c-0.0619449,-0.0927795 -0.104165,-0.151114 -0.126945,-0.17528 -0.0227795,-0.0241654 -0.0469449,-0.0405551 -0.0725,-0.0497205 -0.0255551,-0.00888976 -0.0658346,-0.0133346 -0.12139,-0.0133346l-0.0486102 0 0 0.498055 -0.24111 0zm0.24111 -0.68861l0.178055 0c0.115555,0 0.18778,-0.00472441 0.216665,-0.0144449 0.0286142,-0.00972047 0.0511142,-0.0266654 0.0675,-0.0505551 0.0161142,-0.0238898 0.0244449,-0.0536102 0.0244449,-0.0894449 0,-0.0402756 -0.0108307,-0.0725 -0.0322205,-0.0972205 -0.0213898,-0.0247244 -0.0516654,-0.0402795 -0.0908346,-0.0469449 -0.0194449,-0.0025 -0.0780551,-0.00388976 -0.175831,-0.00388976l-0.18778 0 0 0.3025zm2.03778 0.68861l-0.26222 0 -0.104165 -0.27111 -0.476945 0 -0.0983346 0.27111 -0.255555 0 0.46472 -1.19306 0.254724 0 0.477776 1.19306zm-0.44361 -0.471945l-0.164445 -0.442776 -0.16111 0.442776 0.325555 0zm0.571945 0.471945l0 -1.19306 0.50722 0c0.1275,0 0.22,0.0108346 0.27778,0.0322244 0.0577756,0.0213858 0.104165,0.0594409 0.138886,0.114165 0.0347244,0.055 0.0519449,0.1175 0.0519449,0.188055 0,0.0894449 -0.0263858,0.16361 -0.0788858,0.221945 -0.0525,0.0580551 -0.13139,0.095 -0.236114,0.11 0.0522244,0.0305551 0.0952795,0.0638898 0.129169,0.100276 0.0338858,0.0363898 0.0794449,0.100835 0.136945,0.19361l0.145831 0.23278 -0.288055 0 -0.174165 -0.25972c-0.0619449,-0.0927795 -0.104165,-0.151114 -0.126945,-0.17528 -0.0227795,-0.0241654 -0.0469449,-0.0405551 -0.0725,-0.0497205 -0.0255551,-0.00888976 -0.0658346,-0.0133346 -0.12139,-0.0133346l-0.0486102 0 0 0.498055 -0.24111 0zm0.24111 -0.68861l0.178055 0c0.115555,0 0.18778,-0.00472441 0.216665,-0.0144449 0.0286142,-0.00972047 0.0511142,-0.0266654 0.0675,-0.0505551 0.0161142,-0.0238898 0.0244449,-0.0536102 0.0244449,-0.0894449 0,-0.0402756 -0.0108307,-0.0725 -0.0322205,-0.0972205 -0.0213898,-0.0247244 -0.0516654,-0.0402795 -0.0908346,-0.0469449 -0.0194449,-0.0025 -0.0780551,-0.00388976 -0.175831,-0.00388976l-0.18778 0 0 0.3025z"/>
 </g>
</svg>
