<?xml version="1.0" encoding="UTF-8"?>
<!DOCTYPE svg PUBLIC "-//W3C//DTD SVG 1.1//EN" "http://www.w3.org/Graphics/SVG/1.1/DTD/svg11.dtd">
<!-- Creator: CorelDRAW -->
<svg xmlns="http://www.w3.org/2000/svg" xml:space="preserve" width="6.82666in" height="6.82666in" style="shape-rendering:geometricPrecision; text-rendering:geometricPrecision; image-rendering:optimizeQuality; fill-rule:evenodd; clip-rule:evenodd"
viewBox="0 0 6.82666 6.82666"
 xmlns:xlink="http://www.w3.org/1999/xlink">
 <defs>
  <style type="text/css">
   <![CDATA[
    .fil0 {fill:none}
    .fil4 {fill:#919191}
    .fil1 {fill:#C9C9C9}
    .fil2 {fill:#DEDEDE}
    .fil3 {fill:#919191;fill-rule:nonzero}
    .fil5 {fill:white;fill-rule:nonzero}
   ]]>
  </style>
 </defs>
 <g id="Layer_x0020_1">
  <metadata id="CorelCorpID_0Corel-Layer"/>
  <rect class="fil0" width="6.82666" height="6.82666"/>
  <rect class="fil0" x="0.853331" y="0.853331" width="5.12" height="5.12"/>
  <path class="fil1" d="M4.34396 0.879996l1.09586 1.09719 -0.899941 0c-0.10776,0 -0.195921,-0.0881614 -0.195921,-0.195921l0 -0.901272z"/>
  <path class="fil2" d="M1.51617 0.879996l2.82798 0 0 0.895823c0,0.11076 0.0906142,0.20137 0.20137,0.20137l0.89448 0 0 2.71614c0,0.0733346 -0.0599961,0.133331 -0.133331,0.133331l-3.7905 0c-0.0733346,0 -0.133331,-0.0599961 -0.133331,-0.133331l0 -3.68c0,-0.0733346 0.0599961,-0.133331 0.133331,-0.133331z"/>
  <polygon class="fil3" points="2.24,2.54447 4.69333,2.54447 4.69333,2.75781 2.24,2.75781 "/>
  <polygon class="fil3" points="2.24,3.29112 4.69333,3.29112 4.69333,3.50446 2.24,3.50446 "/>
  <path class="fil4" d="M1.12465 4.08731l4.57736 0c0.0745827,0 0.142449,0.0307795 0.191701,0.0803583 0.049126,0.0494528 0.079622,0.117461 0.079622,0.192063l0 1.31451c0,0.0746024 -0.0305,0.142606 -0.079622,0.192059 -0.0492559,0.0495787 -0.117122,0.0803622 -0.191701,0.0803622l-4.57736 0c-0.0745748,0 -0.142449,-0.0307835 -0.191705,-0.0803622 -0.049122,-0.0494449 -0.0796181,-0.117449 -0.0796181,-0.192059l0 -1.31451c0,-0.0746063 0.0304961,-0.14261 0.0796181,-0.192063 0.049248,-0.0495787 0.117122,-0.0803583 0.191705,-0.0803583z"/>
  <path class="fil5" d="M1.78583 5.17574l0.234441 -0.0230551c0.0138898,0.0788898 0.0425,0.136665 0.0858346,0.17361 0.0430551,0.0366654 0.10111,0.0552795 0.174445,0.0552795 0.0775,0 0.13611,-0.0163898 0.175276,-0.0494449 0.0394449,-0.0327795 0.0591693,-0.0711102 0.0591693,-0.115 0,-0.0283346 -0.00833465,-0.0522244 -0.025,-0.0719449 -0.0163898,-0.02 -0.0452795,-0.0372244 -0.0866693,-0.0516654 -0.0280551,-0.01 -0.0925,-0.0272244 -0.192776,-0.0522244 -0.129165,-0.0319449 -0.21972,-0.0713898 -0.271665,-0.118055 -0.0733346,-0.0655551 -0.11,-0.145555 -0.11,-0.24 0,-0.0608346 0.0172205,-0.1175 0.0516654,-0.170555 0.0344449,-0.0527795 0.0841654,-0.0930551 0.14889,-0.120835 0.065,-0.0275 0.143055,-0.0413858 0.23472,-0.0413858 0.15,0 0.2625,0.0327756 0.338335,0.0983307 0.0755551,0.0658346 0.115276,0.153335 0.119165,0.263055l-0.240835 0.0105551c-0.0102756,-0.0613858 -0.0325,-0.105555 -0.0663858,-0.13222 -0.0338898,-0.0269449 -0.0847244,-0.0402795 -0.1525,-0.0402795 -0.07,0 -0.125,0.0141693 -0.164445,0.0430591 -0.0255551,0.0183307 -0.0383346,0.0430551 -0.0383346,0.0738858 0,0.0283346 0.0119449,0.0525 0.0358346,0.0725 0.0302756,0.0255551 0.104165,0.0522244 0.22139,0.0797244 0.11722,0.0277756 0.203886,0.0563858 0.259996,0.0858307 0.0561142,0.0297244 0.1,0.07 0.131945,0.12139 0.0316693,0.0513898 0.0475,0.114724 0.0475,0.19 0,0.0683346 -0.0188858,0.1325 -0.0569449,0.191945 -0.0380551,0.0597205 -0.0916654,0.104165 -0.16111,0.133055 -0.0694449,0.0291654 -0.15611,0.0436102 -0.25972,0.0436102 -0.150835,0 -0.266665,-0.0347205 -0.3475,-0.104445 -0.0808346,-0.0697205 -0.129165,-0.171386 -0.14472,-0.30472zm2.13305 0.236665c0.0588898,0.0422244 0.123335,0.0761102 0.19278,0.100835l-0.0886142 0.170276c-0.0363858,-0.0108307 -0.0719409,-0.0258307 -0.106665,-0.0447205 -0.00777559,-0.00388976 -0.0611102,-0.0391654 -0.160276,-0.105835 -0.0783346,0.0341693 -0.164724,0.0511142 -0.259724,0.0511142 -0.183331,0 -0.326945,-0.0538898 -0.430831,-0.161945 -0.10389,-0.10778 -0.155835,-0.259445 -0.155835,-0.454724 0,-0.195 0.0519449,-0.346386 0.15611,-0.45472 0.104165,-0.108055 0.245555,-0.16222 0.424165,-0.16222 0.176669,0 0.316945,0.0541654 0.420555,0.16222 0.103614,0.108335 0.155559,0.25972 0.155559,0.45472 0,0.103055 -0.0144449,0.193614 -0.0430591,0.271669 -0.0219409,0.0597205 -0.0566654,0.1175 -0.104165,0.173331zm-0.19389 -0.135831c0.0311142,-0.0363898 0.0541693,-0.0802795 0.0697244,-0.131945 0.0152756,-0.0513898 0.0230551,-0.110555 0.0230551,-0.177224 0,-0.138055 -0.0302795,-0.240831 -0.0911102,-0.308886 -0.0608346,-0.0680551 -0.14028,-0.102224 -0.238335,-0.102224 -0.0983346,0 -0.177776,0.0341693 -0.23889,0.1025 -0.0611102,0.0683346 -0.0916654,0.17111 -0.0916654,0.30861 0,0.139169 0.0305551,0.243614 0.0916654,0.31278 0.0611142,0.0691654 0.138055,0.10389 0.23139,0.10389 0.0347244,0 0.0677795,-0.00583465 0.0986102,-0.0172244 -0.0488858,-0.0319449 -0.0986102,-0.0569449 -0.148886,-0.075l0.0675 -0.1375c0.0791654,0.0272244 0.155,0.0677795 0.226941,0.122224zm0.536394 0.28722l0 -1.18333 0.240831 0 0 0.98222 0.59889 0 0 0.20111 -0.83972 0z"/>
 </g>
</svg>
