<?xml version="1.0" encoding="UTF-8"?>
<!DOCTYPE svg PUBLIC "-//W3C//DTD SVG 1.1//EN" "http://www.w3.org/Graphics/SVG/1.1/DTD/svg11.dtd">
<!-- Creator: CorelDRAW -->
<svg xmlns="http://www.w3.org/2000/svg" xml:space="preserve" width="6.82666in" height="6.82666in" style="shape-rendering:geometricPrecision; text-rendering:geometricPrecision; image-rendering:optimizeQuality; fill-rule:evenodd; clip-rule:evenodd"
viewBox="0 0 6.82666 6.82666"
 xmlns:xlink="http://www.w3.org/1999/xlink">
 <defs>
  <style type="text/css">
   <![CDATA[
    .fil0 {fill:none}
    .fil4 {fill:#8E8E8F}
    .fil1 {fill:#CACBCB}
    .fil2 {fill:#DFDFDF}
    .fil3 {fill:#8E8E8F;fill-rule:nonzero}
    .fil5 {fill:white;fill-rule:nonzero}
   ]]>
  </style>
 </defs>
 <g id="Layer_x0020_1">
  <metadata id="CorelCorpID_0Corel-Layer"/>
  <rect class="fil0" width="6.82666" height="6.82666"/>
  <rect class="fil0" x="0.853331" y="0.853331" width="5.12" height="5.12"/>
  <path class="fil1" d="M4.34396 0.879996l1.09586 1.09719 -0.899941 0c-0.10776,0 -0.195921,-0.0881614 -0.195921,-0.195921l0 -0.901272z"/>
  <path class="fil2" d="M1.51617 0.879996l2.82798 0 0 0.895823c0,0.11076 0.0906142,0.20137 0.20137,0.20137l0.89448 0 0 2.71614c0,0.0733346 -0.0599961,0.133331 -0.133331,0.133331l-3.7905 0c-0.0733346,0 -0.133331,-0.0599961 -0.133331,-0.133331l0 -3.68c0,-0.0733346 0.0599961,-0.133331 0.133331,-0.133331z"/>
  <path class="fil3" d="M2.84889 3.4095l0 -1.2989c0.374996,0.216496 0.750075,0.432846 1.12506,0.64935l-1.12506 0.649547z"/>
  <path class="fil4" d="M1.12465 4.08731l4.57736 0c0.0745827,0 0.142449,0.0307795 0.191701,0.0803583 0.049126,0.0494528 0.079622,0.117461 0.079622,0.192063l0 1.31451c0,0.0746024 -0.0305,0.142606 -0.079622,0.192059 -0.0492559,0.0495787 -0.117122,0.0803622 -0.191701,0.0803622l-4.57736 0c-0.0745748,0 -0.142449,-0.0307835 -0.191705,-0.0803622 -0.049122,-0.0494449 -0.0796181,-0.117449 -0.0796181,-0.192059l0 -1.31451c0,-0.0746063 0.0304961,-0.14261 0.0796181,-0.192063 0.049248,-0.0495787 0.117122,-0.0803583 0.191705,-0.0803583z"/>
  <path class="fil5" d="M1.62458 5.61351l-0.28472 -1.19306 0.246386 0 0.18 0.819445 0.218055 -0.819445 0.28639 0 0.209165 0.833335 0.183059 -0.833335 0.242496 0 -0.28972 1.19306 -0.255555 0 -0.2375 -0.891945 -0.236945 0.891945 -0.26111 0zm1.40056 0l0 -1.19306 0.360555 0 0.21639 0.81389 0.21389 -0.81389 0.361386 0 0 1.19306 -0.22361 0 0 -0.939165 -0.236945 0.939165 -0.231945 0 -0.23611 -0.939165 0 0.939165 -0.22361 0zm2.4675 0l-0.26222 0 -0.104165 -0.27111 -0.476945 0 -0.0983346 0.27111 -0.255555 0 0.46472 -1.19306 0.254724 0 0.477776 1.19306zm-0.44361 -0.471945l-0.164445 -0.442776 -0.16111 0.442776 0.325555 0z"/>
 </g>
</svg>
