<?xml version="1.0" encoding="UTF-8"?>
<!DOCTYPE svg PUBLIC "-//W3C//DTD SVG 1.1//EN" "http://www.w3.org/Graphics/SVG/1.1/DTD/svg11.dtd">
<!-- Creator: CorelDRAW -->
<svg xmlns="http://www.w3.org/2000/svg" xml:space="preserve" width="6.82666in" height="6.82666in" style="shape-rendering:geometricPrecision; text-rendering:geometricPrecision; image-rendering:optimizeQuality; fill-rule:evenodd; clip-rule:evenodd"
viewBox="0 0 6.82666 6.82666"
 xmlns:xlink="http://www.w3.org/1999/xlink">
 <defs>
  <style type="text/css">
   <![CDATA[
    .fil0 {fill:none}
    .fil4 {fill:#797979}
    .fil1 {fill:#BEBEBE}
    .fil2 {fill:#D7D7D7}
    .fil3 {fill:#797979;fill-rule:nonzero}
    .fil5 {fill:white;fill-rule:nonzero}
   ]]>
  </style>
 </defs>
 <g id="Layer_x0020_1">
  <metadata id="CorelCorpID_0Corel-Layer"/>
  <g id="_495281312">
   <rect id="_492454400" class="fil0" width="6.82666" height="6.82666"/>
   <rect id="_492454352" class="fil0" x="0.853331" y="0.853331" width="5.12" height="5.12"/>
   <path id="_492454232" class="fil1" d="M4.34396 0.853331l1.09586 1.09719 -0.899941 0c-0.10776,0 -0.195921,-0.0881614 -0.195921,-0.195921l0 -0.901272z"/>
   <path id="_495281288" class="fil2" d="M1.51617 0.853331l2.82798 0 0 0.895823c0,0.11076 0.0906142,0.20137 0.20137,0.20137l0.89448 0 0 2.71614c0,0.0733346 -0.0599961,0.133331 -0.133331,0.133331l-3.7905 0c-0.0733346,0 -0.133331,-0.0599961 -0.133331,-0.133331l0 -3.68c0,-0.0733346 0.0599961,-0.133331 0.133331,-0.133331z"/>
   <polygon id="_495281648" class="fil3" points="2.24,2.51781 4.69333,2.51781 4.69333,2.73115 2.24,2.73115 "/>
   <polygon id="_495281000" class="fil3" points="2.24,3.26446 4.69333,3.26446 4.69333,3.4778 2.24,3.4778 "/>
   <path id="_495281072" class="fil4" d="M1.12465 4.06065l4.57736 0c0.0745827,0 0.142449,0.0307795 0.191701,0.0803583 0.049126,0.0494528 0.079622,0.117461 0.079622,0.192063l0 1.31451c0,0.0746024 -0.0305,0.142606 -0.079622,0.192059 -0.0492559,0.0495787 -0.117122,0.0803622 -0.191701,0.0803622l-4.57736 0c-0.0745748,0 -0.142449,-0.0307835 -0.191705,-0.0803622 -0.049122,-0.0494449 -0.0796181,-0.117449 -0.0796181,-0.192059l0 -1.31451c0,-0.0746063 0.0304961,-0.14261 0.0796181,-0.192063 0.049248,-0.0495787 0.117122,-0.0803583 0.191705,-0.0803583z"/>
   <path id="_495281360" class="fil5" d="M1.23806 5.58685l0.407776 -0.6225 -0.369441 -0.570555 0.281386 0 0.239445 0.383335 0.234169 -0.383335 0.279165 0 -0.37111 0.579445 0.407776 0.61361 -0.290555 0 -0.264445 -0.4125 -0.265276 0.4125 -0.28889 0zm1.23944 0l0 -1.18333 0.240831 0 0 0.98222 0.59889 0 0 0.20111 -0.83972 0zm0.950555 -0.388055l0.234441 -0.0230551c0.0138898,0.0788898 0.0425,0.136665 0.0858346,0.17361 0.0430551,0.0366654 0.10111,0.0552795 0.174445,0.0552795 0.0775,0 0.13611,-0.0163898 0.175276,-0.0494449 0.0394449,-0.0327795 0.0591693,-0.0711102 0.0591693,-0.115 0,-0.0283346 -0.00833465,-0.0522244 -0.025,-0.0719449 -0.0163898,-0.02 -0.0452795,-0.0372244 -0.0866693,-0.0516654 -0.0280551,-0.01 -0.0925,-0.0272244 -0.192776,-0.0522244 -0.129165,-0.0319449 -0.21972,-0.0713898 -0.271665,-0.118055 -0.0733346,-0.0655551 -0.11,-0.145555 -0.11,-0.24 0,-0.0608346 0.0172205,-0.1175 0.0516654,-0.170555 0.0344449,-0.0527795 0.0841654,-0.0930551 0.14889,-0.120835 0.065,-0.0275 0.143055,-0.0413858 0.23472,-0.0413858 0.15,0 0.2625,0.0327756 0.338335,0.0983307 0.0755551,0.0658346 0.115276,0.153335 0.119165,0.263055l-0.240835 0.0105551c-0.0102756,-0.0613858 -0.0325,-0.105555 -0.0663858,-0.13222 -0.0338898,-0.0269449 -0.0847244,-0.0402795 -0.1525,-0.0402795 -0.07,0 -0.125,0.0141693 -0.164445,0.0430591 -0.0255551,0.0183307 -0.0383346,0.0430551 -0.0383346,0.0738858 0,0.0283346 0.0119449,0.0525 0.0358346,0.0725 0.0302756,0.0255551 0.104165,0.0522244 0.22139,0.0797244 0.11722,0.0277756 0.203886,0.0563858 0.259996,0.0858307 0.0561142,0.0297244 0.1,0.07 0.131945,0.12139 0.0316693,0.0513898 0.0475,0.114724 0.0475,0.19 0,0.0683346 -0.0188858,0.1325 -0.0569449,0.191945 -0.0380551,0.0597205 -0.0916654,0.104165 -0.16111,0.133055 -0.0694449,0.0291654 -0.15611,0.0436102 -0.25972,0.0436102 -0.150835,0 -0.266665,-0.0347205 -0.3475,-0.104445 -0.0808346,-0.0697205 -0.129165,-0.171386 -0.14472,-0.30472zm1.05139 0.388055l0.407776 -0.6225 -0.369441 -0.570555 0.281386 0 0.239445 0.383335 0.234169 -0.383335 0.279165 0 -0.37111 0.579445 0.407776 0.61361 -0.290555 0 -0.264445 -0.4125 -0.265276 0.4125 -0.28889 0z"/>
  </g>
 </g>
</svg>
