<?xml version="1.0" encoding="UTF-8"?>
<!DOCTYPE svg PUBLIC "-//W3C//DTD SVG 1.1//EN" "http://www.w3.org/Graphics/SVG/1.1/DTD/svg11.dtd">
<!-- Creator: CorelDRAW -->
<svg xmlns="http://www.w3.org/2000/svg" xml:space="preserve" width="6.82666in" height="6.82666in" style="shape-rendering:geometricPrecision; text-rendering:geometricPrecision; image-rendering:optimizeQuality; fill-rule:evenodd; clip-rule:evenodd"
viewBox="0 0 6.82666 6.82666"
 xmlns:xlink="http://www.w3.org/1999/xlink">
 <defs>
  <style type="text/css">
   <![CDATA[
    .fil0 {fill:none}
    .fil4 {fill:#A0A0A0}
    .fil1 {fill:#BCBCBC}
    .fil2 {fill:#D7D7D7}
    .fil3 {fill:#A0A0A0;fill-rule:nonzero}
    .fil5 {fill:white;fill-rule:nonzero}
   ]]>
  </style>
 </defs>
 <g id="Layer_x0020_1">
  <metadata id="CorelCorpID_0Corel-Layer"/>
  <rect class="fil0" width="6.82666" height="6.82666"/>
  <rect class="fil0" x="0.853331" y="0.853331" width="5.12" height="5.12"/>
  <path class="fil1" d="M4.34396 0.879996l1.09586 1.09719 -0.899941 0c-0.10776,0 -0.195921,-0.0881614 -0.195921,-0.195921l0 -0.901272z"/>
  <path class="fil2" d="M1.51617 0.879996l2.82798 0 0 0.895823c0,0.11076 0.0906142,0.20137 0.20137,0.20137l0.89448 0 0 2.71614c0,0.0733346 -0.0599961,0.133331 -0.133331,0.133331l-3.7905 0c-0.0733346,0 -0.133331,-0.0599961 -0.133331,-0.133331l0 -3.68c0,-0.0733346 0.0599961,-0.133331 0.133331,-0.133331z"/>
  <polygon class="fil3" points="2.24,2.54447 4.69333,2.54447 4.69333,2.75781 2.24,2.75781 "/>
  <polygon class="fil3" points="2.24,3.29112 4.69333,3.29112 4.69333,3.50446 2.24,3.50446 "/>
  <path class="fil4" d="M1.12465 4.08731l4.57736 0c0.0745827,0 0.142449,0.0307795 0.191701,0.0803583 0.049126,0.0494528 0.079622,0.117461 0.079622,0.192063l0 1.31451c0,0.0746024 -0.0305,0.142606 -0.079622,0.192059 -0.0492559,0.0495787 -0.117122,0.0803622 -0.191701,0.0803622l-4.57736 0c-0.0745748,0 -0.142449,-0.0307835 -0.191705,-0.0803622 -0.049122,-0.0494449 -0.0796181,-0.117449 -0.0796181,-0.192059l0 -1.31451c0,-0.0746063 0.0304961,-0.14261 0.0796181,-0.192063 0.049248,-0.0495787 0.117122,-0.0803583 0.191705,-0.0803583z"/>
  <path class="fil5" d="M2.17292 5.61351l0 -0.21722 0.626665 -0.77389 -0.555835 0 0 -0.201945 0.873335 0 0 0.187224 -0.65361 0.80472 0.678886 0 0 0.20111 -0.969441 0zm1.11417 0l0 -1.19306 0.240831 0 0 1.19306 -0.240831 0zm0.470555 0l0 -1.19306 0.386386 0c0.14639,0 0.241945,0.00611024 0.28639,0.0180551 0.0683346,0.0177795 0.125835,0.0566693 0.171945,0.116669 0.0461102,0.06 0.0691654,0.1375 0.0691654,0.23222 0,0.0733346 -0.0133307,0.135 -0.04,0.18472 -0.0266654,0.05 -0.0602756,0.0891693 -0.101386,0.11778 -0.0408346,0.0283346 -0.0825,0.0472205 -0.124724,0.0563898 -0.0575,0.0113858 -0.140831,0.0172205 -0.25,0.0172205l-0.156945 0 0 0.45 -0.240831 0zm0.240831 -0.99111l0 0.338335 0.131669 0c0.095,0 0.15861,-0.00611417 0.190555,-0.0186142 0.0319449,-0.0125 0.0569449,-0.0319449 0.0752756,-0.0586102 0.0180551,-0.0266654 0.0272244,-0.0575 0.0272244,-0.0927756 0,-0.0433346 -0.0127795,-0.0791693 -0.0383346,-0.1075 -0.0252756,-0.0280551 -0.0577756,-0.0458346 -0.0966654,-0.0527795 -0.0288898,-0.00555512 -0.0866693,-0.00805512 -0.173335,-0.00805512l-0.11639 0z"/>
 </g>
</svg>
