<svg xmlns="http://www.w3.org/2000/svg" xmlns:xlink="http://www.w3.org/1999/xlink" viewBox="0 0 258.23 346.82"><defs><style>.cls-1,.cls-10{opacity:0.73;}.cls-1{fill:url(#radial-gradient);}.cls-11,.cls-12,.cls-13,.cls-14,.cls-15,.cls-2,.cls-5,.cls-7,.cls-8,.cls-9{opacity:0.36;}.cls-2{fill:url(#radial-gradient-2);}.cls-3{opacity:0.61;fill:url(#radial-gradient-3);}.cls-4,.cls-6{opacity:0.11;}.cls-4{fill:url(#radial-gradient-4);}.cls-5{fill:url(#radial-gradient-5);}.cls-6{fill:url(#radial-gradient-6);}.cls-7{fill:url(#linear-gradient);}.cls-8{fill:url(#radial-gradient-7);}.cls-9{fill:url(#radial-gradient-8);}.cls-10{fill:url(#radial-gradient-9);}.cls-11,.cls-45,.cls-46,.cls-47,.cls-48,.cls-49{fill-rule:evenodd;}.cls-11{fill:url(#radial-gradient-10);}.cls-12{fill:url(#radial-gradient-11);}.cls-13{fill:url(#radial-gradient-12);}.cls-14{fill:url(#radial-gradient-13);}.cls-15{fill:url(#radial-gradient-14);}.cls-16{fill:#c2dde0;}.cls-17{opacity:0.86;}.cls-18{fill:#fff;}.cls-19{fill:#f5f9fa;}.cls-20{fill:#3c403d;}.cls-21,.cls-63,.cls-68{fill:#211915;}.cls-22,.cls-31{font-size:5.5px;}.cls-22{fill:#101919;}.cls-22,.cls-55{font-family:OpenSans-Semibold, OpenSans Semibold;font-weight:600;}.cls-23{letter-spacing:-0.01em;}.cls-24{letter-spacing:-0.01em;}.cls-25{letter-spacing:-0.01em;}.cls-26{letter-spacing:-0.01em;}.cls-27{letter-spacing:0em;}.cls-28{letter-spacing:-0.02em;}.cls-29{letter-spacing:-0.01em;}.cls-30{letter-spacing:0em;}.cls-31,.cls-35{fill:#15537d;font-family:OpenSans-Bold, OpenSans Bold;font-weight:700;}.cls-32{letter-spacing:-0.01em;}.cls-33{letter-spacing:0em;}.cls-34{letter-spacing:0em;}.cls-35{font-size:6.1px;}.cls-36{letter-spacing:0.01em;}.cls-37{letter-spacing:-0.04em;}.cls-38{letter-spacing:0em;}.cls-39{letter-spacing:-0.01em;}.cls-40{font-size:4.5px;fill:#3a3a34;}.cls-40,.cls-50,.cls-63{font-family:OpenSans;}.cls-41{letter-spacing:-0.01em;}.cls-42{letter-spacing:-0.03em;}.cls-43{letter-spacing:0em;}.cls-44{letter-spacing:0em;}.cls-45{fill:#77b2b2;}.cls-46{fill:#5787a8;}.cls-47{fill:#6cab8d;}.cls-48{fill:#324e6f;}.cls-49{fill:#464645;}.cls-50,.cls-63{font-size:4px;}.cls-50{fill:#060800;}.cls-51{letter-spacing:0.01em;}.cls-52{letter-spacing:0em;}.cls-53{letter-spacing:0em;}.cls-54{letter-spacing:-0.01em;}.cls-55{font-size:3.7px;fill:#344e6f;}.cls-56{letter-spacing:-0.03em;}.cls-57{letter-spacing:0em;}.cls-58{letter-spacing:-0.08em;}.cls-59{letter-spacing:-0.07em;}.cls-60{letter-spacing:-0.02em;}.cls-61{letter-spacing:-0.01em;}.cls-62{letter-spacing:0.02em;}.cls-64{letter-spacing:-0.01em;}.cls-65{letter-spacing:-0.03em;}.cls-66{letter-spacing:-0.01em;}.cls-67{fill:#272821;}.cls-68{font-size:10px;font-family:MyriadPro-Regular, Myriad Pro;}.cls-69{letter-spacing:-0.04em;}.cls-70{letter-spacing:-0.06em;}</style><radialGradient id="radial-gradient" cx="128.98" cy="85.04" r="109.24" gradientUnits="userSpaceOnUse"><stop offset="0" stop-color="#fff"/><stop offset="0.96" stop-color="#e7e8ea"/></radialGradient><radialGradient id="radial-gradient-2" cx="178.84" cy="168.62" r="70.5" gradientTransform="matrix(1, 0, 0, -1, 0, 230.33)" gradientUnits="userSpaceOnUse"><stop offset="0" stop-color="#4a72b2"/><stop offset="0.96" stop-color="#009bdb"/></radialGradient><radialGradient id="radial-gradient-3" cx="147.09" cy="201.87" r="77.06" gradientTransform="matrix(1, 0, 0, -1, 0, 230.33)" gradientUnits="userSpaceOnUse"><stop offset="0" stop-color="#4a72b2"/><stop offset="0.83" stop-color="#4a72b2"/></radialGradient><radialGradient id="radial-gradient-4" cx="122.34" cy="223.87" fx="6.781120307620199" fy="241.56767469142497" r="214.25" gradientTransform="matrix(1, 0, 0, -1, 0, 230.33)" gradientUnits="userSpaceOnUse"><stop offset="0" stop-color="#00388a"/><stop offset="1" stop-color="#002e82"/></radialGradient><radialGradient id="radial-gradient-5" cx="198.34" cy="187.87" r="51.13" gradientTransform="matrix(1, 0, 0, -1, 0, 230.33)" gradientUnits="userSpaceOnUse"><stop offset="0" stop-color="#4a72b2"/><stop offset="0.96" stop-color="#4a72b2"/></radialGradient><radialGradient id="radial-gradient-6" cx="115.27" cy="-69.11" fx="-0.2849876777325733" fy="-51.41026492113133" r="214.25" gradientTransform="matrix(-1.01, 0, 0, 1, 237.2, 215.71)" gradientUnits="userSpaceOnUse"><stop offset="0" stop-color="#4a72b2"/><stop offset="1" stop-color="#4a72b2"/></radialGradient><linearGradient id="linear-gradient" x1="-6.38" y1="110.18" x2="285.62" y2="110.18" gradientTransform="matrix(0.73, 0, 0, -0.88, -2.95, 232.76)" gradientUnits="userSpaceOnUse"><stop offset="0" stop-color="#4a72b2"/><stop offset="0.93" stop-color="#4a72b2"/></linearGradient><radialGradient id="radial-gradient-7" cx="16.51" cy="91.63" fx="16.51144242688497" fy="91.63348873798896" r="23.34" gradientTransform="matrix(1.03, 0, 0, -1.15, 0.35, 242.76)" xlink:href="#radial-gradient-4"/><radialGradient id="radial-gradient-8" cx="69.76" cy="78.73" r="55.82" gradientTransform="matrix(1.03, 0, 0, -1.15, 0.35, 242.76)" gradientUnits="userSpaceOnUse"><stop offset="0" stop-color="#4a72b2"/><stop offset="0.96" stop-color="#4a72b2"/></radialGradient><radialGradient id="radial-gradient-9" cx="129.18" cy="261.78" r="109.24" xlink:href="#radial-gradient"/><radialGradient id="radial-gradient-10" cx="120.46" cy="212.37" r="96.34" gradientUnits="userSpaceOnUse"><stop offset="0" stop-color="#002e82"/><stop offset="0.96" stop-color="#4a72b2"/></radialGradient><radialGradient id="radial-gradient-11" cx="178.78" cy="10.82" r="61.67" gradientTransform="matrix(1, 0, 0, -1, 0, 230.33)" xlink:href="#radial-gradient-10"/><radialGradient id="radial-gradient-12" cx="147.03" cy="24.82" r="77.06" gradientTransform="matrix(1, 0, 0, -1, 0, 230.33)" xlink:href="#radial-gradient-10"/><radialGradient id="radial-gradient-13" cx="122.28" cy="46.82" fx="6.723985125472865" fy="64.5226012251967" r="214.25" gradientTransform="matrix(1, 0, 0, -1, 0, 230.33)" gradientUnits="userSpaceOnUse"><stop offset="0" stop-color="#4a72b2"/><stop offset="1" stop-color="#002e82"/></radialGradient><radialGradient id="radial-gradient-14" cx="198.28" cy="10.82" r="51.13" gradientTransform="matrix(1, 0, 0, -1, 0, 230.33)" xlink:href="#radial-gradient-10"/></defs><title>Carteirinha Casembrapa_2020</title><g id="FRENTE"><rect class="cls-1" width="257.95" height="170.08"/><path class="cls-2" d="M249.59,132s-79-100-141.5-140.5h141.5Z" transform="translate(8.64 8.53)"/><path class="cls-3" d="M44.59-8.53S88.09,20,156.09,24s93.5,41.5,93.5,41.5v-74Z" transform="translate(8.64 8.53)"/><path class="cls-4" d="M-4.91-8.53S26.59,23,169.09,7c0,0,55.5-7.5,80.5,14.5v-30Z" transform="translate(8.64 8.53)"/><path class="cls-5" d="M249.59,93.47S200,72.55,193.86,32.54c-4-26.07-46.77-41.07-46.77-41.07h102.5Z" transform="translate(8.64 8.53)"/><path class="cls-6" d="M249.35,161.6S217.42,130.1,73,146.1c0,0-56.26,7.5-81.6-14.5v30Z" transform="translate(8.64 8.53)"/><path class="cls-7" d="M-7.61,109.47s32.9,64.43,117,42.37,96.52,9.71,96.52,9.71H-7.61Z" transform="translate(8.64 8.53)"/><path class="cls-8" d="M-8.64,112.51s22.64,44.42,52,49h-52Z" transform="translate(8.64 8.53)"/><path class="cls-9" d="M153,161.55S126.71,135-8.64,144.24v17.31Z" transform="translate(8.64 8.53)"/></g><g id="VERSO"><rect class="cls-10" x="0.21" y="176.74" width="257.95" height="170.08"/><path class="cls-11" d="M249.34,256.52S45.85,223.85-8,247.05l-.41-78.84H249.34Z" transform="translate(8.64 8.53)"/><path class="cls-12" d="M249.53,270.51s-126.07-47.29-141.5-102h141.5Z" transform="translate(8.64 8.53)"/><path class="cls-13" d="M44.53,168.51S88,197,156,201s93.5,41.5,93.5,41.5v-74Z" transform="translate(8.64 8.53)"/><path class="cls-14" d="M-5,168.51S26.53,200,169,184c0,0,55.5-7.5,80.5,14.5v-30Z" transform="translate(8.64 8.53)"/><path class="cls-15" d="M249.53,270.51s-49.59-20.91-55.72-60.92c-4-26.08-46.78-41.08-46.78-41.08h102.5Z" transform="translate(8.64 8.53)"/></g><g id="Tarja"><rect class="cls-16" x="0.06" y="202.83" width="257.95" height="32.21"/><g class="cls-17"><rect class="cls-18" x="0.06" y="202.76" width="257.95" height="32.39"/><polygon class="cls-19" points="0.11 211.49 8.13 202.72 9.6 202.72 0.11 213.09 0.11 211.49"/><polygon class="cls-19" points="0.11 206.44 3.51 202.72 4.97 202.72 0.11 208.03 0.11 206.44"/><polygon class="cls-19" points="0.06 216.34 11.75 202.72 13.1 202.72 0.06 217.91 0.06 216.34"/><polygon class="cls-19" points="0.06 221.32 16.17 202.72 17.53 202.72 0.06 222.89 0.06 221.32"/><polygon class="cls-19" points="0.11 225.99 20.81 202.72 22.21 202.72 0.11 227.56 0.11 225.99"/><polygon class="cls-19" points="0.11 230.97 25.24 202.72 26.64 202.72 0.11 232.54 0.11 230.97"/><polygon class="cls-19" points="9.88 235.15 38.7 202.76 40.1 202.76 11.28 235.15 9.88 235.15"/><polygon class="cls-19" points="23.18 235.15 51.99 202.76 53.39 202.76 24.57 235.15 23.18 235.15"/><polygon class="cls-19" points="27.61 235.15 56.42 202.76 57.82 202.76 29 235.15 27.61 235.15"/><polygon class="cls-19" points="14.31 235.15 43.13 202.76 44.53 202.76 15.71 235.15 14.31 235.15"/><polygon class="cls-19" points="0.62 235.15 29.44 202.76 30.84 202.76 2.02 235.15 0.62 235.15"/><polygon class="cls-19" points="5.05 235.15 33.87 202.76 35.27 202.76 6.45 235.15 5.05 235.15"/><polygon class="cls-19" points="18.75 235.15 47.56 202.76 48.96 202.76 20.14 235.15 18.75 235.15"/><polygon class="cls-19" points="32.04 235.15 60.85 202.76 62.25 202.76 33.43 235.15 32.04 235.15"/><polygon class="cls-19" points="36.47 235.15 65.28 202.76 66.68 202.76 37.86 235.15 36.47 235.15"/><polygon class="cls-19" points="40.9 235.15 69.71 202.76 71.11 202.76 42.3 235.15 40.9 235.15"/><polygon class="cls-19" points="45.33 235.15 74.14 202.76 75.54 202.76 46.73 235.15 45.33 235.15"/><polygon class="cls-19" points="58.62 235.15 87.44 202.76 88.83 202.76 60.02 235.15 58.62 235.15"/><polygon class="cls-19" points="63.05 235.15 91.87 202.76 93.26 202.76 64.45 235.15 63.05 235.15"/><polygon class="cls-19" points="49.76 235.15 78.58 202.76 79.97 202.76 51.16 235.15 49.76 235.15"/><polygon class="cls-19" points="54.19 235.15 83.01 202.76 84.4 202.76 55.59 235.15 54.19 235.15"/><polygon class="cls-19" points="67.48 235.15 96.3 202.76 97.69 202.76 68.88 235.15 67.48 235.15"/><polygon class="cls-19" points="71.91 235.15 100.73 202.76 102.12 202.76 73.31 235.15 71.91 235.15"/><polygon class="cls-19" points="76.34 235.15 105.16 202.76 106.56 202.76 77.74 235.15 76.34 235.15"/><polygon class="cls-19" points="80.77 235.15 109.59 202.76 110.99 202.76 82.17 235.15 80.77 235.15"/><polygon class="cls-19" points="94.06 235.15 122.88 202.76 124.28 202.76 95.46 235.15 94.06 235.15"/><polygon class="cls-19" points="98.49 235.15 127.31 202.76 128.71 202.76 99.89 235.15 98.49 235.15"/><polygon class="cls-19" points="85.2 235.15 114.02 202.76 115.42 202.76 86.6 235.15 85.2 235.15"/><polygon class="cls-19" points="89.63 235.15 118.45 202.76 119.85 202.76 91.03 235.15 89.63 235.15"/><polygon class="cls-19" points="102.92 235.15 131.74 202.76 133.14 202.76 104.32 235.15 102.92 235.15"/><polygon class="cls-19" points="107.36 235.15 136.17 202.76 137.57 202.76 108.75 235.15 107.36 235.15"/><polygon class="cls-19" points="111.78 235.15 140.6 202.76 142 202.76 113.18 235.15 111.78 235.15"/><polygon class="cls-19" points="116.22 235.15 145.03 202.76 146.43 202.76 117.61 235.15 116.22 235.15"/><polygon class="cls-19" points="129.51 235.15 158.32 202.76 159.72 202.76 130.9 235.15 129.51 235.15"/><polygon class="cls-19" points="133.94 235.15 162.75 202.76 164.15 202.76 135.34 235.15 133.94 235.15"/><polygon class="cls-19" points="120.65 235.15 149.46 202.76 150.86 202.76 122.04 235.15 120.65 235.15"/><polygon class="cls-19" points="125.08 235.15 153.89 202.76 155.29 202.76 126.47 235.15 125.08 235.15"/><polygon class="cls-19" points="138.37 235.15 167.19 202.76 168.58 202.76 139.76 235.15 138.37 235.15"/><polygon class="cls-19" points="142.8 235.15 171.62 202.76 173.01 202.76 144.2 235.15 142.8 235.15"/><polygon class="cls-19" points="147.23 235.15 176.05 202.76 177.44 202.76 148.63 235.15 147.23 235.15"/><polygon class="cls-19" points="151.66 235.15 180.48 202.76 181.88 202.76 153.06 235.15 151.66 235.15"/><polygon class="cls-19" points="164.95 235.15 193.77 202.76 195.17 202.76 166.35 235.15 164.95 235.15"/><polygon class="cls-19" points="169.38 235.15 198.2 202.76 199.6 202.76 170.78 235.15 169.38 235.15"/><polygon class="cls-19" points="156.09 235.15 184.91 202.76 186.31 202.76 157.49 235.15 156.09 235.15"/><polygon class="cls-19" points="160.52 235.15 189.34 202.76 190.74 202.76 161.92 235.15 160.52 235.15"/><polygon class="cls-19" points="173.81 235.15 202.63 202.76 204.03 202.76 175.21 235.15 173.81 235.15"/><polygon class="cls-19" points="178.24 235.15 207.06 202.76 208.46 202.76 179.64 235.15 178.24 235.15"/><polygon class="cls-19" points="182.67 235.15 211.49 202.76 212.89 202.76 184.07 235.15 182.67 235.15"/><polygon class="cls-19" points="187.1 235.15 215.92 202.76 217.32 202.76 188.5 235.15 187.1 235.15"/><polygon class="cls-19" points="200.4 235.15 229.21 202.76 230.61 202.76 201.79 235.15 200.4 235.15"/><polygon class="cls-19" points="204.83 235.15 233.64 202.76 235.04 202.76 206.22 235.15 204.83 235.15"/><polygon class="cls-19" points="191.53 235.15 220.35 202.76 221.75 202.76 192.93 235.15 191.53 235.15"/><polygon class="cls-19" points="195.97 235.15 224.78 202.76 226.18 202.76 197.36 235.15 195.97 235.15"/><polygon class="cls-19" points="209.26 235.15 238.07 202.76 239.47 202.76 210.65 235.15 209.26 235.15"/><polygon class="cls-19" points="213.69 235.15 242.5 202.76 243.9 202.76 215.09 235.15 213.69 235.15"/><polygon class="cls-19" points="218.12 235.15 246.94 202.76 248.33 202.76 219.52 235.15 218.12 235.15"/><polygon class="cls-19" points="222.24 235.15 251.05 202.76 252.45 202.76 223.63 235.15 222.24 235.15"/><polygon class="cls-19" points="226.67 235.15 255.48 202.76 256.88 202.76 228.06 235.15 226.67 235.15"/><polygon class="cls-19" points="230.61 235.15 257.84 204.55 257.84 206.12 232.01 235.15 230.61 235.15"/><polygon class="cls-19" points="243.9 235.15 257.84 219.49 257.84 221.06 245.3 235.15 243.9 235.15"/><polygon class="cls-19" points="248.33 235.15 257.84 224.47 257.84 226.04 249.73 235.15 248.33 235.15"/><polygon class="cls-19" points="235.04 235.15 257.84 209.53 257.84 211.1 236.44 235.15 235.04 235.15"/><polygon class="cls-19" points="239.47 235.15 257.84 214.51 257.84 216.08 240.87 235.15 239.47 235.15"/><polygon class="cls-19" points="252.76 235.15 257.84 229.45 257.84 231.02 254.16 235.15 252.76 235.15"/></g></g><g id="TEXTO_2" data-name="TEXTO 2"><path class="cls-20" d="M28.88,233H27.45l-.71,1.35h-.55l2.31-4.23H29l.53,4.23h-.49Zm-.05-.45-.1-.86a7.23,7.23,0,0,1-.08-1l-.24.51c-.08.17-.32.62-.72,1.37Z" transform="translate(8.64 8.53)"/><path class="cls-20" d="M32.13,233.44a.85.85,0,0,1-.32.7,1.45,1.45,0,0,1-.91.26,2,2,0,0,1-.88-.2v-.46a2.17,2.17,0,0,0,.44.19,1.71,1.71,0,0,0,.43.06.84.84,0,0,0,.55-.14.44.44,0,0,0,.19-.37.45.45,0,0,0-.1-.28,2.47,2.47,0,0,0-.44-.31,1.77,1.77,0,0,1-.53-.41.75.75,0,0,1-.16-.48.83.83,0,0,1,.29-.65,1.2,1.2,0,0,1,.77-.24,2.31,2.31,0,0,1,1,.21l-.16.4-.16-.07a1.5,1.5,0,0,0-.64-.13.6.6,0,0,0-.42.13.39.39,0,0,0-.15.32.4.4,0,0,0,.1.28,1.76,1.76,0,0,0,.42.3,2.29,2.29,0,0,1,.45.3.79.79,0,0,1,.2.26.88.88,0,0,1,.07.33" transform="translate(8.64 8.53)"/><path class="cls-20" d="M34.84,233.44a.82.82,0,0,1-.32.7,1.4,1.4,0,0,1-.9.26,2,2,0,0,1-.88-.2v-.46a2,2,0,0,0,.44.19,1.71,1.71,0,0,0,.43.06.86.86,0,0,0,.55-.14.47.47,0,0,0,.19-.37.41.41,0,0,0-.11-.28,2,2,0,0,0-.43-.31,2,2,0,0,1-.54-.41.86.86,0,0,1,.14-1.13,1.16,1.16,0,0,1,.77-.24,2.23,2.23,0,0,1,1,.21l-.15.4-.16-.07a1.53,1.53,0,0,0-.64-.13.6.6,0,0,0-.42.13.38.38,0,0,0-.16.32.41.41,0,0,0,.11.28,1.56,1.56,0,0,0,.42.3,2.29,2.29,0,0,1,.45.3,1.21,1.21,0,0,1,.2.26.88.88,0,0,1,.06.33" transform="translate(8.64 8.53)"/><path class="cls-20" d="M36.09,234.34H35.6l.68-3.17h.49Zm.33-4a.39.39,0,0,1,.09-.26.3.3,0,0,1,.24-.1c.17,0,.25.08.25.26a.44.44,0,0,1-.09.27l-.23.11-.19-.07Z" transform="translate(8.64 8.53)"/><path class="cls-20" d="M39.23,234.34l.43-2a3.91,3.91,0,0,0,.05-.42.39.39,0,0,0-.1-.29.41.41,0,0,0-.33-.11.82.82,0,0,0-.5.17,1.6,1.6,0,0,0-.43.49,2.75,2.75,0,0,0-.29.78l-.29,1.38h-.48l.67-3.17h.41l-.07.58h0a2.2,2.2,0,0,1,.54-.5,1.14,1.14,0,0,1,.54-.14.8.8,0,0,1,.58.2.73.73,0,0,1,.21.56,2.07,2.07,0,0,1-.07.52l-.41,2Z" transform="translate(8.64 8.53)"/><path class="cls-20" d="M42.57,231.11a.79.79,0,0,1,.47.14.88.88,0,0,1,.32.41h0l.19-.49H44l-.68,3.17H42.9l.07-.61h0a1.42,1.42,0,0,1-1.09.67.76.76,0,0,1-.63-.29,1.24,1.24,0,0,1-.23-.79,2.89,2.89,0,0,1,.21-1.11,1.81,1.81,0,0,1,.56-.81,1.22,1.22,0,0,1,.8-.29M42,234a.83.83,0,0,0,.55-.26A1.92,1.92,0,0,0,43,233a2.25,2.25,0,0,0,.18-.86.68.68,0,0,0-.16-.48.54.54,0,0,0-.43-.17.81.81,0,0,0-.56.24,1.68,1.68,0,0,0-.4.68,2.66,2.66,0,0,0-.15.9.75.75,0,0,0,.13.49A.47.47,0,0,0,42,234Z" transform="translate(8.64 8.53)"/><path class="cls-20" d="M45.39,234a1.61,1.61,0,0,0,.41-.08v.38l-.24.07-.23,0a.8.8,0,0,1-.56-.18.66.66,0,0,1-.19-.51,2.37,2.37,0,0,1,.05-.43l.37-1.75h-.5l0-.21.54-.22.36-.66h.29l-.16.73h.79l-.08.36h-.79l-.37,1.75a2.63,2.63,0,0,0,0,.38.36.36,0,0,0,.08.25.32.32,0,0,0,.24.09" transform="translate(8.64 8.53)"/><path class="cls-20" d="M47.65,231.17l-.44,2a2.53,2.53,0,0,0-.05.4c0,.28.14.41.43.41a.84.84,0,0,0,.5-.17,1.53,1.53,0,0,0,.43-.5,2.54,2.54,0,0,0,.29-.78l.29-1.37h.48l-.67,3.17h-.4l.06-.59h0a1.86,1.86,0,0,1-.54.5,1.08,1.08,0,0,1-.54.15.83.83,0,0,1-.58-.2.78.78,0,0,1-.21-.58,2.86,2.86,0,0,1,.06-.5l.43-2Z" transform="translate(8.64 8.53)"/><path class="cls-20" d="M52.12,231.11a1.25,1.25,0,0,1,.35,0l-.11.43a1.54,1.54,0,0,0-.3,0,.76.76,0,0,0-.49.18,1.41,1.41,0,0,0-.41.48,2.51,2.51,0,0,0-.25.68l-.31,1.46h-.49l.68-3.17h.4l-.06.58h0a3.11,3.11,0,0,1,.34-.39,1.6,1.6,0,0,1,.29-.19.88.88,0,0,1,.33-.06" transform="translate(8.64 8.53)"/><path class="cls-20" d="M54.32,231.11a.77.77,0,0,1,.47.14,1,1,0,0,1,.33.41h0l.19-.49h.37L55,234.34h-.39l.08-.61h0a1.39,1.39,0,0,1-1.09.67.76.76,0,0,1-.63-.29,1.24,1.24,0,0,1-.23-.79,2.89,2.89,0,0,1,.21-1.11,1.83,1.83,0,0,1,.57-.81,1.19,1.19,0,0,1,.79-.29M53.77,234a.85.85,0,0,0,.56-.26,2.28,2.28,0,0,0,.62-1.56.68.68,0,0,0-.16-.48.54.54,0,0,0-.42-.17.83.83,0,0,0-.57.24,1.8,1.8,0,0,0-.4.68,2.66,2.66,0,0,0-.15.9.75.75,0,0,0,.14.49A.46.46,0,0,0,53.77,234Z" transform="translate(8.64 8.53)"/><path class="cls-20" d="M59.56,231.11a.8.8,0,0,1,.48.14.88.88,0,0,1,.32.41h0l.19-.49H61l-.68,3.17H59.9l.07-.61h0a1.41,1.41,0,0,1-1.09.67.76.76,0,0,1-.63-.29,1.18,1.18,0,0,1-.23-.79,3.08,3.08,0,0,1,.2-1.11,1.91,1.91,0,0,1,.57-.81,1.21,1.21,0,0,1,.79-.29M59,234a.83.83,0,0,0,.56-.26A2.08,2.08,0,0,0,60,233a2.44,2.44,0,0,0,.17-.86.68.68,0,0,0-.16-.48.54.54,0,0,0-.43-.17.81.81,0,0,0-.56.24,1.82,1.82,0,0,0-.41.68,2.65,2.65,0,0,0-.14.9.75.75,0,0,0,.13.49A.46.46,0,0,0,59,234Z" transform="translate(8.64 8.53)"/><path class="cls-20" d="M62.55,231.17l-.44,2a2.53,2.53,0,0,0,0,.4c0,.28.14.41.43.41a.84.84,0,0,0,.5-.17,1.53,1.53,0,0,0,.43-.5,2.54,2.54,0,0,0,.29-.78l.29-1.37h.48l-.67,3.17h-.4l.06-.59h0a1.86,1.86,0,0,1-.54.5,1.08,1.08,0,0,1-.54.15.83.83,0,0,1-.58-.2.78.78,0,0,1-.21-.58,2.86,2.86,0,0,1,.06-.5l.43-2Z" transform="translate(8.64 8.53)"/><path class="cls-20" d="M66,234a1.61,1.61,0,0,0,.41-.08v.38l-.24.07-.23,0a.8.8,0,0,1-.56-.18.63.63,0,0,1-.19-.51,2.37,2.37,0,0,1,0-.43l.37-1.75h-.5l0-.21.54-.22.36-.66h.29l-.16.73H67l-.08.36h-.79l-.37,1.75a1.7,1.7,0,0,0,0,.38.36.36,0,0,0,.08.25A.32.32,0,0,0,66,234" transform="translate(8.64 8.53)"/><path class="cls-20" d="M68.8,231.12a1.15,1.15,0,0,1,.87.33,1.25,1.25,0,0,1,.32.9,2.52,2.52,0,0,1-.21,1,1.69,1.69,0,0,1-.56.75,1.31,1.31,0,0,1-.81.26,1.14,1.14,0,0,1-.87-.32,1.25,1.25,0,0,1-.31-.9,2.56,2.56,0,0,1,.21-1,1.76,1.76,0,0,1,.57-.75,1.34,1.34,0,0,1,.79-.26m.69,1.16a.8.8,0,0,0-.18-.54.63.63,0,0,0-.5-.21.83.83,0,0,0-.56.22,1.33,1.33,0,0,0-.39.59,2.57,2.57,0,0,0-.13.85.89.89,0,0,0,.18.59.69.69,0,0,0,.53.2.8.8,0,0,0,.54-.21,1.37,1.37,0,0,0,.37-.6A2.72,2.72,0,0,0,69.49,232.28Z" transform="translate(8.64 8.53)"/><path class="cls-20" d="M72.62,231.11a1.2,1.2,0,0,1,.35,0l-.1.43a1.65,1.65,0,0,0-.31,0,.78.78,0,0,0-.49.18,1.39,1.39,0,0,0-.4.48,2.52,2.52,0,0,0-.26.68l-.31,1.46h-.48l.68-3.17h.4l-.07.58h0a3,3,0,0,1,.35-.39,1.26,1.26,0,0,1,.28-.19.88.88,0,0,1,.33-.06" transform="translate(8.64 8.53)"/><path class="cls-20" d="M73.63,234.34h-.49l.68-3.17h.49Zm.33-4a.39.39,0,0,1,.09-.26.3.3,0,0,1,.24-.1.23.23,0,0,1,.26.26.45.45,0,0,1-.1.27l-.23.11-.19-.07Z" transform="translate(8.64 8.53)"/><polygon class="cls-20" points="85.29 242.87 83.21 242.87 83.28 242.53 85.29 240.06 83.9 240.06 83.98 239.7 85.88 239.7 85.8 240.1 83.83 242.51 85.37 242.51 85.29 242.87"/><path class="cls-20" d="M79.32,231.11a.79.79,0,0,1,.47.14,1,1,0,0,1,.33.41h0l.19-.49h.37L80,234.34h-.38l.08-.61h0a1.41,1.41,0,0,1-1.09.67.76.76,0,0,1-.63-.29,1.24,1.24,0,0,1-.23-.79,2.89,2.89,0,0,1,.21-1.11,1.81,1.81,0,0,1,.56-.81,1.22,1.22,0,0,1,.8-.29M78.77,234a.83.83,0,0,0,.55-.26,2.08,2.08,0,0,0,.46-.7,2.44,2.44,0,0,0,.17-.86.68.68,0,0,0-.16-.48.54.54,0,0,0-.43-.17.83.83,0,0,0-.56.24,1.68,1.68,0,0,0-.4.68,2.66,2.66,0,0,0-.15.9.75.75,0,0,0,.13.49A.47.47,0,0,0,78.77,234Z" transform="translate(8.64 8.53)"/><path class="cls-20" d="M82.84,231.11a.86.86,0,0,1,.82.55h0a5.2,5.2,0,0,1,.13-.79l.22-1h.48l-1,4.51h-.4l.06-.61h0a2.34,2.34,0,0,1-.55.52,1,1,0,0,1-.53.15.76.76,0,0,1-.63-.29,1.24,1.24,0,0,1-.22-.79,3,3,0,0,1,.21-1.13,1.83,1.83,0,0,1,.56-.8,1.29,1.29,0,0,1,.79-.28M82.29,234a.82.82,0,0,0,.56-.27,1.78,1.78,0,0,0,.46-.69,2.16,2.16,0,0,0,.17-.86.74.74,0,0,0-.15-.49.61.61,0,0,0-.46-.16.81.81,0,0,0-.54.23,1.66,1.66,0,0,0-.4.68,2.71,2.71,0,0,0-.15.91C81.78,233.77,82,234,82.29,234Z" transform="translate(8.64 8.53)"/><path class="cls-20" d="M86.44,231.11a.8.8,0,0,1,.48.14.88.88,0,0,1,.32.41h0l.19-.49h.37l-.68,3.17h-.38l.07-.61h0a1.42,1.42,0,0,1-1.09.67.76.76,0,0,1-.63-.29,1.18,1.18,0,0,1-.23-.79,2.88,2.88,0,0,1,.2-1.11,1.91,1.91,0,0,1,.57-.81,1.21,1.21,0,0,1,.79-.29M85.89,234a.83.83,0,0,0,.56-.26,1.92,1.92,0,0,0,.45-.7,2.25,2.25,0,0,0,.18-.86.68.68,0,0,0-.16-.48.54.54,0,0,0-.43-.17.81.81,0,0,0-.56.24,1.82,1.82,0,0,0-.41.68,2.65,2.65,0,0,0-.14.9.75.75,0,0,0,.13.49A.46.46,0,0,0,85.89,234Z" transform="translate(8.64 8.53)"/><polygon class="cls-20" points="98.64 241.51 98.74 241.06 100.13 241.06 100.03 241.51 98.64 241.51"/><path class="cls-20" d="M96,234.34H93.83l.9-4.23h2.13l-.1.44H95.13l-.29,1.36h1.53l-.09.44H94.75l-.33,1.55h1.64Zm-.47-4.65a4.76,4.76,0,0,0,.36-.44c.14-.18.24-.32.31-.43h.55v.06a5.73,5.73,0,0,1-.41.44,4.57,4.57,0,0,1-.51.45h-.3Z" transform="translate(8.64 8.53)"/><path class="cls-20" d="M100.38,231.12a1.14,1.14,0,0,1,.86.33,1.21,1.21,0,0,1,.32.9,2.52,2.52,0,0,1-.21,1,1.69,1.69,0,0,1-.56.75,1.31,1.31,0,0,1-.81.26,1.14,1.14,0,0,1-.87-.32,1.25,1.25,0,0,1-.31-.9,2.56,2.56,0,0,1,.21-1,1.76,1.76,0,0,1,.57-.75,1.34,1.34,0,0,1,.8-.26m.68,1.16a.8.8,0,0,0-.18-.54.62.62,0,0,0-.49-.21.83.83,0,0,0-.57.22,1.33,1.33,0,0,0-.39.59,2.57,2.57,0,0,0-.14.85.89.89,0,0,0,.19.59.69.69,0,0,0,.53.2.8.8,0,0,0,.54-.21,1.37,1.37,0,0,0,.37-.6A2.72,2.72,0,0,0,101.06,232.28Z" transform="translate(8.64 8.53)"/><path class="cls-20" d="M103.59,234.4a.84.84,0,0,1-.49-.15.91.91,0,0,1-.32-.4h0l-.2.49h-.36l1-4.51h.49c-.1.47-.17.83-.23,1.08s-.12.53-.22.87h0a2.26,2.26,0,0,1,.53-.51,1.12,1.12,0,0,1,.54-.16.78.78,0,0,1,.64.29,1.24,1.24,0,0,1,.23.79,3.18,3.18,0,0,1-.2,1.12,1.9,1.9,0,0,1-.55.8,1.28,1.28,0,0,1-.81.29m.54-2.88a.84.84,0,0,0-.56.27,1.9,1.9,0,0,0-.46.69,2.35,2.35,0,0,0-.17.86.69.69,0,0,0,.16.48.59.59,0,0,0,.47.17.73.73,0,0,0,.53-.23,1.62,1.62,0,0,0,.4-.67,2.77,2.77,0,0,0,.15-.92C104.65,231.74,104.48,231.52,104.13,231.52Z" transform="translate(8.64 8.53)"/><path class="cls-20" d="M107.79,231.11a1.2,1.2,0,0,1,.35,0l-.1.43a1.65,1.65,0,0,0-.31,0,.78.78,0,0,0-.49.18,1.39,1.39,0,0,0-.4.48,2.52,2.52,0,0,0-.26.68l-.3,1.46h-.49l.68-3.17h.4l-.07.58h0a3,3,0,0,1,.35-.39,1.26,1.26,0,0,1,.28-.19.88.88,0,0,1,.33-.06" transform="translate(8.64 8.53)"/><path class="cls-20" d="M108.8,234.34h-.49l.68-3.17h.49Zm.33-4a.39.39,0,0,1,.09-.26.3.3,0,0,1,.24-.1.23.23,0,0,1,.26.26.45.45,0,0,1-.1.27l-.23.11-.19-.07Z" transform="translate(8.64 8.53)"/><path class="cls-20" d="M113,231.17l-.07.31-.61.06a.83.83,0,0,1,.12.46,1.19,1.19,0,0,1-.34.88,1.23,1.23,0,0,1-.9.33l-.25,0c-.26.1-.4.23-.4.38l.1.16.27.06.34,0a1.53,1.53,0,0,1,.76.25.69.69,0,0,1,.24.57.94.94,0,0,1-.42.82,2,2,0,0,1-1.19.29,1.57,1.57,0,0,1-.88-.21.66.66,0,0,1-.32-.6.76.76,0,0,1,.21-.53,1.66,1.66,0,0,1,.67-.38.37.37,0,0,1-.22-.35.45.45,0,0,1,.14-.34,1.71,1.71,0,0,1,.41-.27.69.69,0,0,1-.29-.27.74.74,0,0,1-.12-.42,1.27,1.27,0,0,1,.35-.92,1.16,1.16,0,0,1,.88-.36,1.74,1.74,0,0,1,.45.06Zm-3.08,3.73a.41.41,0,0,0,.19.36,1,1,0,0,0,.55.13,1.5,1.5,0,0,0,.83-.19.57.57,0,0,0,.3-.52.33.33,0,0,0-.16-.28,1.3,1.3,0,0,0-.53-.15l-.47,0a1.09,1.09,0,0,0-.53.25A.6.6,0,0,0,109.93,234.9Zm.8-2.53a.52.52,0,0,0,.13.37.48.48,0,0,0,.36.13.65.65,0,0,0,.4-.12.8.8,0,0,0,.27-.33A1.18,1.18,0,0,0,112,232a.49.49,0,0,0-.13-.37.53.53,0,0,0-.37-.12.65.65,0,0,0-.39.12.75.75,0,0,0-.26.32A1,1,0,0,0,110.73,232.37Z" transform="translate(8.64 8.53)"/><path class="cls-20" d="M114.83,231.11a.79.79,0,0,1,.47.14.88.88,0,0,1,.32.41h0l.19-.49h.37l-.68,3.17h-.38l.07-.61h0a1.42,1.42,0,0,1-1.09.67.76.76,0,0,1-.63-.29,1.24,1.24,0,0,1-.23-.79,2.89,2.89,0,0,1,.21-1.11,1.81,1.81,0,0,1,.56-.81,1.22,1.22,0,0,1,.8-.29m-.56,2.88a.83.83,0,0,0,.56-.26,1.92,1.92,0,0,0,.45-.7,2.25,2.25,0,0,0,.18-.86.68.68,0,0,0-.16-.48.54.54,0,0,0-.43-.17.81.81,0,0,0-.56.24,1.82,1.82,0,0,0-.41.68,2.93,2.93,0,0,0-.14.9.75.75,0,0,0,.13.49A.46.46,0,0,0,114.27,234Z" transform="translate(8.64 8.53)"/><path class="cls-20" d="M117.65,234a1.61,1.61,0,0,0,.41-.08v.38l-.24.07-.23,0a.8.8,0,0,1-.56-.18.63.63,0,0,1-.19-.51,2.37,2.37,0,0,1,0-.43l.37-1.75h-.5l0-.21.54-.22.36-.66H118l-.15.73h.79l-.08.36h-.79l-.37,1.75a2.63,2.63,0,0,0,0,.38.36.36,0,0,0,.08.25.31.31,0,0,0,.24.09" transform="translate(8.64 8.53)"/><path class="cls-20" d="M120.46,231.12a1.15,1.15,0,0,1,.87.33,1.21,1.21,0,0,1,.32.9,2.52,2.52,0,0,1-.21,1,1.69,1.69,0,0,1-.56.75,1.31,1.31,0,0,1-.81.26,1.14,1.14,0,0,1-.87-.32,1.25,1.25,0,0,1-.31-.9,2.56,2.56,0,0,1,.21-1,1.76,1.76,0,0,1,.57-.75,1.34,1.34,0,0,1,.79-.26m.69,1.16a.8.8,0,0,0-.18-.54.62.62,0,0,0-.49-.21.83.83,0,0,0-.57.22,1.33,1.33,0,0,0-.39.59,2.57,2.57,0,0,0-.14.85.89.89,0,0,0,.19.59.69.69,0,0,0,.53.2.8.8,0,0,0,.54-.21,1.37,1.37,0,0,0,.37-.6A2.72,2.72,0,0,0,121.15,232.28Zm-.84-1.61a4.76,4.76,0,0,0,.36-.44c.14-.18.24-.32.31-.43h.55v.06a4.5,4.5,0,0,1-.41.43,3.9,3.9,0,0,1-.51.46h-.3Z" transform="translate(8.64 8.53)"/><path class="cls-20" d="M124.28,231.11a1.2,1.2,0,0,1,.35,0l-.1.43a1.65,1.65,0,0,0-.31,0,.78.78,0,0,0-.49.18,1.39,1.39,0,0,0-.4.48,2.52,2.52,0,0,0-.26.68l-.31,1.46h-.48l.68-3.17h.4l-.07.58h0a3,3,0,0,1,.35-.39,1.26,1.26,0,0,1,.28-.19.88.88,0,0,1,.33-.06" transform="translate(8.64 8.53)"/><path class="cls-20" d="M125.29,234.34h-.49l.68-3.17H126Zm.33-4a.39.39,0,0,1,.09-.26.3.3,0,0,1,.24-.1.23.23,0,0,1,.26.26.45.45,0,0,1-.1.27l-.23.11-.19-.07Z" transform="translate(8.64 8.53)"/><path class="cls-20" d="M128.17,231.11a.79.79,0,0,1,.47.14,1,1,0,0,1,.33.41h0l.19-.49h.37l-.68,3.17h-.38l.07-.61h0a1.41,1.41,0,0,1-1.09.67.76.76,0,0,1-.63-.29,1.24,1.24,0,0,1-.23-.79,2.89,2.89,0,0,1,.21-1.11,1.81,1.81,0,0,1,.56-.81,1.22,1.22,0,0,1,.8-.29m-.55,2.88a.83.83,0,0,0,.55-.26,2.08,2.08,0,0,0,.46-.7,2.44,2.44,0,0,0,.17-.86.68.68,0,0,0-.16-.48.54.54,0,0,0-.43-.17.83.83,0,0,0-.56.24,1.8,1.8,0,0,0-.4.68,2.66,2.66,0,0,0-.15.9.75.75,0,0,0,.13.49A.48.48,0,0,0,127.62,234Z" transform="translate(8.64 8.53)"/><path class="cls-20" d="M133.41,231.11a.8.8,0,0,1,.48.14,1,1,0,0,1,.32.41h0l.2-.49h.37l-.68,3.17h-.38l.07-.61h0a1.42,1.42,0,0,1-1.09.67.79.79,0,0,1-.64-.29,1.24,1.24,0,0,1-.22-.79,2.88,2.88,0,0,1,.2-1.11,1.91,1.91,0,0,1,.57-.81,1.21,1.21,0,0,1,.79-.29m-.55,2.88a.83.83,0,0,0,.56-.26,1.92,1.92,0,0,0,.45-.7,2.25,2.25,0,0,0,.18-.86.69.69,0,0,0-.17-.48.52.52,0,0,0-.42-.17.81.81,0,0,0-.56.24,1.82,1.82,0,0,0-.41.68,2.66,2.66,0,0,0-.15.9.75.75,0,0,0,.14.49A.46.46,0,0,0,132.86,234Z" transform="translate(8.64 8.53)"/><path class="cls-20" d="M138.66,231.11a.77.77,0,0,1,.47.14,1,1,0,0,1,.33.41h0l.19-.49h.37l-.67,3.17H139l.08-.61h0a1.39,1.39,0,0,1-1.09.67.76.76,0,0,1-.63-.29,1.24,1.24,0,0,1-.23-.79,2.89,2.89,0,0,1,.21-1.11,1.81,1.81,0,0,1,.56-.81,1.23,1.23,0,0,1,.8-.29m-.55,2.88a.87.87,0,0,0,.56-.26,2.22,2.22,0,0,0,.45-.7,2.44,2.44,0,0,0,.17-.86.68.68,0,0,0-.16-.48.54.54,0,0,0-.42-.17.83.83,0,0,0-.57.24,1.8,1.8,0,0,0-.4.68,2.66,2.66,0,0,0-.15.9.7.7,0,0,0,.14.49A.45.45,0,0,0,138.11,234Z" transform="translate(8.64 8.53)"/><path class="cls-20" d="M141.91,234.4a.84.84,0,0,1-.49-.15.94.94,0,0,1-.33-.4h0l0,.11,0,.2c0,.09-.12.62-.33,1.6h-.48l1-4.59h.41l-.08.6h0a1.44,1.44,0,0,1,1.08-.66.8.8,0,0,1,.63.28,1.27,1.27,0,0,1,.23.8,3.1,3.1,0,0,1-.2,1.12,1.86,1.86,0,0,1-.56.8,1.23,1.23,0,0,1-.8.29m.54-2.88a.84.84,0,0,0-.56.27,1.78,1.78,0,0,0-.46.69,2.35,2.35,0,0,0-.17.86.65.65,0,0,0,.16.48.59.59,0,0,0,.47.17.75.75,0,0,0,.53-.23,1.73,1.73,0,0,0,.4-.67,2.77,2.77,0,0,0,.15-.92C143,231.74,142.8,231.52,142.45,231.52Z" transform="translate(8.64 8.53)"/><path class="cls-20" d="M146.11,231.11a1.2,1.2,0,0,1,.35,0l-.1.43a1.65,1.65,0,0,0-.31,0,.78.78,0,0,0-.49.18,1.39,1.39,0,0,0-.4.48,2.52,2.52,0,0,0-.26.68l-.31,1.46h-.48l.67-3.17h.41l-.07.58h0a3,3,0,0,1,.35-.39,1.26,1.26,0,0,1,.28-.19.88.88,0,0,1,.33-.06" transform="translate(8.64 8.53)"/><path class="cls-20" d="M147.89,234.4a1.11,1.11,0,0,1-.84-.32,1.21,1.21,0,0,1-.3-.87,2.7,2.7,0,0,1,.21-1.05,2.14,2.14,0,0,1,.57-.78,1.28,1.28,0,0,1,.79-.27,1,1,0,0,1,.66.19.68.68,0,0,1,.23.54.91.91,0,0,1-.48.81,2.62,2.62,0,0,1-1.38.3h-.09l0,.23a.91.91,0,0,0,.18.6.68.68,0,0,0,.55.21,1.65,1.65,0,0,0,.38-.05,2.76,2.76,0,0,0,.48-.2v.43a3.73,3.73,0,0,1-.48.18,2.24,2.24,0,0,1-.46.05m.4-2.88a.77.77,0,0,0-.56.27,1.77,1.77,0,0,0-.4.76h0a2.42,2.42,0,0,0,1-.17.55.55,0,0,0,.36-.5.35.35,0,0,0-.11-.26A.45.45,0,0,0,148.29,231.52Z" transform="translate(8.64 8.53)"/><path class="cls-20" d="M151.69,233.44a.82.82,0,0,1-.32.7,1.4,1.4,0,0,1-.9.26,1.93,1.93,0,0,1-.88-.2v-.46a2,2,0,0,0,.44.19,1.71,1.71,0,0,0,.43.06.86.86,0,0,0,.55-.14.46.46,0,0,0,.18-.37.4.4,0,0,0-.1-.28,2,2,0,0,0-.43-.31,1.83,1.83,0,0,1-.54-.41.86.86,0,0,1,.14-1.13,1.16,1.16,0,0,1,.77-.24,2.23,2.23,0,0,1,.95.21l-.15.4-.16-.07a1.53,1.53,0,0,0-.64-.13.6.6,0,0,0-.42.13.38.38,0,0,0-.16.32.41.41,0,0,0,.11.28,1.76,1.76,0,0,0,.42.3,1.9,1.9,0,0,1,.44.3,1,1,0,0,1,.21.26.88.88,0,0,1,.06.33" transform="translate(8.64 8.53)"/><path class="cls-20" d="M153.71,234.4a1.11,1.11,0,0,1-.84-.32,1.21,1.21,0,0,1-.31-.87,2.71,2.71,0,0,1,.22-1.05,1.93,1.93,0,0,1,.57-.78,1.28,1.28,0,0,1,.79-.27,1,1,0,0,1,.66.19.68.68,0,0,1,.23.54.9.9,0,0,1-.49.81,2.58,2.58,0,0,1-1.37.3h-.1v.23a.91.91,0,0,0,.18.6.68.68,0,0,0,.55.21,1.73,1.73,0,0,0,.38-.05,2.76,2.76,0,0,0,.48-.2v.43a3.73,3.73,0,0,1-.48.18,2.24,2.24,0,0,1-.46.05m.4-2.88a.77.77,0,0,0-.56.27,1.77,1.77,0,0,0-.4.76h0a2.42,2.42,0,0,0,1-.17.53.53,0,0,0,.35-.5.34.34,0,0,0-.1-.26A.45.45,0,0,0,154.11,231.52Z" transform="translate(8.64 8.53)"/><path class="cls-20" d="M157.49,234.34l.43-2a2.67,2.67,0,0,0,.06-.42.39.39,0,0,0-.1-.29.41.41,0,0,0-.33-.11.82.82,0,0,0-.5.17,1.62,1.62,0,0,0-.44.49,3.1,3.1,0,0,0-.28.78l-.29,1.38h-.49l.68-3.17h.4l-.06.58h0a1.9,1.9,0,0,1,.54-.5,1.13,1.13,0,0,1,.53-.14.77.77,0,0,1,.58.2.7.7,0,0,1,.22.56,2.67,2.67,0,0,1-.07.52l-.41,2Z" transform="translate(8.64 8.53)"/><path class="cls-20" d="M160.13,234a1.61,1.61,0,0,0,.41-.08v.38l-.24.07-.23,0a.76.76,0,0,1-.55-.18.63.63,0,0,1-.2-.51,2.37,2.37,0,0,1,.05-.43l.37-1.75h-.5l0-.21.54-.22.36-.66h.29l-.16.73h.79l-.08.36h-.79l-.37,1.75a2.63,2.63,0,0,0-.05.38.36.36,0,0,0,.08.25.32.32,0,0,0,.24.09" transform="translate(8.64 8.53)"/><path class="cls-20" d="M162.93,231.11a.8.8,0,0,1,.48.14,1,1,0,0,1,.32.41h0l.2-.49h.37l-.68,3.17h-.38l.07-.61h0a1.42,1.42,0,0,1-1.09.67.76.76,0,0,1-.63-.29,1.18,1.18,0,0,1-.23-.79,3.08,3.08,0,0,1,.2-1.11,1.91,1.91,0,0,1,.57-.81,1.21,1.21,0,0,1,.79-.29m-.55,2.88a.83.83,0,0,0,.56-.26,1.92,1.92,0,0,0,.45-.7,2.25,2.25,0,0,0,.18-.86.73.73,0,0,0-.16-.48.56.56,0,0,0-.43-.17.81.81,0,0,0-.56.24,1.82,1.82,0,0,0-.41.68,2.65,2.65,0,0,0-.14.9.75.75,0,0,0,.13.49A.46.46,0,0,0,162.38,234Z" transform="translate(8.64 8.53)"/><path class="cls-20" d="M166.08,234.4a1.08,1.08,0,0,1-1.19-1.19,2.73,2.73,0,0,1,.22-1.07,1.82,1.82,0,0,1,.59-.76,1.43,1.43,0,0,1,.85-.27,2.16,2.16,0,0,1,.78.15l-.14.4a1.76,1.76,0,0,0-.63-.14.91.91,0,0,0-.6.22,1.57,1.57,0,0,0-.42.61,2.43,2.43,0,0,0-.15.86.86.86,0,0,0,.19.58.69.69,0,0,0,.54.2,1.67,1.67,0,0,0,.39-.05l.36-.14v.41a1.62,1.62,0,0,1-.79.19m.24.74a.51.51,0,0,1-.23.45,1,1,0,0,1-.62.17l-.25,0v-.29h.2c.33,0,.5-.1.5-.31l-.11-.2a.77.77,0,0,0-.29-.08l.29-.53h.31l-.17.35A.44.44,0,0,1,166.32,235.14Z" transform="translate(8.64 8.53)"/><path class="cls-20" d="M169.31,231.11a.77.77,0,0,1,.47.14,1,1,0,0,1,.33.41h0l.19-.49h.37l-.67,3.17h-.39l.08-.61h0a1.41,1.41,0,0,1-1.09.67.76.76,0,0,1-.63-.29,1.24,1.24,0,0,1-.23-.79,2.89,2.89,0,0,1,.21-1.11,1.83,1.83,0,0,1,.57-.81,1.19,1.19,0,0,1,.79-.29m-.55,2.88a.87.87,0,0,0,.56-.26,2.22,2.22,0,0,0,.45-.7,2.44,2.44,0,0,0,.17-.86.68.68,0,0,0-.16-.48.54.54,0,0,0-.42-.17.79.79,0,0,0-.56.24,1.7,1.7,0,0,0-.41.68,2.66,2.66,0,0,0-.15.9.75.75,0,0,0,.14.49A.46.46,0,0,0,168.76,234Zm1.18-3.25-.23-.05-.21-.11-.2-.12-.19-.05-.2.08a1,1,0,0,0-.14.26h-.29c.12-.5.34-.75.67-.75l.24.05.22.11.19.12.17.05.2-.08a.85.85,0,0,0,.15-.26h.29C170.48,230.49,170.26,230.74,169.94,230.74Z" transform="translate(8.64 8.53)"/><path class="cls-20" d="M172.85,231.12a1.16,1.16,0,0,1,.87.33,1.25,1.25,0,0,1,.32.9,2.52,2.52,0,0,1-.21,1,1.71,1.71,0,0,1-.57.75,1.28,1.28,0,0,1-.8.26,1.14,1.14,0,0,1-.87-.32,1.21,1.21,0,0,1-.32-.9,2.56,2.56,0,0,1,.21-1,1.76,1.76,0,0,1,.57-.75,1.36,1.36,0,0,1,.8-.26m.68,1.16a.8.8,0,0,0-.18-.54.61.61,0,0,0-.49-.21.83.83,0,0,0-.57.22,1.52,1.52,0,0,0-.39.59,2.57,2.57,0,0,0-.13.85.89.89,0,0,0,.18.59.69.69,0,0,0,.53.2.8.8,0,0,0,.54-.21,1.38,1.38,0,0,0,.38-.6A2.73,2.73,0,0,0,173.53,232.28Z" transform="translate(8.64 8.53)"/><path class="cls-20" d="M178.06,231.11a.86.86,0,0,1,.81.55h0a6.85,6.85,0,0,1,.13-.79l.23-1h.48l-1,4.51h-.4l.06-.61h0a2.16,2.16,0,0,1-.55.52,1,1,0,0,1-.52.15.76.76,0,0,1-.63-.29,1.24,1.24,0,0,1-.23-.79,3,3,0,0,1,.21-1.13,2,2,0,0,1,.56-.8,1.32,1.32,0,0,1,.8-.28m-.55,2.88a.84.84,0,0,0,.56-.27,1.9,1.9,0,0,0,.46-.69,2.35,2.35,0,0,0,.17-.86.69.69,0,0,0-.16-.49.58.58,0,0,0-.45-.16.82.82,0,0,0-.55.23,1.78,1.78,0,0,0-.4.68,2.71,2.71,0,0,0-.15.91C177,233.77,177.16,234,177.51,234Z" transform="translate(8.64 8.53)"/><path class="cls-20" d="M181.66,231.11a.77.77,0,0,1,.47.14,1,1,0,0,1,.33.41h0l.19-.49h.37l-.67,3.17H182l.08-.61h0a1.39,1.39,0,0,1-1.09.67.76.76,0,0,1-.63-.29,1.24,1.24,0,0,1-.23-.79,2.89,2.89,0,0,1,.21-1.11,1.83,1.83,0,0,1,.57-.81,1.19,1.19,0,0,1,.79-.29m-.55,2.88a.85.85,0,0,0,.56-.26,2.22,2.22,0,0,0,.45-.7,2.44,2.44,0,0,0,.17-.86.68.68,0,0,0-.16-.48.54.54,0,0,0-.42-.17.83.83,0,0,0-.57.24,1.8,1.8,0,0,0-.4.68,2.66,2.66,0,0,0-.15.9.75.75,0,0,0,.14.49A.46.46,0,0,0,181.11,234Z" transform="translate(8.64 8.53)"/><path class="cls-20" d="M185.71,234.34h-.48l.67-3.17h.49Zm.33-4a.39.39,0,0,1,.09-.26.3.3,0,0,1,.24-.1.23.23,0,0,1,.26.26.45.45,0,0,1-.1.27l-.22.11-.2-.07Z" transform="translate(8.64 8.53)"/><path class="cls-20" d="M188.59,231.11a.86.86,0,0,1,.81.55h0a6.85,6.85,0,0,1,.13-.79l.23-1h.48l-1,4.51h-.4l.06-.61h0a2.16,2.16,0,0,1-.55.52,1,1,0,0,1-.52.15.76.76,0,0,1-.63-.29,1.24,1.24,0,0,1-.23-.79,3,3,0,0,1,.21-1.13,2,2,0,0,1,.56-.8,1.3,1.3,0,0,1,.8-.28M188,234a.84.84,0,0,0,.56-.27,1.9,1.9,0,0,0,.46-.69,2.35,2.35,0,0,0,.17-.86.69.69,0,0,0-.16-.49.58.58,0,0,0-.45-.16.82.82,0,0,0-.55.23,1.78,1.78,0,0,0-.4.68,2.71,2.71,0,0,0-.15.91C187.52,233.77,187.69,234,188,234Z" transform="translate(8.64 8.53)"/><path class="cls-20" d="M191.76,234.4a1.1,1.1,0,0,1-.83-.32,1.17,1.17,0,0,1-.31-.87,2.54,2.54,0,0,1,.22-1.05,1.93,1.93,0,0,1,.57-.78,1.27,1.27,0,0,1,.78-.27,1,1,0,0,1,.67.19.67.67,0,0,1,.22.54.91.91,0,0,1-.48.81,2.6,2.6,0,0,1-1.37.3h-.1v.23a.91.91,0,0,0,.18.6.68.68,0,0,0,.55.21,1.57,1.57,0,0,0,.37-.05,2.76,2.76,0,0,0,.48-.2v.43a3.73,3.73,0,0,1-.48.18,2.16,2.16,0,0,1-.46.05m.41-2.88a.77.77,0,0,0-.56.27,1.9,1.9,0,0,0-.41.76h0a2.42,2.42,0,0,0,1-.17.55.55,0,0,0,.35-.5.34.34,0,0,0-.1-.26A.45.45,0,0,0,192.17,231.52Z" transform="translate(8.64 8.53)"/><path class="cls-20" d="M195.55,234.34l.43-2a2.67,2.67,0,0,0,.06-.42.44.44,0,0,0-.1-.29.41.41,0,0,0-.33-.11.84.84,0,0,0-.51.17,1.74,1.74,0,0,0-.43.49,2.75,2.75,0,0,0-.28.78l-.29,1.38h-.49l.68-3.17h.4l-.06.58h0a2,2,0,0,1,.53-.5,1.21,1.21,0,0,1,.54-.14.77.77,0,0,1,.58.2.73.73,0,0,1,.21.56,2.59,2.59,0,0,1-.06.52l-.42,2Z" transform="translate(8.64 8.53)"/><path class="cls-20" d="M198.18,234a1.59,1.59,0,0,0,.42-.08v.38l-.24.07-.23,0a.79.79,0,0,1-.56-.18.63.63,0,0,1-.19-.51,2.37,2.37,0,0,1,.05-.43l.37-1.75h-.5l0-.21.54-.22.36-.66h.28l-.16.73h.8l-.08.36h-.79l-.37,1.75a1.7,1.7,0,0,0,0,.38.32.32,0,0,0,.08.25.29.29,0,0,0,.23.09" transform="translate(8.64 8.53)"/><path class="cls-20" d="M199.8,234.34h-.49l.68-3.17h.48Zm.32-4a.4.4,0,0,1,.1-.26.3.3,0,0,1,.24-.1c.17,0,.25.08.25.26a.39.39,0,0,1-.1.27l-.22.11-.19-.07Z" transform="translate(8.64 8.53)"/><path class="cls-20" d="M202.67,231.11a.86.86,0,0,1,.82.55h0a5.2,5.2,0,0,1,.13-.79l.22-1h.48l-.95,4.51H203l.06-.61h0a2.34,2.34,0,0,1-.55.52,1,1,0,0,1-.53.15.76.76,0,0,1-.63-.29,1.24,1.24,0,0,1-.22-.79,3,3,0,0,1,.21-1.13,1.83,1.83,0,0,1,.56-.8,1.29,1.29,0,0,1,.79-.28m-.55,2.88a.86.86,0,0,0,.57-.27,1.88,1.88,0,0,0,.45-.69,2.16,2.16,0,0,0,.17-.86.74.74,0,0,0-.15-.49.61.61,0,0,0-.46-.16.81.81,0,0,0-.54.23,1.66,1.66,0,0,0-.4.68,2.71,2.71,0,0,0-.15.91C201.61,233.77,201.78,234,202.12,234Z" transform="translate(8.64 8.53)"/><path class="cls-20" d="M206.27,231.11a.8.8,0,0,1,.48.14,1,1,0,0,1,.32.41h0l.2-.49h.37l-.68,3.17h-.38l.07-.61h0a1.42,1.42,0,0,1-1.09.67.76.76,0,0,1-.63-.29,1.18,1.18,0,0,1-.23-.79,3.08,3.08,0,0,1,.2-1.11,1.91,1.91,0,0,1,.57-.81,1.21,1.21,0,0,1,.79-.29m-.55,2.88a.83.83,0,0,0,.56-.26,1.92,1.92,0,0,0,.45-.7,2.25,2.25,0,0,0,.18-.86.69.69,0,0,0-.17-.48.52.52,0,0,0-.42-.17.81.81,0,0,0-.56.24,1.82,1.82,0,0,0-.41.68,2.65,2.65,0,0,0-.14.9.75.75,0,0,0,.13.49A.46.46,0,0,0,205.72,234Z" transform="translate(8.64 8.53)"/><path class="cls-20" d="M209.8,231.11a.86.86,0,0,1,.82.55h0c0-.3.08-.56.13-.79l.23-1h.48l-1,4.51h-.4l.07-.61h0a2.14,2.14,0,0,1-.54.52,1,1,0,0,1-.53.15.76.76,0,0,1-.63-.29,1.24,1.24,0,0,1-.22-.79,3.15,3.15,0,0,1,.2-1.13,1.94,1.94,0,0,1,.57-.8,1.27,1.27,0,0,1,.79-.28m-.55,2.88a.84.84,0,0,0,.56-.27,1.78,1.78,0,0,0,.46-.69,2.35,2.35,0,0,0,.17-.86.74.74,0,0,0-.15-.49.61.61,0,0,0-.46-.16.79.79,0,0,0-.54.23,1.66,1.66,0,0,0-.4.68,2.49,2.49,0,0,0-.16.91C208.73,233.77,208.91,234,209.25,234Z" transform="translate(8.64 8.53)"/><path class="cls-20" d="M213,234.4a1.11,1.11,0,0,1-.84-.32,1.21,1.21,0,0,1-.3-.87,2.7,2.7,0,0,1,.21-1.05,2.14,2.14,0,0,1,.57-.78,1.28,1.28,0,0,1,.79-.27,1,1,0,0,1,.66.19.68.68,0,0,1,.23.54.91.91,0,0,1-.48.81,2.62,2.62,0,0,1-1.38.3h-.1v.23a.91.91,0,0,0,.18.6.68.68,0,0,0,.55.21,1.65,1.65,0,0,0,.38-.05,2.76,2.76,0,0,0,.48-.2v.43a4.37,4.37,0,0,1-.48.18,2.24,2.24,0,0,1-.46.05m.4-2.88a.77.77,0,0,0-.56.27,1.77,1.77,0,0,0-.4.76h0a2.42,2.42,0,0,0,1-.17.55.55,0,0,0,.36-.5.35.35,0,0,0-.11-.26A.45.45,0,0,0,213.38,231.52Z" transform="translate(8.64 8.53)"/><g id="ANS_n_" data-name="ANS nº"><rect class="cls-21" x="19.76" y="316.45" width="63.75" height="13.29"/><path class="cls-18" d="M73.71,320.25H12.29V309H73.71Zm-61-.47h60.5V309.49H12.75Z" transform="translate(8.64 8.53)"/><path class="cls-18" d="M19.55,316.81H18.36L18,315.9H16.39l-.32.91H14.91l1.65-4.49H17.9Zm-1.78-1.73-.55-1.61-.56,1.61Z" transform="translate(8.64 8.53)"/><polygon class="cls-18" points="32.91 325.34 31.8 325.34 29.9 322.26 29.9 325.34 28.84 325.34 28.84 320.85 30.22 320.85 31.85 323.42 31.85 320.85 32.91 320.85 32.91 325.34"/><path class="cls-18" d="M29,315.4a1.26,1.26,0,0,1-.57,1.07,2.47,2.47,0,0,1-1.52.42,4.52,4.52,0,0,1-1-.1,5.49,5.49,0,0,1-.78-.25v-1.07h.13a3,3,0,0,0,.8.44,2.69,2.69,0,0,0,.86.15l.27,0a.9.9,0,0,0,.28-.06l.22-.13a.33.33,0,0,0,.09-.25.34.34,0,0,0-.13-.25.75.75,0,0,0-.36-.16l-.54-.12a4.11,4.11,0,0,1-.53-.13,1.59,1.59,0,0,1-.81-.5,1.26,1.26,0,0,1,.31-1.8,2.44,2.44,0,0,1,1.45-.4,4.28,4.28,0,0,1,.87.09,4,4,0,0,1,.75.21v1H28.7a2.32,2.32,0,0,0-.66-.37,2.45,2.45,0,0,0-.8-.14,1.42,1.42,0,0,0-.29,0,.89.89,0,0,0-.28.07l-.2.14-.08.21a.31.31,0,0,0,.13.27A1.63,1.63,0,0,0,27,314l.47.1.49.13a1.73,1.73,0,0,1,.76.46,1.18,1.18,0,0,1,.25.76" transform="translate(8.64 8.53)"/><rect class="cls-18" x="38.2" y="322.91" width="2.3" height="0.87"/><path class="cls-18" d="M36.09,316.81H35v-1.68c0-.14,0-.27,0-.41a.92.92,0,0,0-.08-.3l-.17-.16a1,1,0,0,0-.33-.05.79.79,0,0,0-.3.05,1.55,1.55,0,0,0-.33.15v2.4H32.7v-3.39h1.08v.38a3,3,0,0,1,.56-.35,1.41,1.41,0,0,1,.59-.12,1.17,1.17,0,0,1,.86.32,1.35,1.35,0,0,1,.3,1Z" transform="translate(8.64 8.53)"/><path class="cls-18" d="M39.88,313.67a1.45,1.45,0,0,1-.38,1.05,1.72,1.72,0,0,1-2.16,0,1.45,1.45,0,0,1-.38-1.05,1.43,1.43,0,0,1,.39-1.06,1.46,1.46,0,0,1,1.07-.38,1.33,1.33,0,0,1,1.46,1.44m-1.05.66a1,1,0,0,0,.12-.25,1.35,1.35,0,0,0,0-.41,1.46,1.46,0,0,0,0-.39.85.85,0,0,0-.12-.27l-.18-.14-.23,0-.22,0L38,313a.7.7,0,0,0-.12.26,1.64,1.64,0,0,0,0,.41,1.49,1.49,0,0,0,0,.4.83.83,0,0,0,.12.25l.17.14a.87.87,0,0,0,.25,0l.22,0Z" transform="translate(8.64 8.53)"/><path class="cls-18" d="M46.51,315.77H45.9v1.05H44.79v-1.05H42.62v-.85l2.1-2.6H45.9V315h.61ZM44.79,315v-1.62L43.49,315Z" transform="translate(8.64 8.53)"/><path class="cls-18" d="M50.55,316.81h-3V316h.94v-2.37h-.94v-.73l.41,0a1.31,1.31,0,0,0,.33-.09.54.54,0,0,0,.24-.2.66.66,0,0,0,.09-.3h1V316h.92Z" transform="translate(8.64 8.53)"/><path class="cls-18" d="M55.21,315.28a1.57,1.57,0,0,1-.13.65,1.41,1.41,0,0,1-.35.51,1.63,1.63,0,0,1-.57.34,2.11,2.11,0,0,1-.75.12,2.38,2.38,0,0,1-.73-.11,1.36,1.36,0,0,1-.57-.34,1.5,1.5,0,0,1-.42-.66,2.88,2.88,0,0,1-.15-1,3.66,3.66,0,0,1,.14-1.05,2.13,2.13,0,0,1,.44-.81,1.85,1.85,0,0,1,.77-.52,2.92,2.92,0,0,1,1.12-.19l.48,0,.34,0v.89h-.11a1.31,1.31,0,0,0-.28-.09,1.52,1.52,0,0,0-.44-.05,1.29,1.29,0,0,0-.9.28,1.22,1.22,0,0,0-.39.79,2.16,2.16,0,0,1,.49-.22,1.69,1.69,0,0,1,.56-.09,1.86,1.86,0,0,1,.48.06,1.33,1.33,0,0,1,.42.19,1.31,1.31,0,0,1,.4.47,1.62,1.62,0,0,1,.15.74m-1.37.68a1,1,0,0,0,.15-.24,1.09,1.09,0,0,0,0-.39A1,1,0,0,0,54,315a.59.59,0,0,0-.43-.34l-.3,0-.28,0-.27.08V315a2.09,2.09,0,0,0,.07.61,1,1,0,0,0,.2.37l.2.13.25.05.22-.05Z" transform="translate(8.64 8.53)"/><path class="cls-18" d="M59.66,315.77h-.61v1.05H58v-1.05H55.78v-.85l2.1-2.6h1.17V315h.61ZM58,315v-1.62L56.64,315Z" transform="translate(8.64 8.53)"/><path class="cls-18" d="M64,314.56a4.52,4.52,0,0,1-.1,1,1.88,1.88,0,0,1-.32.73,1.46,1.46,0,0,1-.57.44,2.17,2.17,0,0,1-.86.15,2.21,2.21,0,0,1-.86-.15,1.28,1.28,0,0,1-.57-.45,1.89,1.89,0,0,1-.33-.73,5,5,0,0,1-.1-1,4.34,4.34,0,0,1,.11-1,2,2,0,0,1,.32-.73,1.34,1.34,0,0,1,.58-.44,2.51,2.51,0,0,1,1.71,0,1.31,1.31,0,0,1,.58.46,2,2,0,0,1,.32.72,5,5,0,0,1,.09,1m-1.16,0a3,3,0,0,0-.16-1.16.58.58,0,0,0-1.06,0,4.28,4.28,0,0,0,0,2.32.58.58,0,0,0,1.06,0A3.18,3.18,0,0,0,62.79,314.56Z" transform="translate(8.64 8.53)"/><rect class="cls-18" x="73.26" y="322.91" width="2.3" height="0.87"/><path class="cls-18" d="M71.05,316.81h-3V316h1v-2.37h-1v-.73l.42,0a1.31,1.31,0,0,0,.33-.09.57.57,0,0,0,.23-.2.49.49,0,0,0,.09-.3h1V316h.93Z" transform="translate(8.64 8.53)"/></g><text class="cls-22" transform="translate(31.62 199.07)"><tspan class="cls-23">C</tspan><tspan x="3.15" y="0">aixa de </tspan><tspan class="cls-24" x="20.48" y="0">A</tspan><tspan x="23.81" y="0">ssis</tspan><tspan class="cls-24" x="31.63" y="0">t</tspan><tspan x="33.42" y="0">ência dos Emp</tspan><tspan class="cls-25" x="66.68" y="0">r</tspan><tspan x="68.43" y="0">egados da Emp</tspan><tspan class="cls-25" x="103.71" y="0">r</tspan><tspan x="105.46" y="0">esa B</tspan><tspan class="cls-26" x="117.19" y="0">r</tspan><tspan x="118.96" y="0">asilei</tspan><tspan class="cls-27" x="130.42" y="0">r</tspan><tspan x="132.19" y="0">a de </tspan><tspan class="cls-28" x="143.03" y="0">P</tspan><tspan x="145.82" y="0">esquisa </tspan><tspan class="cls-29" x="164.16" y="0">A</tspan><tspan class="cls-24" x="167.46" y="0">g</tspan><tspan class="cls-25" x="170.5" y="0">r</tspan><tspan x="172.25" y="0">opecuá</tspan><tspan class="cls-30" x="189.3" y="0">r</tspan><tspan x="191.12" y="0">ia</tspan></text><text class="cls-31" transform="translate(19.76 266.25)"><tspan class="cls-32">C</tspan><tspan x="3.13" y="0">e</tspan><tspan class="cls-33" x="5.88" y="0">n</tspan><tspan x="8.92" y="0">t</tspan><tspan class="cls-27" x="10.74" y="0">r</tspan><tspan x="12.51" y="0">al de </tspan><tspan class="cls-34" x="24.65" y="0">R</tspan><tspan x="27.63" y="0">elacioname</tspan><tspan class="cls-33" x="54.15" y="0">n</tspan><tspan class="cls-24" x="57.18" y="0">t</tspan><tspan x="58.97" y="0">o:</tspan></text><text class="cls-35" transform="translate(160.64 302.23)"><tspan class="cls-36">ww</tspan><tspan class="cls-37" x="9.13" y="0">w</tspan><tspan x="13.38" y="0">.casemb</tspan><tspan class="cls-38" x="34.34" y="0">r</tspan><tspan x="36.31" y="0">apa.</tspan><tspan class="cls-39" x="46.92" y="0">c</tspan><tspan x="49.62" y="0">om.br</tspan></text><text class="cls-40" transform="translate(19.76 273.27)">Dist<tspan class="cls-34" x="7.32" y="0">r</tspan><tspan x="8.81" y="0">i</tspan><tspan class="cls-41" x="9.86" y="0">t</tspan><tspan x="11.33" y="0">o </tspan><tspan class="cls-42" x="14.75" y="0">F</tspan><tspan x="16.8" y="0">ede</tspan><tspan class="cls-43" x="23.85" y="0">r</tspan><tspan x="25.3" y="0">al: 61 3181-0010</tspan><tspan class="cls-34" x="0" y="5.4">D</tspan><tspan x="3.01" y="5.4">emais estados: 0800 940 5560</tspan></text><text class="cls-31" transform="translate(19.76 292.1)"><tspan class="cls-44">O</tspan><tspan x="3.81" y="0">uvido</tspan><tspan class="cls-34" x="16.89" y="0">r</tspan><tspan x="18.71" y="0">ia</tspan></text><text class="cls-40" transform="translate(19.76 299.12)">Dist<tspan class="cls-34" x="7.32" y="0">r</tspan><tspan x="8.81" y="0">i</tspan><tspan class="cls-41" x="9.86" y="0">t</tspan><tspan x="11.33" y="0">o </tspan><tspan class="cls-42" x="14.75" y="0">F</tspan><tspan x="16.8" y="0">ede</tspan><tspan class="cls-43" x="23.85" y="0">r</tspan><tspan x="25.3" y="0">al: 61 3181-0010 / Opção 3</tspan><tspan class="cls-34" x="0" y="5.4">D</tspan><tspan x="3.01" y="5.4">emais estados: 0800 940 5560 / Opção 3</tspan></text><path class="cls-45" d="M164.05,311a13.18,13.18,0,0,0,.65,1.67c.12.26.26.5.4.74s.35.52.46.73c0,0,0,.08.11,0a20.18,20.18,0,0,0,1.67-2.54,5.78,5.78,0,0,0,.87-2.43,10.79,10.79,0,0,0,0-1.14,11.1,11.1,0,0,0-.87-3.57,11.43,11.43,0,0,0-1.2-2.11,5.8,5.8,0,0,1-.49-.65c-.28.07-1,1.63-1.1,1.83a10.11,10.11,0,0,0-.92,3.53A10.73,10.73,0,0,0,164.05,311Z" transform="translate(8.64 8.53)"/><path class="cls-46" d="M158.23,307.7a1.18,1.18,0,0,1,.25-.31,11.28,11.28,0,0,0,1.68-2.59c-.23-.27-3.43-.28-4-.19-.34.05-.66.06-1,.13a10.1,10.1,0,0,0-2.52,1.56,10.77,10.77,0,0,0-2.79,3.53,6.31,6.31,0,0,0-.46,1.21,13.85,13.85,0,0,0,1.46,0,11.28,11.28,0,0,0,3.76-.85A11.77,11.77,0,0,0,158.23,307.7Z" transform="translate(8.64 8.53)"/><path class="cls-47" d="M154.79,314.14c-.08.12.14.52.24.74a16.8,16.8,0,0,0,1.14,2.16,4.87,4.87,0,0,0,2.15,2.22,10.72,10.72,0,0,0,5.2,1.33,9.39,9.39,0,0,0,1.54-.09c.17,0,.34-.06.5-.07a8.85,8.85,0,0,0-1.22-2.09,11.72,11.72,0,0,0-1.18-1.31,1.8,1.8,0,0,0-.21-.19,14.6,14.6,0,0,0-1.19-.93,11,11,0,0,0-3.51-1.52c-.25,0-.55-.11-.83-.15a7.42,7.42,0,0,0-.84-.1A15.27,15.27,0,0,0,154.79,314.14Z" transform="translate(8.64 8.53)"/><path class="cls-48" d="M158.23,307.7a3.9,3.9,0,0,1,.36.43,9.09,9.09,0,0,1,1,1.5c.18.37.43.75.18,1.22s-.58.44-1,.62a11.41,11.41,0,0,0-2.14,1.13c-.44.3-.55.42-.92.71a4.14,4.14,0,0,0-.84.83,15.27,15.27,0,0,1,1.79,0,7.42,7.42,0,0,1,.84.1c.28,0,.58.13.83.15a10.41,10.41,0,0,1,1-2.15c.22-.35.38-.64.87-.72s.78.28,1.07.51a10.58,10.58,0,0,0,3.06,1.75,6,6,0,0,0,1.27.36c-.11-.21-.32-.49-.46-.73s-.28-.48-.4-.74a13.18,13.18,0,0,1-.65-1.67,11,11,0,0,1-1.84.21,6.86,6.86,0,0,1-1.23-.11c-.86-.31-.46-1.32-.4-2a10.91,10.91,0,0,0,0-2,10.2,10.2,0,0,0-.35-2.06l0-.13-.08-.14a11.28,11.28,0,0,1-1.68,2.59A1.18,1.18,0,0,0,158.23,307.7Z" transform="translate(8.64 8.53)"/><path class="cls-49" d="M218.92,312.8v8.4c1.22,0,1,.23,1-1.1v-1.26a4.94,4.94,0,0,0,2.31.14,2.57,2.57,0,0,0,2-2.46,6.27,6.27,0,0,0,0-1.62,2.67,2.67,0,0,0-2.87-2.51,6.06,6.06,0,0,0-2,.24c-.16.05-.3.13-.45.17Zm.93,2.9v-2.31s3.41-1.23,3.41,2.31c0,3.81-3.41,2.38-3.41,2.38Z" transform="translate(8.64 8.53)"/><path class="cls-49" d="M202.64,318.59c.13,0,.32.12.46.16a5.26,5.26,0,0,0,3.14,0,2.18,2.18,0,0,0,.94-.65c1-1.05,1.58-5.8-1.89-5.8a3.92,3.92,0,0,0-1.71.41V310h-.94v8.57Zm.89-3v-2.24s3.58-1.56,3.41,2.24c.17,3.55-3.41,2.38-3.41,2.38Z" transform="translate(8.64 8.53)"/><path class="cls-49" d="M175.27,312.59a3.65,3.65,0,0,0,.12.78,9.39,9.39,0,0,1,2.41-.25,1.06,1.06,0,0,1,1,.64,5.94,5.94,0,0,1,.07,1.65c-.84-.41-4.35-.84-4.09,1.88a1.8,1.8,0,0,0,.25.82c.79,1.14,3,1,4.28.64a4.58,4.58,0,0,1,.54-.16c0-1.41,0-2.83,0-4.24a2.82,2.82,0,0,0-.14-.92c-.62-1.58-3.19-1.14-4.47-.84Zm3.66,4.46v1.06s-3.24.92-3.24-1.06,3.24-1.06,3.24-1.06Z" transform="translate(8.64 8.53)"/><path class="cls-49" d="M213.29,312.59c0,.27.1.49.12.74a6.71,6.71,0,0,0,.9-.12c3-.42,2.61.49,2.61,2.2a4.82,4.82,0,0,0-2-.29c-1,0-2.12.6-2.12,1.68a2.11,2.11,0,0,0,.25,1.3c.63,1,2.58,1,3.68.79.21,0,.4-.08.57-.13s.36-.12.56-.17c0-1.41,0-2.83,0-4.24a1.72,1.72,0,0,0-1.27-1.91,7.8,7.8,0,0,0-3.34.15Zm3.61,4.46v1.06s-3.24.92-3.24-1.06S216.9,316,216.9,316Z" transform="translate(8.64 8.53)"/><path class="cls-49" d="M225.28,312.59c0,.27.11.49.13.74.45,0,1.09-.21,1.83-.21s1.35-.06,1.62.63a6.2,6.2,0,0,1,.1,1.66,4.85,4.85,0,0,0-2-.29,1.9,1.9,0,0,0-2.12,1.76,1.7,1.7,0,0,0,.79,1.74,5.7,5.7,0,0,0,3.7.14c.22-.05.36-.12.56-.17v-4.24c0-1.39-.72-2-2.2-2a11.9,11.9,0,0,0-2.41.28Zm3.7,4.46v1.06s-3.24.92-3.24-1.06S229,316,229,316Z" transform="translate(8.64 8.53)"/><path class="cls-49" d="M192.65,312.92v6h.94v-5.31c0-.2.57-.29.73-.32a3.48,3.48,0,0,1,.91-.1,1.78,1.78,0,0,1,.87.19.76.76,0,0,1,.42.68v4.86h.94v-5.14c0-.33,2-1.07,2.65-.13a1.83,1.83,0,0,1,.29,1v4.29c.57,0,1,.08,1-.13V315a2.74,2.74,0,0,0-.58-2l-.08-.09a3.13,3.13,0,0,0-3.22-.25,4,4,0,0,1-.49.21,2.71,2.71,0,0,0-1.83-.53,6.2,6.2,0,0,0-2,.38C193,312.76,192.85,312.87,192.65,312.92Z" transform="translate(8.64 8.53)"/><path class="cls-49" d="M186.32,315.41a3.64,3.64,0,0,0,.77,2.78,2,2,0,0,0,.91.6,7,7,0,0,0,3.59-.08,3.07,3.07,0,0,0-.13-.73,11.7,11.7,0,0,1-1.63.2c-.74,0-1.55.06-2.05-.56a2.72,2.72,0,0,1-.44-1.72h4.21a4.23,4.23,0,0,0-.63-2.8,2.78,2.78,0,0,0-3.95.06,3.69,3.69,0,0,0-.65,2.25Zm1-.14s-.1-2.21,1.7-2.13c1.8-.08,1.71,2.13,1.71,2.13h-3.41Z" transform="translate(8.64 8.53)"/><path class="cls-49" d="M181,313.9c0,2.34,3.55,1.42,3.55,3.26,0,1.63-2.74.9-3.59.9,0,.25-.07.47-.08.69A9.72,9.72,0,0,0,183,319a3.67,3.67,0,0,0,1.68-.36,1.92,1.92,0,0,0,.59-2.44c-.79-1.42-3.33-1.14-3.33-2.18v-.2c0-.82,1.27-.74,1.92-.74a7.2,7.2,0,0,1,1.24.15c.13,0,.11,0,.14-.11s.06-.45.06-.52.14-.09-.31-.16C183.68,312.23,181,312,181,313.9Z" transform="translate(8.64 8.53)"/><path class="cls-49" d="M172.37,319a12.46,12.46,0,0,0,1.71-.16c0-.12-.05-.32-.06-.43-.05-.41,0-.31-.43-.27h-.23c-.82.11-1.92.08-2.38-.66s-.88-4.37,1.31-4.37a5.59,5.59,0,0,1,1.08.06,3.06,3.06,0,0,0,.59.11,4.57,4.57,0,0,1,.12-.74,8.07,8.07,0,0,0-1.75-.24,2.56,2.56,0,0,0-2.69,2.61,4.74,4.74,0,0,0,.59,3.16A2.58,2.58,0,0,0,172.37,319Z" transform="translate(8.64 8.53)"/><path class="cls-49" d="M209,312.88v6h.93v-5.55a4.58,4.58,0,0,1,1.6-.21c.33,0,.53.09.81.09a3.92,3.92,0,0,0,.16-.74,7.37,7.37,0,0,0-1.34-.16C210.76,312.31,209,312.54,209,312.88Z" transform="translate(8.64 8.53)"/><path class="cls-45" d="M36.11,38.94a21.15,21.15,0,0,0,1.09,2.8A13.87,13.87,0,0,0,37.88,43c.23.39.59.86.76,1.22,0,0,0,.12.18-.08a32.61,32.61,0,0,0,2.81-4.26,9.47,9.47,0,0,0,1.46-4.08,17.1,17.1,0,0,0,0-1.9,18.51,18.51,0,0,0-3.47-9.54,8.81,8.81,0,0,1-.82-1.1c-.47.13-1.71,2.75-1.85,3.08a17,17,0,0,0-1.55,5.92A18.16,18.16,0,0,0,36.11,38.94Z" transform="translate(8.64 8.53)"/><path class="cls-46" d="M26.34,33.39a1.81,1.81,0,0,1,.42-.51,18.64,18.64,0,0,0,2.82-4.35c-.39-.45-5.76-.47-6.8-.32-.57.09-1.1.09-1.64.21A16.67,16.67,0,0,0,16.91,31,20.6,20.6,0,0,0,14.8,33.1,20.49,20.49,0,0,0,12.23,37a9.76,9.76,0,0,0-.78,2,19.76,19.76,0,0,0,2.46.06,18.66,18.66,0,0,0,6.31-1.43A19.51,19.51,0,0,0,26.34,33.39Z" transform="translate(8.64 8.53)"/><path class="cls-47" d="M20.56,44.21c-.12.2.25.86.4,1.24a29.91,29.91,0,0,0,1.93,3.62c1.32,2,1.49,2.54,3.61,3.72A17.92,17.92,0,0,0,35.22,55a17.68,17.68,0,0,0,2.59-.14c.28,0,.57-.11.83-.14a15.14,15.14,0,0,0-2-3.5,21.48,21.48,0,0,0-2-2.2,3.45,3.45,0,0,0-.36-.32c-.63-.48-1.19-1-2-1.56a18.46,18.46,0,0,0-5.88-2.55c-.43,0-.93-.18-1.39-.25s-.92-.13-1.42-.17A25.18,25.18,0,0,0,20.56,44.21Z" transform="translate(8.64 8.53)"/><path class="cls-48" d="M26.34,33.39a6.37,6.37,0,0,1,.61.73,14.62,14.62,0,0,1,1.6,2.51c.31.62.73,1.26.31,2s-1,.74-1.75,1a18,18,0,0,0-3.59,1.89c-.74.5-.92.7-1.55,1.19a7.48,7.48,0,0,0-1.41,1.4,25.18,25.18,0,0,1,3,0c.5,0,.95.09,1.42.17s1,.21,1.39.25A17.59,17.59,0,0,1,28.12,41c.37-.59.64-1.08,1.46-1.22s1.31.48,1.79.86a17.74,17.74,0,0,0,5.14,2.94,11.06,11.06,0,0,0,2.13.61c-.17-.36-.53-.83-.76-1.22a13.87,13.87,0,0,1-.68-1.25,21.15,21.15,0,0,1-1.09-2.8,19.86,19.86,0,0,1-3.08.34A10.65,10.65,0,0,1,31,39.09c-1.44-.52-.77-2.2-.66-3.37a17.49,17.49,0,0,0,.06-3.29A16.7,16.7,0,0,0,29.77,29a1.41,1.41,0,0,0-.06-.22l-.13-.23a18.64,18.64,0,0,1-2.82,4.35A1.81,1.81,0,0,0,26.34,33.39Z" transform="translate(8.64 8.53)"/><path class="cls-49" d="M128.21,42V56.06c2,0,1.64.37,1.64-1.85V52.08a8,8,0,0,0,3.88.25c2-.45,3-1.92,3.33-4.14a11.15,11.15,0,0,0,0-2.71c-.42-2.52-1.87-4.22-4.83-4.22a10,10,0,0,0-3.29.41c-.27.09-.49.22-.75.28Zm1.56,4.87V42.94s5.73-2.07,5.73,3.88c0,6.4-5.73,4-5.73,4Z" transform="translate(8.64 8.53)"/><path class="cls-49" d="M100.89,51.67c.22,0,.53.2.76.27a8.85,8.85,0,0,0,5.27,0,3.77,3.77,0,0,0,1.59-1.09c1.71-1.77,2.65-9.74-3.17-9.74a6.61,6.61,0,0,0-2.88.68V37.29h-1.57V51.67Zm1.5-5V42.94s6-2.61,5.72,3.76c.27,6-5.72,4-5.72,4Z" transform="translate(8.64 8.53)"/><path class="cls-49" d="M54.94,41.61a6.44,6.44,0,0,0,.2,1.3,15.7,15.7,0,0,1,4-.41,1.8,1.8,0,0,1,1.75,1.06,10.07,10.07,0,0,1,.1,2.77c-1.41-.68-7.29-1.4-6.85,3.16a2.8,2.8,0,0,0,.4,1.37c1.34,1.92,5.11,1.69,7.2,1.08a9,9,0,0,1,.9-.27c0-2.37,0-4.75,0-7.12A4.59,4.59,0,0,0,62.44,43c-1-2.65-5.35-1.9-7.5-1.39Zm6.14,7.48v1.78s-5.44,1.54-5.44-1.78,5.44-1.78,5.44-1.78Z" transform="translate(8.64 8.53)"/><path class="cls-49" d="M118.76,41.61a11.67,11.67,0,0,0,.21,1.23,13,13,0,0,0,1.51-.2c5-.7,4.38.83,4.38,3.69a8.18,8.18,0,0,0-3.29-.48c-1.71,0-3.56,1-3.56,2.81a3.55,3.55,0,0,0,.41,2.19c1.06,1.72,4.33,1.68,6.18,1.32l1-.21c.36-.09.61-.21,1-.29,0-2.37,0-4.75,0-7.12,0-1.61-.55-2.77-2.14-3.2a12.85,12.85,0,0,0-5.6.26Zm6.06,7.48v1.78s-5.44,1.54-5.44-1.78,5.44-1.78,5.44-1.78Z" transform="translate(8.64 8.53)"/><path class="cls-49" d="M138.89,41.61a11.67,11.67,0,0,0,.21,1.23c.76,0,1.83-.34,3.08-.34,1,0,2.26-.11,2.71,1a10.18,10.18,0,0,1,.17,2.78,8.1,8.1,0,0,0-3.36-.48c-1.72,0-3.56,1-3.56,2.95,0,1.31.15,2.21,1.33,2.91,1.54.94,4.46.7,6.22.25.36-.09.61-.21.94-.29V44.55c0-2.34-1.22-3.42-3.7-3.42a19.37,19.37,0,0,0-4,.48Zm6.21,7.48v1.78s-5.44,1.54-5.44-1.78,5.44-1.78,5.44-1.78Z" transform="translate(8.64 8.53)"/><path class="cls-49" d="M84.11,42.15v10h1.58v-8.9c0-.33,1-.49,1.23-.55a6,6,0,0,1,1.53-.17,3.12,3.12,0,0,1,1.46.33A1.29,1.29,0,0,1,90.62,44v8.15h1.57V43.52c0-.54,3.44-1.78,4.45-.2A3,3,0,0,1,97.12,45v7.19c1,0,1.64.15,1.64-.2V45.58a4.65,4.65,0,0,0-1-3.35l-.14-.14c-1.4-1.35-3.75-1.07-5.4-.42a7,7,0,0,1-.82.35,4.63,4.63,0,0,0-3.08-.89,10.27,10.27,0,0,0-3.27.64C84.73,41.89,84.45,42.07,84.11,42.15Z" transform="translate(8.64 8.53)"/><path class="cls-49" d="M73.5,46.33c0,1.81.07,3.48,1.28,4.68a3.74,3.74,0,0,0,1.53,1,11.81,11.81,0,0,0,6-.13,4.92,4.92,0,0,0-.21-1.23,18,18,0,0,1-2.74.34c-1.23,0-2.61.09-3.43-1a4.49,4.49,0,0,1-.74-2.89h7.05c0-1.65,0-3.3-1.05-4.69-1.39-1.78-5.11-1.82-6.63.09a6.28,6.28,0,0,0-1.08,3.78Zm1.61-.23S75,42.39,78,42.52c3-.13,2.86,3.58,2.86,3.58H75.11Z" transform="translate(8.64 8.53)"/><path class="cls-49" d="M64.52,43.8c0,3.93,6,2.38,6,5.48,0,2.72-4.59,1.5-6,1.5,0,.42-.11.8-.14,1.17a16.73,16.73,0,0,0,3.63.41,6.28,6.28,0,0,0,2.82-.6,3.21,3.21,0,0,0,1-4.1c-1.32-2.38-5.59-1.91-5.59-3.66v-.34c0-1.38,2.13-1.23,3.22-1.23a10.81,10.81,0,0,1,2.08.25c.23,0,.2,0,.24-.18s.1-.76.1-.88.24-.16-.51-.28C69.07,41,64.52,40.57,64.52,43.8Z" transform="translate(8.64 8.53)"/><path class="cls-49" d="M50.08,52.36A19.77,19.77,0,0,0,53,52.08c0-.19-.09-.53-.11-.7-.08-.7,0-.54-.72-.47l-.38,0c-1.38.18-3.22.14-4-1.12s-1.48-7.32,2.19-7.32a9.3,9.3,0,0,1,1.82.09,4.67,4.67,0,0,0,1,.18,7,7,0,0,1,.2-1.23A13.53,13.53,0,0,0,50,41.13c-2.83,0-4.34,1.87-4.52,4.38-.12,1.74-.1,3.85,1,5.3A4.32,4.32,0,0,0,50.08,52.36Z" transform="translate(8.64 8.53)"/><path class="cls-49" d="M111.57,42.09V52.15h1.57V42.84a8.14,8.14,0,0,1,2.68-.34c.56,0,.89.13,1.36.13a7.09,7.09,0,0,0,.28-1.23,12.63,12.63,0,0,0-2.26-.27C114.52,41.13,111.57,41.51,111.57,42.09Z" transform="translate(8.64 8.53)"/></g><g id="TEXTO"><text class="cls-50" transform="translate(19.97 106.34)">Nome:<tspan class="cls-51" x="0" y="10">M</tspan><tspan class="cls-52" x="3.24" y="10">a</tspan><tspan x="5.15" y="10">t</tspan><tspan class="cls-53" x="6.48" y="10">r</tspan><tspan x="7.8" y="10">ícula:</tspan><tspan x="0" y="20">D</tspan><tspan class="cls-52" x="2.66" y="20">a</tspan><tspan x="4.58" y="20">ta de nascime</tspan><tspan class="cls-52" x="27.58" y="20">n</tspan><tspan class="cls-54" x="29.79" y="20">t</tspan><tspan x="31.09" y="20">o:</tspan><tspan x="0" y="30">CNS:</tspan></text><text class="cls-55" transform="translate(19.97 144.81)">SEGMEN<tspan class="cls-56" x="13.26" y="0">T</tspan><tspan x="15" y="0">O ASSISTENCIAL: </tspan><tspan class="cls-57" x="41.64" y="0">A</tspan><tspan x="43.89" y="0">MBUL</tspan><tspan class="cls-58" x="53.01" y="0">A</tspan><tspan class="cls-56" x="54.99" y="0">T</tspan><tspan x="56.73" y="0">ORIAL E HOSPI</tspan><tspan class="cls-59" x="79.19" y="0">T</tspan><tspan x="80.75" y="0">AR </tspan><tspan class="cls-60" x="85.79" y="0">C</tspan><tspan x="87.86" y="0">OM OS</tspan><tspan class="cls-61" x="98.54" y="0">B</tspan><tspan x="100.52" y="0">T</tspan><tspan class="cls-62" x="102.35" y="0">E</tspan><tspan x="104.23" y="0">TRÍCIA</tspan></text><text class="cls-63" transform="translate(142.16 116.71)"><tspan class="cls-64">L</tspan><tspan x="1.83" y="0">otação:</tspan><tspan class="cls-65" x="0" y="10">V</tspan><tspan x="2.1" y="10">alidade:</tspan></text><text class="cls-63" transform="translate(218.51 116.71)"><tspan class="cls-66">P</tspan><tspan x="2.11" y="0">lano:</tspan></text><g id="PAM"><path class="cls-67" d="M180.21,42.33l-.24-.68H179l-.24.68h-.43l.93-2.48h.44l.93,2.48Zm-.35-1-.23-.67c0-.05,0-.12-.07-.22a1.89,1.89,0,0,1-.06-.21c0,.14-.08.29-.13.46l-.23.64Z" transform="translate(8.64 8.53)"/><path class="cls-67" d="M182.06,40.17a.69.69,0,0,0-.55.25,1.3,1.3,0,0,0,0,1.37.67.67,0,0,0,.56.23l.3,0,.31-.08v.35a2,2,0,0,1-.66.11,1.08,1.08,0,0,1-.84-.33,1.39,1.39,0,0,1-.29-.94,1.48,1.48,0,0,1,.15-.68,1,1,0,0,1,.4-.44,1.28,1.28,0,0,1,.63-.15,1.5,1.5,0,0,1,.7.16l-.14.33-.27-.1a.93.93,0,0,0-.29,0" transform="translate(8.64 8.53)"/><path class="cls-67" d="M185.43,41.09a1.34,1.34,0,0,1-.3.94,1.08,1.08,0,0,1-.86.34,1.11,1.11,0,0,1-.86-.33,1.39,1.39,0,0,1-.3-.95,1.34,1.34,0,0,1,.3-.94,1.13,1.13,0,0,1,.87-.33,1.07,1.07,0,0,1,.85.34,1.33,1.33,0,0,1,.3.93m-1.89,0a1.08,1.08,0,0,0,.19.7.65.65,0,0,0,.54.23.65.65,0,0,0,.55-.23,1.15,1.15,0,0,0,.18-.7,1.13,1.13,0,0,0-.18-.69.65.65,0,0,0-.54-.23.66.66,0,0,0-.55.23A1.07,1.07,0,0,0,183.54,41.09Z" transform="translate(8.64 8.53)"/><path class="cls-67" d="M187.06,42.33l-.71-2.06h0c0,.31,0,.59,0,.86v1.2H186V39.86h.57l.68,2h0l.71-2h.57v2.47h-.39V41.11c0-.12,0-.28,0-.48s0-.32,0-.36h0l-.74,2.06Z" transform="translate(8.64 8.53)"/><path class="cls-67" d="M191.42,41.09a1.34,1.34,0,0,1-.3.94,1.08,1.08,0,0,1-.86.34,1.11,1.11,0,0,1-.86-.33,1.39,1.39,0,0,1-.3-.95,1.3,1.3,0,0,1,.31-.94,1.09,1.09,0,0,1,.86-.33,1.07,1.07,0,0,1,.85.34,1.33,1.33,0,0,1,.3.93m-1.89,0a1.08,1.08,0,0,0,.19.7.65.65,0,0,0,.54.23.65.65,0,0,0,.55-.23,1.15,1.15,0,0,0,.18-.7,1.13,1.13,0,0,0-.18-.69.65.65,0,0,0-.54-.23.67.67,0,0,0-.55.23A1.07,1.07,0,0,0,189.53,41.09Z" transform="translate(8.64 8.53)"/><path class="cls-67" d="M194,41.07a1.27,1.27,0,0,1-.34.94,1.36,1.36,0,0,1-1,.32H192V39.86h.76a1.29,1.29,0,0,1,.92.32,1.18,1.18,0,0,1,.33.89m-.43,0c0-.59-.28-.89-.83-.89h-.35V42h.29A.79.79,0,0,0,193.57,41.09Z" transform="translate(8.64 8.53)"/><path class="cls-67" d="M196.1,42.33l-.25-.68h-.95l-.24.68h-.42l.92-2.48h.44l.93,2.48Zm-.36-1-.23-.67c0-.05,0-.12-.07-.22a1.89,1.89,0,0,1-.06-.21c0,.14-.08.29-.13.46l-.23.64Z" transform="translate(8.64 8.53)"/><path class="cls-67" d="M197.94,40.17a.64.64,0,0,0-.55.25,1.06,1.06,0,0,0-.2.68,1.07,1.07,0,0,0,.19.69.68.68,0,0,0,.56.23l.3,0,.31-.08v.35a2,2,0,0,1-.66.11,1.08,1.08,0,0,1-.84-.33,1.39,1.39,0,0,1-.29-.94,1.48,1.48,0,0,1,.15-.68,1,1,0,0,1,.4-.44,1.28,1.28,0,0,1,.63-.15,1.5,1.5,0,0,1,.7.16l-.14.33-.27-.1a.93.93,0,0,0-.29,0m.23,2.62c0,.25-.17.38-.52.38l-.2,0v-.23l.21,0,.14,0,0-.1c0-.09-.1-.16-.3-.19l.14-.28H198l-.07.15a.43.43,0,0,1,.21.12Z" transform="translate(8.64 8.53)"/><path class="cls-67" d="M200.65,42.33l-.25-.68h-.94l-.25.68h-.42l.92-2.48h.44l.93,2.48Zm-.47-2.67-.14,0-.14-.06-.13-.07-.11,0c-.1,0-.16.07-.19.2h-.21a.66.66,0,0,1,.13-.36.38.38,0,0,1,.29-.12l.14,0,.14.06.12.07.12,0c.09,0,.15-.07.18-.2h.21a.58.58,0,0,1-.13.36A.36.36,0,0,1,200.18,39.66Zm.12,1.64-.24-.67c0-.05,0-.12-.07-.22a1.89,1.89,0,0,1-.06-.21,3.67,3.67,0,0,1-.13.46l-.23.64Z" transform="translate(8.64 8.53)"/><path class="cls-67" d="M203.63,41.09a1.34,1.34,0,0,1-.3.94,1.06,1.06,0,0,1-.85.34,1.09,1.09,0,0,1-.86-.33,1.39,1.39,0,0,1-.3-.95,1.34,1.34,0,0,1,.3-.94,1.11,1.11,0,0,1,.86-.33,1.06,1.06,0,0,1,.85.34,1.33,1.33,0,0,1,.3.93m-1.88,0a1.15,1.15,0,0,0,.18.7.69.69,0,0,0,.55.23.63.63,0,0,0,.54-.23,1.14,1.14,0,0,0,.19-.7,1.13,1.13,0,0,0-.19-.69.65.65,0,0,0-.54-.23.69.69,0,0,0-.55.23A1.13,1.13,0,0,0,201.75,41.09Z" transform="translate(8.64 8.53)"/><rect class="cls-67" x="214.17" y="48.39" width="0.4" height="2.47"/><path class="cls-67" d="M208.69,42.33h-.5l-1.22-2h0v.11c0,.21,0,.41,0,.58v1.28h-.36V39.86h.49l1.21,2h0s0-.12,0-.28,0-.29,0-.38v-1.3h.37Z" transform="translate(8.64 8.53)"/><path class="cls-67" d="M211.38,41.07A1.23,1.23,0,0,1,211,42a1.33,1.33,0,0,1-1,.32h-.69V39.86h.77a1.29,1.29,0,0,1,.92.32,1.21,1.21,0,0,1,.32.89m-.42,0c0-.59-.28-.89-.83-.89h-.35V42h.28A.8.8,0,0,0,211,41.09Z" transform="translate(8.64 8.53)"/><rect class="cls-67" x="220.59" y="48.39" width="0.4" height="2.47"/><path class="cls-67" d="M214.45,39.86h.42L214,42.33h-.42l-.87-2.47h.42l.52,1.54.08.28c0,.12.05.2.06.26l.07-.3c0-.11,0-.19.07-.25Z" transform="translate(8.64 8.53)"/><rect class="cls-67" x="223.87" y="48.39" width="0.4" height="2.47"/><path class="cls-67" d="M218.33,41.07A1.23,1.23,0,0,1,218,42a1.35,1.35,0,0,1-1,.32h-.69V39.86h.76a1.27,1.27,0,0,1,.92.32,1.18,1.18,0,0,1,.33.89m-.43,0c0-.59-.27-.89-.83-.89h-.35V42H217A.79.79,0,0,0,217.9,41.09Z" transform="translate(8.64 8.53)"/><path class="cls-67" d="M220.83,39.86v1.6a1.06,1.06,0,0,1-.11.48.81.81,0,0,1-.34.32,1.27,1.27,0,0,1-.54.11,1,1,0,0,1-.71-.25.87.87,0,0,1-.25-.67V39.86h.4v1.57a.65.65,0,0,0,.14.45.63.63,0,0,0,.44.14q.57,0,.57-.6V39.86Z" transform="translate(8.64 8.53)"/><path class="cls-67" d="M223,42.33l-.24-.68h-.95l-.24.68h-.42l.92-2.48h.44l.93,2.48Zm-.35-1-.23-.67c0-.05,0-.12-.07-.22a1.89,1.89,0,0,1-.06-.21,3.85,3.85,0,0,1-.14.46l-.22.64Z" transform="translate(8.64 8.53)"/><polygon class="cls-67" points="232.47 50.87 232.47 48.39 232.87 48.39 232.87 50.52 233.92 50.52 233.92 50.87 232.47 50.87"/><path class="cls-67" d="M182.93,48.27l-.25-.69h-.94l-.24.69h-.43l.92-2.48h.44l.93,2.48Zm-.35-1-.24-.68s0-.11-.07-.21l-.06-.21a3.14,3.14,0,0,1-.13.45l-.22.65Z" transform="translate(8.64 8.53)"/><path class="cls-67" d="M183.72,45.8h.73a1.39,1.39,0,0,1,.74.15.52.52,0,0,1,.23.47.61.61,0,0,1-.11.36A.56.56,0,0,1,185,47v0a.53.53,0,0,1,.5.58.64.64,0,0,1-.23.52,1,1,0,0,1-.65.19h-.89Zm.4,1h.39a.7.7,0,0,0,.37-.08.3.3,0,0,0,.12-.27.28.28,0,0,0-.13-.26.79.79,0,0,0-.4-.07h-.35Zm0,.33v.78h.43a.63.63,0,0,0,.39-.1.36.36,0,0,0,.13-.3.33.33,0,0,0-.14-.29.7.7,0,0,0-.4-.09Z" transform="translate(8.64 8.53)"/><path class="cls-67" d="M186.44,47.28v1H186V45.8h.7a1.16,1.16,0,0,1,.71.18.65.65,0,0,1,.23.54.68.68,0,0,1-.48.66l.69,1.09h-.46l-.59-1Zm0-.33h.29a.62.62,0,0,0,.4-.11.36.36,0,0,0,.13-.31.32.32,0,0,0-.14-.3.73.73,0,0,0-.41-.09h-.27Z" transform="translate(8.64 8.53)"/><path class="cls-67" d="M189.82,48.27l-.24-.69h-1l-.24.69H188l.93-2.48h.44l.92,2.48Zm-.35-1-.23-.68a1.65,1.65,0,0,1-.07-.21l-.06-.21a3.26,3.26,0,0,1-.14.45l-.22.65Z" transform="translate(8.64 8.53)"/><path class="cls-67" d="M192.67,48.27h-.49l-1.22-2h0v.11c0,.21,0,.4,0,.58v1.28h-.37V45.8h.49l1.22,2h0a2.5,2.5,0,0,1,0-.28c0-.17,0-.29,0-.39V45.8h.37Z" transform="translate(8.64 8.53)"/><path class="cls-67" d="M194.37,46.93h.91v1.24a2.41,2.41,0,0,1-.43.1,3,3,0,0,1-.44,0,1.14,1.14,0,0,1-.87-.34,1.34,1.34,0,0,1-.3-.94,1.24,1.24,0,0,1,.34-.93,1.33,1.33,0,0,1,.95-.34,1.83,1.83,0,0,1,.73.15l-.14.34a1.46,1.46,0,0,0-.6-.14.79.79,0,0,0-.63.25,1,1,0,0,0-.23.68,1,1,0,0,0,.21.69.76.76,0,0,0,.59.23,1.55,1.55,0,0,0,.42-.05v-.63h-.51Z" transform="translate(8.64 8.53)"/><path class="cls-67" d="M197.31,48.27h-1.4V45.8h1.4v.34h-1v.67h.93v.34h-.93v.78h1ZM197,45.6a1.85,1.85,0,0,1-.39-.3,2.79,2.79,0,0,1-.38.3H196v0a3.26,3.26,0,0,0,.43-.51h.44a3,3,0,0,0,.44.51v0Z" transform="translate(8.64 8.53)"/><path class="cls-67" d="M199.94,48.27h-.5l-1.22-2h0v.11c0,.21,0,.4,0,.58v1.28h-.36V45.8h.49l1.21,2h0s0-.12,0-.28,0-.29,0-.39V45.8h.38Z" transform="translate(8.64 8.53)"/><path class="cls-67" d="M201.67,46.11a.64.64,0,0,0-.54.25,1,1,0,0,0-.2.68,1.07,1.07,0,0,0,.19.69.69.69,0,0,0,.55.23,1.55,1.55,0,0,0,.31,0l.3-.08v.34a1.67,1.67,0,0,1-.65.11,1.09,1.09,0,0,1-.84-.32,1.42,1.42,0,0,1-.29-.95,1.57,1.57,0,0,1,.14-.67,1,1,0,0,1,.41-.44,1.18,1.18,0,0,1,.63-.16,1.67,1.67,0,0,1,.7.16l-.15.34-.26-.11a1,1,0,0,0-.3,0" transform="translate(8.64 8.53)"/><rect class="cls-67" x="211.49" y="54.33" width="0.4" height="2.47"/><path class="cls-67" d="M205.48,48.27l-.25-.69h-.95l-.24.69h-.42l.92-2.48H205l.93,2.48Zm-.36-1-.23-.68s0-.11-.07-.21l-.06-.21a3.14,3.14,0,0,1-.13.45l-.23.65Z" transform="translate(8.64 8.53)"/><path class="cls-67" d="M209.66,48.27h-.49l-1.22-2h0v.11c0,.21,0,.4,0,.58v1.28h-.37V45.8h.49l1.22,2h0s0-.12,0-.28,0-.29,0-.39V45.8h.37Z" transform="translate(8.64 8.53)"/><path class="cls-67" d="M211.88,48.27l-.24-.69h-.95l-.24.69H210l.93-2.48h.44l.92,2.48Zm-.35-1-.23-.68a1.65,1.65,0,0,1-.07-.21l-.06-.21a3.26,3.26,0,0,1-.14.45l-.22.65Z" transform="translate(8.64 8.53)"/><path class="cls-67" d="M213.72,46.11a.64.64,0,0,0-.54.25,1,1,0,0,0-.2.68,1.07,1.07,0,0,0,.19.69.69.69,0,0,0,.55.23,1.55,1.55,0,0,0,.31,0l.3-.08v.34a1.67,1.67,0,0,1-.65.11,1.09,1.09,0,0,1-.84-.32,1.42,1.42,0,0,1-.29-.95,1.57,1.57,0,0,1,.14-.67,1,1,0,0,1,.41-.44,1.18,1.18,0,0,1,.63-.16,1.67,1.67,0,0,1,.7.16l-.15.34-.26-.11a1,1,0,0,0-.3,0" transform="translate(8.64 8.53)"/><rect class="cls-67" x="223.54" y="54.33" width="0.4" height="2.47"/><path class="cls-67" d="M218.19,47a1.36,1.36,0,0,1-.3.94,1.29,1.29,0,0,1-1.72,0,1.62,1.62,0,0,1,0-1.88,1.13,1.13,0,0,1,.87-.33,1.1,1.1,0,0,1,.85.33,1.36,1.36,0,0,1,.3.94m-1.89,0a1,1,0,0,0,.19.69A.63.63,0,0,0,217,48a.69.69,0,0,0,.55-.23,1.15,1.15,0,0,0,.18-.7,1.13,1.13,0,0,0-.18-.69.76.76,0,0,0-1.09,0A1.07,1.07,0,0,0,216.3,47Z" transform="translate(8.64 8.53)"/><path class="cls-67" d="M220.81,48.27h-.49l-1.22-2h0v.11c0,.21,0,.4,0,.58v1.28h-.37V45.8h.49l1.22,2h0a2.5,2.5,0,0,1,0-.28c0-.17,0-.29,0-.39V45.8h.37Z" transform="translate(8.64 8.53)"/><path class="cls-67" d="M223,48.27l-.24-.69h-.95l-.24.69h-.43l.93-2.48h.44l.92,2.48Zm-.35-1-.23-.68a1.65,1.65,0,0,1-.07-.21l-.06-.21a3.26,3.26,0,0,1-.14.45l-.22.65Z" transform="translate(8.64 8.53)"/><polygon class="cls-67" points="232.47 56.8 232.47 54.33 232.87 54.33 232.87 56.45 233.92 56.45 233.92 56.8 232.47 56.8"/><path class="cls-18" d="M206.49,34.44h-1.84V27.57h2.61a2.7,2.7,0,1,1,0,5.39h-.77Zm.68-3a1,1,0,0,0,1.13-1.13,1,1,0,0,0-1.13-1.15h-.68V31.4Z" transform="translate(8.64 8.53)"/><path class="cls-18" d="M211.34,34.44h-1.8l3.34-7H213l3.34,7h-1.91l-.26-.58h-2.59Zm1.52-3.56-.68,1.6h1.39Z" transform="translate(8.64 8.53)"/><polygon class="cls-18" points="225.9 36.03 225.99 36.02 229.28 39.72 232.53 36.02 232.62 36.03 233.03 42.98 231.22 42.98 231.06 40.04 229.34 42.03 229.25 42.03 227.45 40.03 227.29 42.98 225.49 42.98 225.9 36.03"/></g></g><g id="EXEMPLO"><text class="cls-68" transform="translate(35.77 106.59)"><tspan class="cls-69">'.$data['recipient'].'</tspan></text><text class="cls-68" transform="translate(42.13 117.8)">'.$data['registration'].'</text><text class="cls-68" transform="translate(62.15 126.99)">'.$data['birth_date'].'</text><text class="cls-68" transform="translate(32.87 137.49)">'.$data['cns'].'</text><text class="cls-68" transform="translate(162.88 126.99)">'.$data['validity_date_portfolio'].'</text><text class="cls-68" transform="translate(161.43 117.8)">'.$data['stock_code'].'</text><text class="cls-68" transform="translate(235.47 117.8)">'.$data['plan'].'</text></g></svg>